<?xml version="1.0" encoding="utf-8"?>
<!-- Generator: Adobe Illustrator 22.1.0, SVG Export Plug-In . SVG Version: 6.00 Build 0)  -->
<svg version="1.1" id="图层_1" xmlns="http://www.w3.org/2000/svg" xmlns:xlink="http://www.w3.org/1999/xlink" x="0px" y="0px"
	 viewBox="0 0 32 32" style="enable-background:new 0 0 32 32;" xml:space="preserve">
<style type="text/css">
	.st0{fill-rule:evenodd;clip-rule:evenodd;fill:#005BAC;}
</style>
<g>
	<path class="st0" d="M29.2,26.5c-8.8,0-8.8,0-8.8,0c-0.4-2.2-2-3.8-4-4c0-2.2,0-2.2,0-2.2c9.3,0,9.3,0,9.3,0c2,0,3.5-1.6,3.5-3.4
		c0-6.5,0-6.5,0-6.5c-1.3,0-1.3,0-1.3,0c0,4,0,4,0,4c-24.5,0-24.5,0-24.5,0c0-10.5,0-10.5,0-10.5c0-1.3,1.1-2.2,2.2-2.2
		c20.1,0,20.1,0,20.1,0c1.3,0,2.2,0.9,2.2,2.2c0,0.4,0,0.4,0,0.4c1.3,0,1.3,0,1.3,0c0-0.4,0-0.4,0-0.4c0-2-1.5-3.6-3.5-3.6
		c-20.1,0-20.1,0-20.1,0c-1.8,0-3.3,1.6-3.3,3.6c0,13,0,13,0,13c0,1.8,1.5,3.4,3.3,3.4c9.5,0,9.5,0,9.5,0c0,2.2,0,2.2,0,2.2
		c-2,0.2-3.5,1.8-3.7,4c-9,0-9,0-9,0c-0.2,0-0.7,0.2-0.7,0.4c0,0.4,0.4,0.7,0.7,0.7c9,0,9,0,9,0c0.2,2.2,2.2,4,4.4,4
		c2.4,0,4.2-1.8,4.6-4c8.8,0,8.8,0,8.8,0c0.4,0,0.7-0.2,0.7-0.7C29.9,26.7,29.7,26.5,29.2,26.5L29.2,26.5z M5.6,19.1
		c-1.1,0-2.2-1.1-2.2-2.2c0-1.3,0-1.3,0-1.3c24.5,0,24.5,0,24.5,0c0,1.3,0,1.3,0,1.3c0,1.1-0.9,2.2-2.2,2.2H5.6L5.6,19.1L5.6,19.1z
		 M15.8,30.3c-1.8,0-3.3-1.3-3.3-3.4c0-1.8,1.5-3.4,3.3-3.4c2,0,3.3,1.6,3.3,3.4C19.1,29,17.8,30.3,15.8,30.3L15.8,30.3z"/>
	<polygon class="st0" points="29.2,6.7 29.2,5.6 27.9,5.6 27.9,6.7 26.8,6.7 26.8,8.1 27.9,8.1 27.9,9.2 29.2,9.2 29.2,8.1 
		30.3,8.1 30.3,6.7 29.2,6.7 29.2,6.7 	"/>
</g>
</svg>
