<svg xmlns="http://www.w3.org/2000/svg" viewBox="0 0 213.2 215.3">
<style type="text/css">
	.st0{fill-rule:evenodd;clip-rule:evenodd;fill:#005BAC;}
</style>
<path class="st0" d="M109.8,97.5L109.8,97.5v7.2h7.2v7.2h-7.2v7.2h-7.2V112h-7.2v-7.2h7.2v-7.2H109.8L109.8,97.5z M195.8,90.2
	c10.2,0,17.4,7.3,17.4,17.5c0,10.2-7.3,18.9-17.4,18.9c-8.7,0-16-5.8-18.9-14.5c0,0,0,0-20.3,0c-1.5,11.6-5.8,21.8-13.1,29.1
	c0,0,0,0,16,14.5c2.9-1.5,5.8-2.9,10.2-2.9c10.2,0,17.4,8.7,18.9,18.9c-1.5,10.2-8.7,17.5-18.9,17.5s-18.9-7.3-18.9-17.5
	c0-4.4,1.5-7.3,2.9-10.2c0,0,0,0-14.5-14.5c-8.7,5.8-17.4,10.2-29,11.6c0,0,0,0,0,20.4c8.7,2.9,14.5,10.2,14.5,18.9
	c0,10.2-7.3,17.5-17.4,17.5s-18.9-7.3-18.9-17.5c0-8.7,7.3-16,14.5-18.9c0,0,0,0,0-20.4c-11.6-1.5-21.8-5.8-29-13.1c0,0,0,0-16,16
	c2.9,2.9,2.9,5.8,2.9,10.2c0,10.2-7.3,17.5-17.4,17.5s-18.9-7.3-18.9-17.5s8.7-18.9,18.9-18.9c4.4,0,7.3,1.5,10.2,2.9
	c0,0,0,0,14.5-14.5c-5.8-8.7-10.2-18.9-11.6-29.1c0,0,0,0-20.3,0c-2.9,8.7-10.2,14.5-18.9,14.5C7.3,126.6,0,117.8,0,107.7
	c0-10.2,7.3-17.5,17.4-17.5c8.7,0,16,5.8,18.9,14.5c0,0,0,0,20.3,0c1.5-11.6,5.8-20.4,11.6-29.1c0,0,0,0-16-16
	c-2.9,1.5-5.8,2.9-8.7,2.9c-10.2,0-18.9-8.7-18.9-17.5c0-10.2,8.7-18.9,18.9-18.9s17.4,8.7,17.4,18.9c0,2.9-1.5,7.3-2.9,10.2
	c0,0,0,0,16,16c7.3-7.3,17.4-11.6,29-13.1c0,0,0,0,0-21.8c-7.3-1.5-14.5-8.7-14.5-17.5C88.5,8.7,97.2,0,107.3,0s17.4,8.7,17.4,18.9
	c0,8.7-5.8,16-14.5,17.5c0,0,0,0,0,21.8c11.6,1.5,21.8,5.8,29,11.6c0,0,0,0,16-14.5c-2.9-2.9-4.4-7.3-4.4-10.2
	c0-10.2,8.7-18.9,18.9-18.9s17.4,8.7,18.9,18.9c-1.5,8.7-8.7,17.5-18.9,17.5c-4.4,0-7.3-1.5-10.2-2.9c0,0,0,0-14.5,16
	c5.8,7.3,10.2,17.5,11.6,29.1c0,0,0,0,20.3,0C179.8,96,187.1,90.2,195.8,90.2L195.8,90.2z M169.7,33.5c-5.8,0-11.6,4.4-11.6,11.6
	c0,5.8,5.8,10.2,11.6,10.2s10.2-4.4,10.2-10.2C179.8,37.8,175.5,33.5,169.7,33.5L169.7,33.5z M43.5,55.3c5.8,0,10.2-4.4,10.2-10.2
	c0-7.3-4.4-11.6-10.2-11.6c-7.3,0-11.6,4.4-11.6,11.6C31.9,50.9,36.3,55.3,43.5,55.3L43.5,55.3z M17.4,119.3
	c5.8,0,11.6-4.4,11.6-11.6c0-5.8-5.8-10.2-11.6-10.2s-10.2,4.4-10.2,10.2C7.3,114.9,11.6,119.3,17.4,119.3L17.4,119.3z M43.5,181.9
	c5.8,0,10.2-4.4,10.2-10.2c0-7.3-4.4-11.6-10.2-11.6s-11.6,4.4-11.6,11.6C31.9,177.5,37.7,181.9,43.5,181.9L43.5,181.9z M169.7,160
	c-5.8,0-11.6,4.4-11.6,11.6c0,5.8,5.8,10.2,11.6,10.2s10.2-4.4,10.2-10.2C179.8,164.4,175.5,160,169.7,160L169.7,160z M95.7,18.9
	c0,5.8,5.8,10.2,11.6,10.2s10.2-4.4,10.2-10.2s-4.4-11.6-10.2-11.6S95.7,13.1,95.7,18.9L95.7,18.9z M117.5,197.9
	c0-5.8-4.4-11.6-10.2-11.6s-11.6,5.8-11.6,11.6s5.8,10.2,11.6,10.2S117.5,203.7,117.5,197.9L117.5,197.9z M107.3,151.3
	c23.2,0,42.1-18.9,42.1-43.6c0-23.3-18.9-42.2-42.1-42.2c-24.7,0-43.5,18.9-43.5,42.2C63.8,132.4,82.7,151.3,107.3,151.3
	L107.3,151.3z M195.8,119.3c5.8,0,10.2-4.4,10.2-11.6c0-5.8-4.4-10.2-10.2-10.2c-5.8,0-11.6,4.4-11.6,10.2
	C184.2,114.9,190,119.3,195.8,119.3"/>
</svg>
