<?xml version="1.0" encoding="utf-8"?>
<!-- Generator: Adobe Illustrator 22.1.0, SVG Export Plug-In . SVG Version: 6.00 Build 0)  -->
<svg version="1.1" id="图层_1" xmlns="http://www.w3.org/2000/svg" xmlns:xlink="http://www.w3.org/1999/xlink" x="0px" y="0px"
	 viewBox="0 0 32 32" style="enable-background:new 0 0 32 32;" xml:space="preserve">
<style type="text/css">
	.st0{fill-rule:evenodd;clip-rule:evenodd;fill:#005BAC;}
</style>
<g>
	<polygon class="st0" points="15.4,17.2 15.4,18.2 14.4,18.2 14.4,19.5 15.4,19.5 15.4,20.5 16.4,20.5 16.4,19.5 17.6,19.5 
		17.6,18.2 16.4,18.2 16.4,17.2 15.4,17.2 15.4,17.2 	"/>
	<path class="st0" d="M17.2,23.8c-2.2,0.6-4.7-0.4-5.9-2.4c-1-2-0.8-4.5,0.8-6.1c0,0.8,0,0.8,0,0.8c0,0.2,0.2,0.6,0.4,0.6l0,0
		c0.4,0,0.6-0.2,0.6-0.6c0.2-2.2,0.2-2.2,0.2-2.2c0-0.2-0.2-0.4-0.6-0.6c-2.2,0-2.2,0-2.2,0c-0.2,0-0.4,0.2-0.4,0.4
		c0,0.4,0.2,0.6,0.4,0.6c1,0,1,0,1,0c-2,2-2.4,5.3-1,7.8c1,2,3.3,3.1,5.5,3.1c0.4,0,1,0,1.6-0.2c0.2,0,0.4-0.4,0.2-0.6
		C17.8,24,17.6,23.8,17.2,23.8L17.2,23.8z"/>
	<path class="st0" d="M21.7,15.5c-1.4-2.4-4.5-3.6-7.1-3c-0.4,0.2-0.6,0.4-0.4,0.8c0,0.2,0.4,0.4,0.6,0.2c2.2-0.6,4.7,0.4,5.9,2.4
		c1,2,0.8,4.4-0.6,6c0-1,0-1,0-1c0.2-0.2-0.2-0.4-0.4-0.6c-0.4,0-0.6,0.2-0.6,0.6c-0.2,2.2-0.2,2.2-0.2,2.2c0,0.2,0.2,0.4,0.6,0.6
		c2.2,0,2.2,0,2.2,0l0,0c0.2,0,0.4-0.2,0.4-0.4c0.2-0.4-0.2-0.6-0.4-0.6c-0.8,0-0.8,0-0.8,0C22.7,20.7,22.9,17.7,21.7,15.5
		L21.7,15.5z"/>
	<path class="st0" d="M27.2,13.2c0-0.6,0-1,0-1.4c0-4.3-3.5-8-8-8c-3.5,0-6.5,2.5-7.5,5.8c-0.8-0.4-1.6-0.6-2.4-0.6
		c-2.7,0-4.9,2.3-4.9,5.1c0,0.2,0,0.4,0,0.6c-2.4,1.2-3.9,3.7-3.9,6.6c0,3.9,3.1,7,7.1,7c16.3,0,16.3,0,16.3,0l0,0
		c4.3-0.2,7.5-3.7,7.5-8C31.5,17.3,29.9,14.5,27.2,13.2L27.2,13.2z M23.7,27.2L23.7,27.2c-16.1,0-16.1,0-16.1,0
		c-3.5,0-6.1-2.7-6.1-6c0-2.5,1.4-4.7,3.7-5.8c0.2,0,0.4-0.4,0.4-0.6c-0.2-0.2-0.2-0.6-0.2-0.8c0-2.3,1.8-3.9,3.9-3.9
		c0.8,0,1.6,0.2,2.4,0.8c0.2,0,0.4,0,0.4,0c0.2,0,0.4-0.2,0.4-0.4C13.1,7.3,16,5,19.3,5c3.9,0,6.9,3.1,6.9,6.8c0,0.6-0.2,1-0.2,1.6
		c0,0.2,0,0.4,0.2,0.6c2.7,1,4.1,3.5,4.1,6.2C30.3,23.9,27.4,27,23.7,27.2L23.7,27.2z"/>
</g>
</svg>
