<?xml version="1.0" encoding="utf-8"?>
<!-- Generator: Adobe Illustrator 22.1.0, SVG Export Plug-In . SVG Version: 6.00 Build 0)  -->
<svg version="1.1" id="图层_1" xmlns="http://www.w3.org/2000/svg" xmlns:xlink="http://www.w3.org/1999/xlink" x="0px" y="0px"
	 viewBox="0 0 600 600" style="enable-background:new 0 0 600 600;" xml:space="preserve">
<style type="text/css">
	.st0{fill:#005BAC;}
</style>
<g>
	<g>
		<path class="st0" d="M438.7,514.8c-38.7,24-84.4,38-133.2,38h0c-139.7,0-253.3-113.6-253.3-253.3c0-139.7,113.6-253.3,253.3-253.3
			c139.7,0,253.3,113.6,253.3,253.3c0,49.2-14.1,95.1-38.5,134l16.8,16.8c28.3-43.4,44.9-95.2,44.9-150.7
			c0-152.4-124-276.4-276.4-276.4S29,147.1,29,299.6C29,452,153,576,305.4,576h0c55.2,0,106.7-16.4,150-44.4L438.7,514.8z"/>
	</g>
	<g>
		<g>
			<polygon class="st0" points="508.7,519.7 459.9,470.9 476.1,454.6 525,503.4 			"/>
		</g>
		<g>
			<polygon class="st0" points="508.7,454.6 525,470.9 476.1,519.7 459.9,503.5 			"/>
		</g>
	</g>
	<g>
		<path class="st0" d="M305.4,101.4c-6.4,0-11.6-5.2-11.6-11.6V34.7c0-6.4,5.2-11.6,11.6-11.6S317,28.3,317,34.7v55.2
			C317,96.3,311.8,101.4,305.4,101.4z"/>
	</g>
	<g>
		<path class="st0" d="M305.4,576c-6.4,0-11.6-5.2-11.6-11.6v-55.1c0-6.4,5.2-11.6,11.6-11.6s11.6,5.2,11.6,11.6v55.1
			C317,570.8,311.8,576,305.4,576z"/>
	</g>
	<g>
		<path class="st0" d="M570.3,311.2h-55.1c-6.4,0-11.6-5.2-11.6-11.6c0-6.4,5.2-11.6,11.6-11.6h55.1c6.4,0,11.6,5.2,11.6,11.6
			C581.9,306,576.7,311.2,570.3,311.2z"/>
	</g>
	<g>
		<path class="st0" d="M95.7,311.2H40.6c-6.4,0-11.6-5.2-11.6-11.6c0-6.4,5.2-11.6,11.6-11.6h55.2c6.4,0,11.6,5.2,11.6,11.6
			C107.3,306,102.1,311.2,95.7,311.2z"/>
	</g>
	<g>
		<g>
			<g>
				<g>
					<path class="st0" d="M305.4,262.6c-27.7,0-50.2-22.5-50.2-50.3c0-27.7,22.5-50.3,50.2-50.3c27.7,0,50.3,22.5,50.3,50.3
						C355.7,240,333.1,262.6,305.4,262.6z M305.4,185.2c-14.9,0-27,12.2-27,27.1c0,14.9,12.1,27.1,27,27.1
						c14.9,0,27.1-12.1,27.1-27.1C332.5,197.4,320.4,185.2,305.4,185.2z"/>
				</g>
			</g>
			<g>
				<g>
					<path class="st0" d="M305.5,443.5c-27.5,0-40.4-34.1-41.5-69.6c-18-13.9-28.5-35.9-28.5-60c0-41.1,31.4-74.5,70-74.5
						c38.6,0,70,33.4,70,74.5c0,24.1-10.5,46.1-28.5,60C345.9,409.3,332.9,443.5,305.5,443.5z M305.5,262.6
						c-25.8,0-46.9,23-46.9,51.3c0,18.4,8.6,35,23.1,44.2l5.7,3.7l-0.4,6.8c0,29.7,9.8,51.6,18.5,51.6c8.7,0,18.4-22,18.4-51.3
						l-0.3-6.7l5.6-4.2c14.5-9.3,23.1-25.8,23.1-44.2C352.3,285.6,331.3,262.6,305.5,262.6z"/>
				</g>
			</g>
		</g>
		<g>
			<g>
				<g>
					<path class="st0" d="M197.9,294.2c-24.2,0-43.8-19.7-43.8-43.8c0-24.2,19.7-43.9,43.8-43.9c24.2,0,43.9,19.7,43.9,43.9
						C241.8,274.6,222.1,294.2,197.9,294.2z M197.9,229.6c-11.4,0-20.7,9.3-20.7,20.7c0,11.4,9.3,20.7,20.7,20.7
						c11.4,0,20.7-9.3,20.7-20.7C218.6,239,209.3,229.6,197.9,229.6z"/>
				</g>
			</g>
			<g>
				<g>
					<path class="st0" d="M197.9,443.5c-23.9,0-35.4-28.4-36.6-58.3c-14.7-12-23.3-30.4-23.3-50.4c0-35.1,26.9-63.7,60-63.7
						c33.1,0,60.1,28.6,60.1,63.7c0,20-8.6,38.4-23.3,50.4C233.3,415.3,221.8,443.5,197.9,443.5z M197.9,294.2
						c-20.3,0-36.8,18.2-36.8,40.6c0,14.4,6.7,27.4,18,34.8l5.3,3.4v6.3c0,24.9,8.2,41.1,13.6,41.1c5.6,0,13.7-15.8,13.7-40.5v-6.3
						l5.2-4c11.2-7.4,18-20.4,18-34.8C234.8,312.4,218.3,294.2,197.9,294.2z"/>
				</g>
			</g>
		</g>
		<g>
			<g>
				<g>
					<path class="st0" d="M412.3,294.2c-24.2,0-43.9-19.7-43.9-43.8c0-24.2,19.7-43.9,43.9-43.9c24.2,0,43.8,19.7,43.8,43.9
						C456.2,274.6,436.5,294.2,412.3,294.2z M412.3,229.6c-11.4,0-20.7,9.3-20.7,20.7c0,11.4,9.3,20.7,20.7,20.7
						c11.4,0,20.7-9.3,20.7-20.7C433,239,423.7,229.6,412.3,229.6z"/>
				</g>
			</g>
			<g>
				<g>
					<path class="st0" d="M412.3,443.5c-24,0-35.5-28.5-36.7-58.3c-14.7-12-23.3-30.4-23.3-50.4c0-35.1,26.9-63.7,60.1-63.7
						c33.1,0,60,28.6,60,63.7c0,20.1-8.6,38.5-23.3,50.5C447.6,415.3,436.2,443.5,412.3,443.5z M412.3,294.2
						c-20.3,0-36.9,18.2-36.9,40.6c0,14.4,6.7,27.4,18,34.8l5.2,3.4v6.3c0,25.3,8.1,41.1,13.7,41.1c5.4,0,13.6-16.2,13.6-40.5v-6.3
						l5.2-3.9c11.3-7.4,18-20.4,18-34.8C449.2,312.4,432.6,294.2,412.3,294.2z"/>
				</g>
			</g>
		</g>
	</g>
</g>
</svg>
