<svg xmlns="http://www.w3.org/2000/svg" viewBox="0 0 227.5 180.2">
<style type="text/css">
	.st0{fill-rule:evenodd;clip-rule:evenodd;fill:#005BAC;}
</style>
<defs>
</defs>
<path class="st0" d="M185.7,18.6c-147,0-147,0-147,0c-7.7,0-15.5,7.8-15.5,15.6c0,74.8,0,74.8,0,74.8c0,7.8,7.7,15.6,15.5,15.6
	c147,0,147,0,147,0c9.3,0,17-7.8,17-15.6c0-74.8,0-74.8,0-74.8C202.7,26.4,195,18.6,185.7,18.6L185.7,18.6z M195,108.9
	c0,4.7-4.6,7.8-9.3,7.8c-147,0-147,0-147,0c-4.6,0-7.7-3.1-7.7-7.8c0-74.8,0-74.8,0-74.8c0-3.1,3.1-7.8,7.7-7.8c147,0,147,0,147,0
	c4.6,0,9.3,4.7,9.3,7.8V108.9L195,108.9L195,108.9z M219.8,136.7c1.5-1.6,3.1-4.7,3.1-7.8c0-113.4,0-113.4,0-113.4
	c0-7.8-7.7-15.5-15.5-15.5C20.1,0,20.1,0,20.1,0C12.4,0,6.2,7.8,6.2,15.5c0,113.4,0,113.4,0,113.4c0,3.1,0,6.2,3.1,7.8
	c-6.2,3.1-9.3,9.3-9.3,15.5c0,3.1,0,3.1,0,3.1c0,10.9,4.6,15.5,12.4,15.5c147,0,147,0,147,0c0-6.2,0-6.2,0-6.2c-147,0-147,0-147,0
	c-1.5,0-4.6,0-4.6-9.3c0-3.1,0-3.1,0-3.1c0-4.7,3.1-7.8,7.7-7.8s4.6,0,4.6,0c187.3,0,187.3,0,187.3,0c4.6,0,4.6,0,4.6,0
	c4.6,0,9.3,3.1,9.3,7.8c0,3.1,0,3.1,0,3.1c0,4.7-4.6,9.3-9.3,9.3c-12.4,0-12.4,0-12.4,0c0,6.2,0,6.2,0,6.2c12.4,0,12.4,0,12.4,0
	c9.3,0,15.5-6.2,15.5-15.5c0-3.1,0-3.1,0-3.1C227.5,146.1,224.4,139.9,219.8,136.7L219.8,136.7z M215.1,129c0,3.1-3.1,6.2-7.7,6.2
	c-187.3,0-187.3,0-187.3,0c-3.1,0-7.7-3.1-7.7-6.2c0-113.4,0-113.4,0-113.4c0-4.7,4.6-7.8,7.7-7.8c187.3,0,187.3,0,187.3,0
	c4.6,0,7.7,3.1,7.7,7.8C215.1,129,215.1,129,215.1,129 M184.2,157L184.2,157v7.7h7.7v7.7h-7.7v7.7h-9.3v-7.7h-6.2v-7.7h6.2V157
	H184.2L184.2,157z M123.8,40.2c1.5,0,4.6,1.5,4.6,4.6s-3.1,4.6-4.6,4.6c0,0,0,0-60.4,0c-3.1,0-4.6-1.5-4.6-4.6s1.5-4.6,4.6-4.6
	C63.4,40.2,63.4,40.2,123.8,40.2 M106.8,68.8c1.5,0,3.1,1.5,3.1,3.1s-1.5,3.1-3.1,3.1c0,0,0,0-43.3,0c-3.1,0-4.6-1.5-4.6-3.1
	s1.5-3.1,4.6-3.1C63.4,68.8,63.4,68.8,106.8,68.8 M88.2,95.1c1.5,0,3.1,1.5,3.1,3.1c0,3.1-1.5,4.6-3.1,4.6c0,0,0,0-24.8,0
	c-3.1,0-4.6-1.5-4.6-4.6c0-1.5,1.5-3.1,4.6-3.1C63.4,95.1,63.4,95.1,88.2,95.1"/>
</svg>
