<?xml version="1.0" encoding="UTF-8"?>
<svg width="466px" height="427px" viewBox="0 0 466 427" version="1.1" xmlns="http://www.w3.org/2000/svg" xmlns:xlink="http://www.w3.org/1999/xlink">
    <title>编组</title>
    <defs>
        <filter x="-15.3%" y="-17.0%" width="130.5%" height="134.0%" filterUnits="objectBoundingBox" id="filter-1">
            <feOffset dx="0" dy="0" in="SourceAlpha" result="shadowOffsetOuter1"></feOffset>
            <feGaussianBlur stdDeviation="15" in="shadowOffsetOuter1" result="shadowBlurOuter1"></feGaussianBlur>
            <feColorMatrix values="0 0 0 0 0   0 0 0 0 0   0 0 0 0 0  0 0 0 0.05 0" type="matrix" in="shadowBlurOuter1" result="shadowMatrixOuter1"></feColorMatrix>
            <feMerge>
                <feMergeNode in="shadowMatrixOuter1"></feMergeNode>
                <feMergeNode in="SourceGraphic"></feMergeNode>
            </feMerge>
        </filter>
        <polygon id="path-2" points="0.0858715084 0.278312849 235.793078 0.278312849 235.793078 324.804469 0.0858715084 324.804469"></polygon>
        <linearGradient x1="50%" y1="-32.4360605%" x2="50%" y2="100%" id="linearGradient-4">
            <stop stop-color="#ECF4FD" offset="0%"></stop>
            <stop stop-color="#F6FAFF" stop-opacity="0" offset="100%"></stop>
        </linearGradient>
        <linearGradient x1="50%" y1="-32.4360605%" x2="50%" y2="100%" id="linearGradient-5">
            <stop stop-color="#F6FAFF" stop-opacity="0" offset="0%"></stop>
            <stop stop-color="#ECF4FD" offset="100%"></stop>
        </linearGradient>
    </defs>
    <g id="页面-1" stroke="none" stroke-width="1" fill="none" fill-rule="evenodd">
        <g id="金融行业方案" transform="translate(-385.000000, -3217.000000)">
            <g id="编组" transform="translate(428.000000, 3260.000000)" filter="url(#filter-1)">
                <g transform="translate(72.363128, 15.692067)">
                    <mask id="mask-3" fill="white">
                        <use xlink:href="#path-2"></use>
                    </mask>
                    <g id="Clip-2"></g>
                    <path d="M223.006821,324.804682 L12.8731899,324.804682 C5.81028492,324.804682 0.0858715084,319.079207 0.0858715084,312.017363 L0.0858715084,13.0656313 C0.0858715084,6.00272626 5.81028492,0.278312849 12.8731899,0.278312849 L223.006821,0.278312849 C230.068665,0.278312849 235.793078,6.00272626 235.793078,13.0656313 L235.793078,312.017363 C235.793078,319.079207 230.068665,324.804682 223.006821,324.804682" id="Fill-1" fill="#C2DFFF" mask="url(#mask-3)"></path>
                </g>
                <path d="M280.707575,318.080782 L99.8976313,318.080782 C93.3972961,318.080782 88.1271844,312.81067 88.1271844,306.310335 L88.1271844,59.281676 C88.1271844,52.7802793 93.3972961,47.5101676 99.8976313,47.5101676 L280.707575,47.5101676 C287.208972,47.5101676 292.479084,52.7802793 292.479084,59.281676 L292.479084,306.310335 C292.479084,312.81067 287.208972,318.080782 280.707575,318.080782" id="Fill-3" fill="#FFFFFF"></path>
                <path d="M217.144402,34.3401955 L173.047419,34.3401955 C171.609151,34.3401955 170.443676,33.1747207 170.443676,31.737514 C170.443676,30.2992458 171.609151,29.1348324 173.047419,29.1348324 L217.144402,29.1348324 C218.581609,29.1348324 219.748145,30.2992458 219.748145,31.737514 C219.748145,33.1747207 218.581609,34.3401955 217.144402,34.3401955" id="Fill-5" fill="#FFFFFF"></path>
                <path d="M160.858335,31.7374078 C160.858335,33.1746145 162.02381,34.3400894 163.461017,34.3400894 C164.899285,34.3400894 166.06476,33.1746145 166.06476,31.7374078 C166.06476,30.3002011 164.899285,29.1347263 163.461017,29.1347263 C162.02381,29.1347263 160.858335,30.3002011 160.858335,31.7374078" id="Fill-7" fill="#FFFFFF"></path>
                <polygon id="Fill-9" fill="#F6FAFF" points="100.439609 190.951676 125.76905 190.951676 125.76905 121.790615 100.439609 121.790615"></polygon>
                <polygon id="Fill-11" fill="#F6FAFF" points="139.578547 190.951676 164.906927 190.951676 164.906927 158.364022 139.578547 158.364022"></polygon>
                <polygon id="Fill-12" fill="#F6FAFF" points="178.717486 190.951676 204.045866 190.951676 204.045866 117.509777 178.717486 117.509777"></polygon>
                <polygon id="Fill-13" fill="#F6FAFF" points="217.855363 190.951676 243.183743 190.951676 243.183743 142.971899 217.855363 142.971899"></polygon>
                <polygon id="Fill-14" fill="#F6FAFF" points="256.99324 190.951676 282.32162 190.951676 282.32162 121.790615 256.99324 121.790615"></polygon>
                <polyline id="Stroke-15" stroke="#0069F5" stroke-width="8" points="127.27695 124.747184 163.005441 98.4730503 195.766112 122.845061 256.992816 82.8972961 237.430246 74.5755084"></polyline>
                <polygon id="Fill-16" fill="#DFEBFB" points="88.1267598 215.669721 248.878436 215.669721 248.878436 206.966872 88.1267598 206.966872"></polygon>
                <polygon id="Fill-17" fill="#DFEBFB" points="88.1267598 229.387933 292.478659 229.387933 292.478659 220.685084 88.1267598 220.685084"></polygon>
                <polygon id="Fill-18" fill="#F6FAFF" points="88.1267598 328.579609 292.478659 328.579609 292.478659 235.557095 88.1267598 235.557095"></polygon>
                <polygon id="Fill-19" fill="#FFFFFF" points="88.1268659 256.390117 93.3959162 261.734531 100.440777 267.695648 106.120609 266.46224 113.104966 262.042352 113.104966 266.668162 117.409156 261.117827 119.051223 254.334084 120.898151 254.334084 123.360721 250.427939 130.041503 254.02414 134.635469 254.46995 141.451056 259.062855 148.785693 260.778162 157.454575 263.747045 161.751335 264.266095 165.75195 267.012073 171.753402 267.159615 175.457872 263.671682 177.161503 260.555257 185.163793 264.859447 194.721112 273.319223 201.314855 273.986877 207.463849 277.400508 211.094017 283.040006 216.576419 283.040006 218.947704 284.524978 225.392844 284.969726 227.170777 286.157492 235.469212 286.157492 238.358486 284.746821 239.025078 286.157492 242.28586 286.157492 243.174296 288.606263 250.508933 291.722687 251.545972 289.718665 254.435246 289.199615 255.102899 286.453637 257.992173 285.860285 268.363626 275.916598 277.402955 271.075313 284.612341 268.448218 286.414687 263.85319 289.199939 263.197212 292.478765 254.17062 292.478765 328.579503 88.1268659 328.579503"></polygon>
                <polygon id="Fill-20" fill="#DFEBFB" points="88.1268659 273.246832 97.5005531 282.702251 103.042397 280.85214 116.998374 282.702251 122.745078 275.91957 130.133849 272.013425 139.574408 280.85214 149.016028 281.468844 154.762732 286.403536 158.867369 292.775436 171.796922 292.775436 177.338765 290.30862 183.496251 302.642698 192.73195 307.577391 205.456642 306.548844 210.793626 312.716944 213.051335 312.716944 218.592117 317.649514 228.44452 317.649514 249.788207 307.782251 255.945693 317.649514 266.823458 310.865771 277.291503 292.364654 285.089994 290.10376 289.400553 280.030575 292.478765 267.696497 292.478765 328.579291 88.1268659 328.579291"></polygon>
                <polygon id="Fill-21" fill="url(#linearGradient-4)" points="8.74849162 181.364022 32.0176536 181.364022 32.0176536 5.46435754 8.74849162 5.46435754"></polygon>
                <polygon id="Fill-22" fill="url(#linearGradient-5)" points="356.313687 292.851564 379.582849 292.851564 379.582849 102.467318 356.313687 102.467318"></polygon>
                <polygon id="Fill-23" fill="#DFEBFB" points="100.44067 81.7834078 159.818324 81.7834078 159.818324 64.3575419 100.44067 64.3575419"></polygon>
                <path d="M52.1343017,286.436782 C52.1343017,300.833263 40.4636313,312.503933 26.0671508,312.503933 C11.6706704,312.503933 0,300.833263 0,286.436782 C0,272.040302 11.6706704,260.36857 26.0671508,260.36857 C40.4636313,260.36857 52.1343017,272.040302 52.1343017,286.436782" id="Fill-24" fill="#DFEBFB"></path>
                <path d="M379.582531,26.0668324 C379.582531,40.4633128 367.91186,52.1350447 353.51538,52.1350447 C339.118899,52.1350447 327.448229,40.4633128 327.448229,26.0668324 C327.448229,11.670352 339.118899,-0.000318435754 353.51538,-0.000318435754 C367.91186,-0.000318435754 379.582531,11.670352 379.582531,26.0668324" id="Fill-25" fill="#DFEBFB"></path>
                <polygon id="Fill-26" fill="#0069F5" points="355.947592 7.55775419 343.730274 23.3818883 353.317313 28.4980894 343.626251 44.5769721 363.404296 27.7773631 352.881056 20.8630615"></polygon>
                <polygon id="Fill-27" fill="#0069F5" points="44.111419 284.613419 8.02309497 284.613419 8.02309497 281.28152 33.7771173 281.28152 33.8004693 277.241631"></polygon>
                <polygon id="Fill-28" fill="#0069F5" points="8.02277654 288.260039 44.1111006 288.260039 44.1111006 291.591939 18.3570782 291.591939 18.3337263 295.631827"></polygon>
            </g>
        </g>
    </g>
</svg>