<?xml version="1.0" encoding="UTF-8"?>
<svg width="1920px" height="558px" viewBox="0 0 1920 558" version="1.1" xmlns="http://www.w3.org/2000/svg" xmlns:xlink="http://www.w3.org/1999/xlink">
    <title>金融转型</title>
    <defs>
        <rect id="path-1" x="0" y="0" width="1920" height="558"></rect>
        <linearGradient x1="100%" y1="50%" x2="0%" y2="50%" id="linearGradient-3">
            <stop stop-color="#2B75EB" offset="0%"></stop>
            <stop stop-color="#33D5BC" offset="100%"></stop>
        </linearGradient>
        <linearGradient x1="100%" y1="50%" x2="0%" y2="50%" id="linearGradient-4">
            <stop stop-color="#2B75EB" offset="0%"></stop>
            <stop stop-color="#33D5BC" offset="100%"></stop>
        </linearGradient>
        <linearGradient x1="100%" y1="50%" x2="0%" y2="50%" id="linearGradient-5">
            <stop stop-color="#2B75EB" offset="0%"></stop>
            <stop stop-color="#33D5BC" offset="100%"></stop>
        </linearGradient>
        <linearGradient x1="50%" y1="0%" x2="50%" y2="100%" id="linearGradient-6">
            <stop stop-color="#2B75EB" offset="0%"></stop>
            <stop stop-color="#33D5BC" offset="100%"></stop>
        </linearGradient>
    </defs>
    <g id="页面-1" stroke="none" stroke-width="1" fill="none" fill-rule="evenodd">
        <g id="金融行业方案" transform="translate(0.000000, -1160.000000)">
            <g id="形状结合" transform="translate(0.000000, 1160.000000)">
                <mask id="mask-2" fill="white">
                    <use xlink:href="#path-1"></use>
                </mask>
                <use id="蒙版" fill="#2B75EB" xlink:href="#path-1"></use>
                <path d="M1493,-107 C1547.67619,-107 1592,-62.6761902 1592,-8 C1592,46.6761902 1547.67619,91 1493,91 C1438.32381,91 1394,46.6761902 1394,-8 C1394,-62.6761902 1438.32381,-107 1493,-107 Z M1493,-59 C1464.83348,-59 1442,-36.1665222 1442,-8 C1442,20.1665222 1464.83348,43 1493,43 C1521.16652,43 1544,20.1665222 1544,-8 C1544,-36.1665222 1521.16652,-59 1493,-59 Z" fill-opacity="0.25" fill="url(#linearGradient-3)" mask="url(#mask-2)"></path>
                <circle id="椭圆形" fill-opacity="0.25" fill="url(#linearGradient-3)" mask="url(#mask-2)" cx="380" cy="73" r="68"></circle>
                <circle id="椭圆形备份-20" fill-opacity="0.25" fill="url(#linearGradient-3)" mask="url(#mask-2)" cx="1070.5" cy="113.5" r="31.5"></circle>
                <circle id="椭圆形备份-21" fill-opacity="0.25" fill="url(#linearGradient-3)" mask="url(#mask-2)" cx="1394.5" cy="529.5" r="31.5"></circle>
                <rect id="矩形" fill-opacity="0.3" fill="url(#linearGradient-4)" mask="url(#mask-2)" transform="translate(540.000000, 140.500000) rotate(-330.000000) translate(-540.000000, -140.500000) " x="498" y="134" width="84" height="13" rx="6.5"></rect>
                <rect id="矩形备份-114" fill-opacity="0.3" fill="url(#linearGradient-4)" mask="url(#mask-2)" transform="translate(910.000000, 532.500000) rotate(-330.000000) translate(-910.000000, -532.500000) " x="868" y="526" width="84" height="13" rx="6.5"></rect>
                <rect id="矩形备份-113" fill-opacity="0.3" fill="url(#linearGradient-4)" mask="url(#mask-2)" transform="translate(1150.000000, 497.500000) rotate(-330.000000) translate(-1150.000000, -497.500000) " x="1108" y="491" width="84" height="13" rx="6.5"></rect>
                <rect id="矩形备份-112" fill-opacity="0.3" fill="url(#linearGradient-4)" mask="url(#mask-2)" transform="translate(870.000000, 193.500000) rotate(-330.000000) translate(-870.000000, -193.500000) " x="828" y="187" width="84" height="13" rx="6.5"></rect>
                <rect id="矩形备份-106" fill-opacity="0.3" fill="url(#linearGradient-5)" mask="url(#mask-2)" transform="translate(626.712813, 26.500000) rotate(-330.000000) translate(-626.712813, -26.500000) " x="552.712813" y="20" width="148" height="13" rx="6.5"></rect>
                <rect id="矩形备份-115" fill-opacity="0.3" fill="url(#linearGradient-5)" mask="url(#mask-2)" transform="translate(245.000000, 251.500000) rotate(-330.000000) translate(-245.000000, -251.500000) " x="171" y="245" width="148" height="13" rx="6.5"></rect>
                <path d="M332.5,566 C336.089587,566 339,568.909966 339,572.500288 C339,576.090611 336.089587,579 332.5,579 C328.910413,579 326,576.090611 326,572.500288 C326,568.909966 328.910413,566 332.5,566 Z M351.5,566 C355.090163,566 358,568.909966 358,572.500288 C358,576.090611 355.090163,579 351.5,579 C347.910413,579 345,576.090611 345,572.500288 C345,568.909966 347.910413,566 351.5,566 Z M370.5,566 C374.090163,566 377,568.909966 377,572.500288 C377,576.090611 374.090163,579 370.5,579 C366.910413,579 364,576.090611 364,572.500288 C364,568.909966 366.910413,566 370.5,566 Z M389.5,566 C393.089587,566 396,568.909966 396,572.500288 C396,576.090611 393.089587,579 389.5,579 C385.909837,579 383,576.090611 383,572.500288 C383,568.909966 385.909837,566 389.5,566 Z M408.5,566 C412.090163,566 415,568.909966 415,572.500288 C415,576.090611 412.090163,579 408.5,579 C404.910413,579 402,576.090611 402,572.500288 C402,568.909966 404.910413,566 408.5,566 Z M427.5,566 C431.090163,566 434,568.909966 434,572.500288 C434,576.090611 431.090163,579 427.5,579 C423.910413,579 421,576.090611 421,572.500288 C421,568.909966 423.910413,566 427.5,566 Z M332.5,547 C336.089587,547 339,549.909389 339,553.499712 C339,557.090034 336.089587,560 332.5,560 C328.910413,560 326,557.090034 326,553.499712 C326,549.909389 328.910413,547 332.5,547 Z M351.5,547 C355.090163,547 358,549.909389 358,553.499712 C358,557.090034 355.090163,560 351.5,560 C347.910413,560 345,557.090034 345,553.499712 C345,549.909389 347.910413,547 351.5,547 Z M370.5,547 C374.090163,547 377,549.909389 377,553.499712 C377,557.090034 374.090163,560 370.5,560 C366.910413,560 364,557.090034 364,553.499712 C364,549.909389 366.910413,547 370.5,547 Z M389.5,547 C393.089587,547 396,549.909389 396,553.499712 C396,557.090034 393.089587,560 389.5,560 C385.909837,560 383,557.090034 383,553.499712 C383,549.909389 385.909837,547 389.5,547 Z M408.5,547 C412.090163,547 415,549.909389 415,553.499712 C415,557.090034 412.090163,560 408.5,560 C404.910413,560 402,557.090034 402,553.499712 C402,549.909389 404.910413,547 408.5,547 Z M427.5,547 C431.090163,547 434,549.909389 434,553.499712 C434,557.090034 431.090163,560 427.5,560 C423.910413,560 421,557.090034 421,553.499712 C421,549.909389 423.910413,547 427.5,547 Z M332.5,528 C336.089587,528 339,530.909837 339,534.5 C339,538.090163 336.089587,541 332.5,541 C328.910413,541 326,538.090163 326,534.5 C326,530.909837 328.910413,528 332.5,528 Z M351.5,528 C355.090163,528 358,530.909837 358,534.5 C358,538.090163 355.090163,541 351.5,541 C347.910413,541 345,538.090163 345,534.5 C345,530.909837 347.910413,528 351.5,528 Z M370.5,528 C374.090163,528 377,530.909837 377,534.5 C377,538.090163 374.090163,541 370.5,541 C366.910413,541 364,538.090163 364,534.5 C364,530.909837 366.910413,528 370.5,528 Z M389.5,528 C393.089587,528 396,530.909837 396,534.5 C396,538.090163 393.089587,541 389.5,541 C385.909837,541 383,538.090163 383,534.5 C383,530.909837 385.909837,528 389.5,528 Z M408.5,528 C412.090163,528 415,530.909837 415,534.5 C415,538.090163 412.090163,541 408.5,541 C404.910413,541 402,538.090163 402,534.5 C402,530.909837 404.910413,528 408.5,528 Z M427.5,528 C431.090163,528 434,530.909837 434,534.5 C434,538.090163 431.090163,541 427.5,541 C423.910413,541 421,538.090163 421,534.5 C421,530.909837 423.910413,528 427.5,528 Z M332.5,509 C336.089587,509 339,511.909966 339,515.500288 C339,519.090611 336.089587,522 332.5,522 C328.910413,522 326,519.090611 326,515.500288 C326,511.909966 328.910413,509 332.5,509 Z M408.5,509 C412.090163,509 415,511.909966 415,515.500288 C415,519.090611 412.090163,522 408.5,522 C404.910413,522 402,519.090611 402,515.500288 C402,511.909966 404.910413,509 408.5,509 Z M370.5,509 C374.090163,509 377,511.909966 377,515.500288 C377,519.090611 374.090163,522 370.5,522 C366.910413,522 364,519.090611 364,515.500288 C364,511.909966 366.910413,509 370.5,509 Z M427.5,509 C431.090163,509 434,511.909966 434,515.500288 C434,519.090611 431.090163,522 427.5,522 C423.910413,522 421,519.090611 421,515.500288 C421,511.909966 423.910413,509 427.5,509 Z M351.5,509 C355.090163,509 358,511.909966 358,515.500288 C358,519.090611 355.090163,522 351.5,522 C347.910413,522 345,519.090611 345,515.500288 C345,511.909966 347.910413,509 351.5,509 Z M389.5,509 C393.089587,509 396,511.909966 396,515.500288 C396,519.090611 393.089587,522 389.5,522 C385.909837,522 383,519.090611 383,515.500288 C383,511.909966 385.909837,509 389.5,509 Z M332.5,490 C336.089587,490 339,492.909389 339,496.499712 C339,500.090034 336.089587,503 332.5,503 C328.910413,503 326,500.090034 326,496.499712 C326,492.909389 328.910413,490 332.5,490 Z M351.5,490 C355.090163,490 358,492.909389 358,496.499712 C358,500.090034 355.090163,503 351.5,503 C347.910413,503 345,500.090034 345,496.499712 C345,492.909389 347.910413,490 351.5,490 Z M370.5,490 C374.090163,490 377,492.909389 377,496.499712 C377,500.090034 374.090163,503 370.5,503 C366.910413,503 364,500.090034 364,496.499712 C364,492.909389 366.910413,490 370.5,490 Z M389.5,490 C393.089587,490 396,492.909389 396,496.499712 C396,500.090034 393.089587,503 389.5,503 C385.909837,503 383,500.090034 383,496.499712 C383,492.909389 385.909837,490 389.5,490 Z M408.5,490 C412.090163,490 415,492.909389 415,496.499712 C415,500.090034 412.090163,503 408.5,503 C404.910413,503 402,500.090034 402,496.499712 C402,492.909389 404.910413,490 408.5,490 Z M427.5,490 C431.090163,490 434,492.909389 434,496.499712 C434,500.090034 431.090163,503 427.5,503 C423.910413,503 421,500.090034 421,496.499712 C421,492.909389 423.910413,490 427.5,490 Z M332.5,471 C336.089587,471 339,473.909837 339,477.5 C339,481.090163 336.089587,484 332.5,484 C328.910413,484 326,481.090163 326,477.5 C326,473.909837 328.910413,471 332.5,471 Z M351.5,471 C355.090163,471 358,473.909837 358,477.5 C358,481.090163 355.090163,484 351.5,484 C347.910413,484 345,481.090163 345,477.5 C345,473.909837 347.910413,471 351.5,471 Z M370.5,471 C374.090163,471 377,473.909837 377,477.5 C377,481.090163 374.090163,484 370.5,484 C366.910413,484 364,481.090163 364,477.5 C364,473.909837 366.910413,471 370.5,471 Z M389.5,471 C393.089587,471 396,473.909837 396,477.5 C396,481.090163 393.089587,484 389.5,484 C385.909837,484 383,481.090163 383,477.5 C383,473.909837 385.909837,471 389.5,471 Z M408.5,471 C412.090163,471 415,473.909837 415,477.5 C415,481.090163 412.090163,484 408.5,484 C404.910413,484 402,481.090163 402,477.5 C402,473.909837 404.910413,471 408.5,471 Z M427.5,471 C431.090163,471 434,473.909837 434,477.5 C434,481.090163 431.090163,484 427.5,484 C423.910413,484 421,481.090163 421,477.5 C421,473.909837 423.910413,471 427.5,471 Z" fill-opacity="0.25" fill="url(#linearGradient-6)" mask="url(#mask-2)"></path>
            </g>
        </g>
    </g>
</svg>