<?xml version="1.0" encoding="UTF-8"?>
<svg width="1920px" height="315px" viewBox="0 0 1920 315" version="1.1" xmlns="http://www.w3.org/2000/svg" xmlns:xlink="http://www.w3.org/1999/xlink">
    <title>金融行业方案</title>
    <defs>
        <polygon id="path-1" points="0 0 1920 0 1920 315 0 315"></polygon>
        <linearGradient x1="100%" y1="50%" x2="0%" y2="50%" id="linearGradient-3">
            <stop stop-color="#2B75EB" offset="0%"></stop>
            <stop stop-color="#33D5BC" offset="100%"></stop>
        </linearGradient>
        <linearGradient x1="50%" y1="0%" x2="50%" y2="100%" id="linearGradient-4">
            <stop stop-color="#2B75EB" offset="0%"></stop>
            <stop stop-color="#33D5BC" offset="100%"></stop>
        </linearGradient>
        <linearGradient x1="100%" y1="50%" x2="0%" y2="50%" id="linearGradient-5">
            <stop stop-color="#2B75EB" offset="0%"></stop>
            <stop stop-color="#33D5BC" offset="100%"></stop>
        </linearGradient>
    </defs>
    <g id="页面-1" stroke="none" stroke-width="1" fill="none" fill-rule="evenodd">
        <g id="金融行业方案" transform="translate(0.000000, -3671.000000)">
            <g id="椭圆形-+-形状结合-+-形状结合-蒙版" transform="translate(0.000000, 3671.000000)">
                <mask id="mask-2" fill="white">
                    <use xlink:href="#path-1"></use>
                </mask>
                <use id="蒙版" fill="#2B75EB" xlink:href="#path-1"></use>
                <circle id="椭圆形" fill-opacity="0.25" fill="url(#linearGradient-3)" mask="url(#mask-2)" cx="744" cy="133" r="68"></circle>
                <path d="M1193,-111 C1247.67619,-111 1292,-66.6761902 1292,-12 C1292,42.6761902 1247.67619,87 1193,87 C1138.32381,87 1094,42.6761902 1094,-12 C1094,-66.6761902 1138.32381,-111 1193,-111 Z M1193,-63 C1164.83348,-63 1142,-40.1665222 1142,-12 C1142,16.1665222 1164.83348,39 1193,39 C1221.16652,39 1244,16.1665222 1244,-12 C1244,-40.1665222 1221.16652,-63 1193,-63 Z" id="形状结合" fill-opacity="0.25" fill="url(#linearGradient-3)" mask="url(#mask-2)"></path>
                <path d="M332.5,318 C336.089587,318 339,320.909966 339,324.500288 C339,328.090611 336.089587,331 332.5,331 C328.910413,331 326,328.090611 326,324.500288 C326,320.909966 328.910413,318 332.5,318 Z M351.5,318 C355.090163,318 358,320.909966 358,324.500288 C358,328.090611 355.090163,331 351.5,331 C347.910413,331 345,328.090611 345,324.500288 C345,320.909966 347.910413,318 351.5,318 Z M370.5,318 C374.090163,318 377,320.909966 377,324.500288 C377,328.090611 374.090163,331 370.5,331 C366.910413,331 364,328.090611 364,324.500288 C364,320.909966 366.910413,318 370.5,318 Z M389.5,318 C393.089587,318 396,320.909966 396,324.500288 C396,328.090611 393.089587,331 389.5,331 C385.909837,331 383,328.090611 383,324.500288 C383,320.909966 385.909837,318 389.5,318 Z M408.5,318 C412.090163,318 415,320.909966 415,324.500288 C415,328.090611 412.090163,331 408.5,331 C404.910413,331 402,328.090611 402,324.500288 C402,320.909966 404.910413,318 408.5,318 Z M427.5,318 C431.090163,318 434,320.909966 434,324.500288 C434,328.090611 431.090163,331 427.5,331 C423.910413,331 421,328.090611 421,324.500288 C421,320.909966 423.910413,318 427.5,318 Z M332.5,299 C336.089587,299 339,301.909389 339,305.499712 C339,309.090034 336.089587,312 332.5,312 C328.910413,312 326,309.090034 326,305.499712 C326,301.909389 328.910413,299 332.5,299 Z M351.5,299 C355.090163,299 358,301.909389 358,305.499712 C358,309.090034 355.090163,312 351.5,312 C347.910413,312 345,309.090034 345,305.499712 C345,301.909389 347.910413,299 351.5,299 Z M370.5,299 C374.090163,299 377,301.909389 377,305.499712 C377,309.090034 374.090163,312 370.5,312 C366.910413,312 364,309.090034 364,305.499712 C364,301.909389 366.910413,299 370.5,299 Z M389.5,299 C393.089587,299 396,301.909389 396,305.499712 C396,309.090034 393.089587,312 389.5,312 C385.909837,312 383,309.090034 383,305.499712 C383,301.909389 385.909837,299 389.5,299 Z M408.5,299 C412.090163,299 415,301.909389 415,305.499712 C415,309.090034 412.090163,312 408.5,312 C404.910413,312 402,309.090034 402,305.499712 C402,301.909389 404.910413,299 408.5,299 Z M427.5,299 C431.090163,299 434,301.909389 434,305.499712 C434,309.090034 431.090163,312 427.5,312 C423.910413,312 421,309.090034 421,305.499712 C421,301.909389 423.910413,299 427.5,299 Z M332.5,280 C336.089587,280 339,282.909837 339,286.5 C339,290.090163 336.089587,293 332.5,293 C328.910413,293 326,290.090163 326,286.5 C326,282.909837 328.910413,280 332.5,280 Z M351.5,280 C355.090163,280 358,282.909837 358,286.5 C358,290.090163 355.090163,293 351.5,293 C347.910413,293 345,290.090163 345,286.5 C345,282.909837 347.910413,280 351.5,280 Z M370.5,280 C374.090163,280 377,282.909837 377,286.5 C377,290.090163 374.090163,293 370.5,293 C366.910413,293 364,290.090163 364,286.5 C364,282.909837 366.910413,280 370.5,280 Z M389.5,280 C393.089587,280 396,282.909837 396,286.5 C396,290.090163 393.089587,293 389.5,293 C385.909837,293 383,290.090163 383,286.5 C383,282.909837 385.909837,280 389.5,280 Z M408.5,280 C412.090163,280 415,282.909837 415,286.5 C415,290.090163 412.090163,293 408.5,293 C404.910413,293 402,290.090163 402,286.5 C402,282.909837 404.910413,280 408.5,280 Z M427.5,280 C431.090163,280 434,282.909837 434,286.5 C434,290.090163 431.090163,293 427.5,293 C423.910413,293 421,290.090163 421,286.5 C421,282.909837 423.910413,280 427.5,280 Z M332.5,261 C336.089587,261 339,263.909966 339,267.500288 C339,271.090611 336.089587,274 332.5,274 C328.910413,274 326,271.090611 326,267.500288 C326,263.909966 328.910413,261 332.5,261 Z M408.5,261 C412.090163,261 415,263.909966 415,267.500288 C415,271.090611 412.090163,274 408.5,274 C404.910413,274 402,271.090611 402,267.500288 C402,263.909966 404.910413,261 408.5,261 Z M370.5,261 C374.090163,261 377,263.909966 377,267.500288 C377,271.090611 374.090163,274 370.5,274 C366.910413,274 364,271.090611 364,267.500288 C364,263.909966 366.910413,261 370.5,261 Z M427.5,261 C431.090163,261 434,263.909966 434,267.500288 C434,271.090611 431.090163,274 427.5,274 C423.910413,274 421,271.090611 421,267.500288 C421,263.909966 423.910413,261 427.5,261 Z M351.5,261 C355.090163,261 358,263.909966 358,267.500288 C358,271.090611 355.090163,274 351.5,274 C347.910413,274 345,271.090611 345,267.500288 C345,263.909966 347.910413,261 351.5,261 Z M389.5,261 C393.089587,261 396,263.909966 396,267.500288 C396,271.090611 393.089587,274 389.5,274 C385.909837,274 383,271.090611 383,267.500288 C383,263.909966 385.909837,261 389.5,261 Z M332.5,242 C336.089587,242 339,244.909389 339,248.499712 C339,252.090034 336.089587,255 332.5,255 C328.910413,255 326,252.090034 326,248.499712 C326,244.909389 328.910413,242 332.5,242 Z M351.5,242 C355.090163,242 358,244.909389 358,248.499712 C358,252.090034 355.090163,255 351.5,255 C347.910413,255 345,252.090034 345,248.499712 C345,244.909389 347.910413,242 351.5,242 Z M370.5,242 C374.090163,242 377,244.909389 377,248.499712 C377,252.090034 374.090163,255 370.5,255 C366.910413,255 364,252.090034 364,248.499712 C364,244.909389 366.910413,242 370.5,242 Z M389.5,242 C393.089587,242 396,244.909389 396,248.499712 C396,252.090034 393.089587,255 389.5,255 C385.909837,255 383,252.090034 383,248.499712 C383,244.909389 385.909837,242 389.5,242 Z M408.5,242 C412.090163,242 415,244.909389 415,248.499712 C415,252.090034 412.090163,255 408.5,255 C404.910413,255 402,252.090034 402,248.499712 C402,244.909389 404.910413,242 408.5,242 Z M427.5,242 C431.090163,242 434,244.909389 434,248.499712 C434,252.090034 431.090163,255 427.5,255 C423.910413,255 421,252.090034 421,248.499712 C421,244.909389 423.910413,242 427.5,242 Z M332.5,223 C336.089587,223 339,225.909837 339,229.5 C339,233.090163 336.089587,236 332.5,236 C328.910413,236 326,233.090163 326,229.5 C326,225.909837 328.910413,223 332.5,223 Z M351.5,223 C355.090163,223 358,225.909837 358,229.5 C358,233.090163 355.090163,236 351.5,236 C347.910413,236 345,233.090163 345,229.5 C345,225.909837 347.910413,223 351.5,223 Z M370.5,223 C374.090163,223 377,225.909837 377,229.5 C377,233.090163 374.090163,236 370.5,236 C366.910413,236 364,233.090163 364,229.5 C364,225.909837 366.910413,223 370.5,223 Z M389.5,223 C393.089587,223 396,225.909837 396,229.5 C396,233.090163 393.089587,236 389.5,236 C385.909837,236 383,233.090163 383,229.5 C383,225.909837 385.909837,223 389.5,223 Z M408.5,223 C412.090163,223 415,225.909837 415,229.5 C415,233.090163 412.090163,236 408.5,236 C404.910413,236 402,233.090163 402,229.5 C402,225.909837 404.910413,223 408.5,223 Z M427.5,223 C431.090163,223 434,225.909837 434,229.5 C434,233.090163 431.090163,236 427.5,236 C423.910413,236 421,233.090163 421,229.5 C421,225.909837 423.910413,223 427.5,223 Z" id="形状结合" fill-opacity="0.25" fill="url(#linearGradient-4)" mask="url(#mask-2)"></path>
            </g>
            <path d="M396.906738,3784 L396.906738,3725.24 L370.722656,3725.24 C375.166016,3713.18667 384.211426,3703.14222 397.858887,3695.10667 C399.763184,3694.10222 402.143555,3692.76296 405,3691.08889 L405,3691.08889 L389.289551,3671 C359.138184,3690.75407 344.0625,3715.02815 344.0625,3743.82222 L344.0625,3743.82222 L344.0625,3784 L396.906738,3784 Z M307.844238,3784 L307.844238,3725.24 L281.660156,3725.24 C286.103516,3713.18667 295.148926,3703.14222 308.796387,3695.10667 C310.700684,3694.10222 313.081055,3692.76296 315.9375,3691.08889 L315.9375,3691.08889 L300.227051,3671 C270.075684,3690.75407 255,3715.02815 255,3743.82222 L255,3743.82222 L255,3784 L307.844238,3784 Z" id="“" fill-opacity="0.25" fill="url(#linearGradient-5)" fill-rule="nonzero" opacity="0.703776042"></path>
            <path d="M1656.90674,3987 L1656.90674,3928.24 L1630.72266,3928.24 C1635.16602,3916.18667 1644.21143,3906.14222 1657.85889,3898.10667 C1659.76318,3897.10222 1662.14355,3895.76296 1665,3894.08889 L1665,3894.08889 L1649.28955,3874 C1619.13818,3893.75407 1604.0625,3918.02815 1604.0625,3946.82222 L1604.0625,3946.82222 L1604.0625,3987 L1656.90674,3987 Z M1567.84424,3987 L1567.84424,3928.24 L1541.66016,3928.24 C1546.10352,3916.18667 1555.14893,3906.14222 1568.79639,3898.10667 C1570.70068,3897.10222 1573.08105,3895.76296 1575.9375,3894.08889 L1575.9375,3894.08889 L1560.22705,3874 C1530.07568,3893.75407 1515,3918.02815 1515,3946.82222 L1515,3946.82222 L1515,3987 L1567.84424,3987 Z" id="“备份" fill-opacity="0.25" fill="url(#linearGradient-5)" fill-rule="nonzero" opacity="0.703776042" transform="translate(1590.000000, 3930.500000) rotate(-180.000000) translate(-1590.000000, -3930.500000) "></path>
        </g>
    </g>
</svg>