<?xml version="1.0" encoding="UTF-8"?>
<svg width="429px" height="415px" viewBox="0 0 429 415" version="1.1" xmlns="http://www.w3.org/2000/svg" xmlns:xlink="http://www.w3.org/1999/xlink">
    <title>编组</title>
    <defs>
        <filter x="-18.5%" y="-18.2%" width="136.9%" height="136.5%" filterUnits="objectBoundingBox" id="filter-1">
            <feOffset dx="0" dy="0" in="SourceAlpha" result="shadowOffsetOuter1"></feOffset>
            <feGaussianBlur stdDeviation="15" in="shadowOffsetOuter1" result="shadowBlurOuter1"></feGaussianBlur>
            <feColorMatrix values="0 0 0 0 0   0 0 0 0 0   0 0 0 0 0  0 0 0 0.0804742133 0" type="matrix" in="shadowBlurOuter1" result="shadowMatrixOuter1"></feColorMatrix>
            <feMerge>
                <feMergeNode in="shadowMatrixOuter1"></feMergeNode>
                <feMergeNode in="SourceGraphic"></feMergeNode>
            </feMerge>
        </filter>
        <filter x="-49.6%" y="-71.6%" width="199.1%" height="243.2%" filterUnits="objectBoundingBox" id="filter-2">
            <feOffset dx="0" dy="0" in="SourceAlpha" result="shadowOffsetOuter1"></feOffset>
            <feGaussianBlur stdDeviation="15" in="shadowOffsetOuter1" result="shadowBlurOuter1"></feGaussianBlur>
            <feColorMatrix values="0 0 0 0 0   0 0 0 0 0   0 0 0 0 0  0 0 0 0.0804742133 0" type="matrix" in="shadowBlurOuter1" result="shadowMatrixOuter1"></feColorMatrix>
            <feMerge>
                <feMergeNode in="shadowMatrixOuter1"></feMergeNode>
                <feMergeNode in="SourceGraphic"></feMergeNode>
            </feMerge>
        </filter>
        <polygon id="path-3" points="0 0.3265 116.9578 0.3265 116.9578 81 0 81"></polygon>
    </defs>
    <g id="页面-1" stroke="none" stroke-width="1" fill="none" fill-rule="evenodd">
        <g id="金融行业方案" transform="translate(-1086.000000, -2737.000000)">
            <g id="编组" transform="translate(1129.000000, 2780.000000)">
                <g id="编组-3" filter="url(#filter-1)" transform="translate(28.233100, 0.000600)">
                    <path d="M257.5108,317.3688 L59.5428,317.3688 C52.8888,317.3688 47.4958,311.9748 47.4958,305.3218 L47.4958,32.1408 C47.4958,25.4878 52.8888,20.0948 59.5428,20.0948 L257.5108,20.0948 C264.1638,20.0948 269.5568,25.4878 269.5568,32.1408 L269.5568,305.3218 C269.5568,311.9748 264.1638,317.3688 257.5108,317.3688" id="Fill-1" fill="#C2DFFF"></path>
                    <path d="M243.6973,302.6051 L73.3553,302.6051 C67.2313,302.6051 62.2663,297.6401 62.2663,291.5151 L62.2663,60.8981 C62.2663,54.7731 67.2313,49.8081 73.3553,49.8081 L243.6973,49.8081 C249.8223,49.8081 254.7873,54.7731 254.7873,60.8981 L254.7873,291.5151 C254.7873,297.6401 249.8223,302.6051 243.6973,302.6051" id="Fill-3" fill="#FFFFFF"></path>
                    <path d="M139.667,90.1022 C145.726,90.1022 150.656,95.0332 150.656,101.0912 C150.656,107.1502 145.726,112.0712 139.667,112.0712 C133.608,112.0712 128.678,107.1412 128.678,101.0812 C128.688,95.0232 133.618,90.1022 139.667,90.1022" id="Fill-5" fill="#0069F5" opacity="0.4"></path>
                    <path d="M147.1724,114.028 C145.2054,116.059 142.5694,117.312 139.6674,117.312 C136.7674,117.312 134.1344,116.059 132.1684,114.03 C125.7754,117.204 121.2974,124.282 121.2974,132.493 C121.2974,134.95 121.6834,136.567 122.4264,137.314 C123.7904,138.672 127.5064,138.247 131.4394,137.811 C133.9234,137.542 136.7174,137.22 139.6724,137.22 C142.6164,137.22 145.4204,137.542 147.8944,137.811 C151.8274,138.247 155.5434,138.672 156.9074,137.314 C157.6604,136.556 158.0364,134.94 158.0364,132.493 C158.0364,124.283 153.5734,117.194 147.1724,114.028" id="Fill-7" fill="#0069F5" opacity="0.4"></path>
                    <path d="M177.3858,90.1022 C183.4448,90.1022 188.3748,95.0332 188.3748,101.0912 C188.3748,107.1502 183.4448,112.0712 177.3858,112.0712 C171.3268,112.0712 166.3968,107.1412 166.3968,101.0812 C166.4068,95.0232 171.3358,90.1022 177.3858,90.1022" id="Fill-9" fill="#0069F5" opacity="0.4"></path>
                    <path d="M184.8907,114.028 C182.9247,116.059 180.2887,117.312 177.3857,117.312 C174.4867,117.312 171.8527,116.059 169.8877,114.03 C163.4937,117.204 159.0157,124.282 159.0157,132.493 C159.0157,134.95 159.4017,136.567 160.1447,137.314 C161.5097,138.672 165.2257,138.247 169.1587,137.811 C171.6417,137.542 174.4357,137.22 177.3907,137.22 C180.3357,137.22 183.1387,137.542 185.6137,137.811 C189.5457,138.247 193.2627,138.672 194.6267,137.314 C195.3787,136.556 195.7557,134.94 195.7557,132.493 C195.7557,124.283 191.2917,117.194 184.8907,114.028" id="Fill-11" fill="#0069F5" opacity="0.4"></path>
                    <path d="M158.5264,81.9762 C166.1684,81.9762 172.3864,88.1942 172.3864,95.8352 C172.3864,103.4782 166.1684,109.6842 158.5264,109.6842 C150.8844,109.6842 144.6664,103.4662 144.6664,95.8242 C144.6784,88.1822 150.8964,81.9762 158.5264,81.9762" id="Fill-13" fill="#0069F5"></path>
                    <path d="M167.9927,112.153 C165.5127,114.715 162.1877,116.296 158.5267,116.296 C154.8697,116.296 151.5477,114.715 149.0687,112.155 C141.0047,116.159 135.3567,125.086 135.3567,135.443 C135.3567,138.542 135.8437,140.582 136.7807,141.523 C138.5017,143.236 143.1887,142.7 148.1487,142.151 C151.2817,141.811 154.8057,141.406 158.5327,141.406 C162.2467,141.406 165.7837,141.811 168.9037,142.151 C173.8647,142.7 178.5517,143.236 180.2717,141.523 C181.2217,140.568 181.6967,138.529 181.6967,135.443 C181.6967,125.088 176.0667,116.146 167.9927,112.153" id="Fill-15" fill="#0069F5"></path>
                    <path d="M214.0113,190.9577 L103.0423,190.9577 C98.9693,190.9577 95.6683,187.6557 95.6683,183.5837 C95.6683,179.5117 98.9693,176.2107 103.0423,176.2107 L214.0113,176.2107 C218.0833,176.2107 221.3853,179.5117 221.3853,183.5837 C221.3853,187.6557 218.0833,190.9577 214.0113,190.9577" id="Fill-17" fill="#DFEBFB"></path>
                    <path d="M214.0113,225.53 L103.0423,225.53 C98.9693,225.53 95.6683,222.228 95.6683,218.156 C95.6683,214.084 98.9693,210.782 103.0423,210.782 L214.0113,210.782 C218.0833,210.782 221.3853,214.084 221.3853,218.156 C221.3853,222.228 218.0833,225.53 214.0113,225.53" id="Fill-19" fill="#DFEBFB"></path>
                    <path d="M171.0445,260.1022 L103.0425,260.1022 C98.9695,260.1022 95.6685,256.8002 95.6685,252.7282 C95.6685,248.6562 98.9695,245.3542 103.0425,245.3542 L171.0445,245.3542 C175.1165,245.3542 178.4185,248.6562 178.4185,252.7282 C178.4185,256.8002 175.1165,260.1022 171.0445,260.1022" id="Fill-21" fill="#DFEBFB"></path>
                    <path d="M184.8692,39.8493 L132.1832,39.8493 C126.2212,39.8493 121.3882,35.0153 121.3882,29.0523 C121.3882,23.0903 126.2212,18.2563 132.1832,18.2563 L184.8692,18.2563 C190.8322,18.2563 195.6652,23.0903 195.6652,29.0523 C195.6652,35.0153 190.8322,39.8493 184.8692,39.8493" id="Fill-23" fill="#FFFFFF"></path>
                    <path d="M158.5264,36.5309 L158.5264,36.5309 C152.8504,36.5309 148.2484,31.9289 148.2484,26.2539 L148.2484,12.4689 C148.2484,6.7939 152.8504,2.1919 158.5264,2.1919 C164.2024,2.1919 168.8044,6.7939 168.8044,12.4689 L168.8044,26.2539 C168.8044,31.9289 164.2024,36.5309 158.5264,36.5309" id="Fill-25" fill="#FFFFFF"></path>
                    <path d="M305.1241,13.36 C305.1241,20.738 299.1421,26.719 291.7641,26.719 C284.3851,26.719 278.4041,20.738 278.4041,13.36 C278.4041,5.981 284.3851,2.84217094e-14 291.7641,2.84217094e-14 C299.1421,2.84217094e-14 305.1241,5.981 305.1241,13.36" id="Fill-35" fill="#E6EEF7"></path>
                    <path d="M313.7037,60.4264 C313.7037,64.5554 310.3557,67.9034 306.2267,67.9034 C302.0977,67.9034 298.7497,64.5554 298.7497,60.4264 C298.7497,56.2964 302.0977,52.9494 306.2267,52.9494 C310.3557,52.9494 313.7037,56.2964 313.7037,60.4264" id="Fill-36" fill="#E6EEF7"></path>
                    <path d="M17.461,204.1403 C17.461,208.9613 13.552,212.8703 8.731,212.8703 C3.909,212.8703 -3.35731443e-13,208.9613 -3.35731443e-13,204.1403 C-3.35731443e-13,199.3183 3.909,195.4103 8.731,195.4103 C13.552,195.4103 17.461,199.3183 17.461,204.1403" id="Fill-37" fill="#E6EEF7"></path>
                </g>
                <g id="编组-2" filter="url(#filter-2)" transform="translate(0.000000, 247.637000)">
                    <g id="编组">
                        <mask id="mask-4" fill="white">
                            <use xlink:href="#path-3"></use>
                        </mask>
                        <g id="Clip-28"></g>
                        <path d="M116.9578,52.2295 C110.5698,52.2295 105.3918,47.0505 105.3918,40.6635 C105.3918,34.2755 110.5698,29.0975 116.9578,29.0975 L116.9578,0.3265 L-0.0002,0.3265 L-0.0002,29.0975 C6.3878,29.0975 11.5658,34.2755 11.5658,40.6635 C11.5658,47.0505 6.3878,52.2295 -0.0002,52.2295 L-0.0002,81.0005 L116.9578,81.0005 L116.9578,52.2295 Z" id="Fill-27" fill="#FFFFFF" mask="url(#mask-4)"></path>
                    </g>
                    <polygon id="Fill-29" fill="#DFEBFB" points="28.233 22.114 32.507 22.114 32.507 8.951 28.233 8.951"></polygon>
                    <polygon id="Fill-31" fill="#DFEBFB" points="28.233 38.868 32.507 38.868 32.507 25.705 28.233 25.705"></polygon>
                    <polygon id="Fill-32" fill="#DFEBFB" points="28.233 55.621 32.507 55.621 32.507 42.458 28.233 42.458"></polygon>
                    <polygon id="Fill-33" fill="#DFEBFB" points="28.233 72.375 32.507 72.375 32.507 59.212 28.233 59.212"></polygon>
                    <path d="M64.3044,51.002 L55.1174,51.002 L55.1174,46.596 L64.3044,46.596 L64.3044,43.395 L55.1174,43.395 L55.1174,38.932 L62.2574,38.932 L53.5954,21.609 L63.2014,21.609 L66.0354,29.273 C66.9794,31.898 67.9244,34.572 68.9224,37.146 L69.1854,37.146 C70.1294,34.522 71.1274,31.846 72.1234,29.273 L74.9064,21.609 L84.3024,21.609 L75.5874,38.932 L82.7814,38.932 L82.7814,43.395 L73.5944,43.395 L73.5944,46.596 L82.7814,46.596 L82.7814,51.002 L73.5944,51.002 L73.5944,59.717 L64.3044,59.717 L64.3044,51.002 Z" id="Fill-34" fill="#DFEBFB"></path>
                </g>
            </g>
        </g>
    </g>
</svg>