<?xml version="1.0" encoding="UTF-8"?>
<svg width="180px" height="52px" viewBox="0 0 180 52" version="1.1" xmlns="http://www.w3.org/2000/svg" xmlns:xlink="http://www.w3.org/1999/xlink">
    <title>编组</title>
    <defs>
        <polygon id="path-1" points="0 0.248391608 59.5803357 0.248391608 59.5803357 50.7692308 0 50.7692308"></polygon>
    </defs>
    <g id="页面-1" stroke="none" stroke-width="1" fill="none" fill-rule="evenodd">
        <g id="金融行业方案" transform="translate(-870.000000, -3831.000000)">
            <g id="编组" transform="translate(870.000000, 3831.000000)">
                <path d="M165.874112,11.4142238 L165.874112,13.9317063 L172.587399,13.9317063 L172.587399,24.5609371 C172.587399,24.8407972 172.587399,24.8407972 172.307538,24.8407972 L168.111734,24.8407972 L168.950895,27.3582797 L170.629217,27.3582797 C171.748238,27.3582797 172.587399,27.3582797 173.146699,27.0784196 C173.70642,27.0784196 174.26572,26.798979 174.54558,26.2392587 C174.825021,25.679958 175.104881,25.4000979 175.104881,24.5609371 L175.104881,13.6518462 L179.859986,13.6518462 L179.859986,11.4142238 L165.874112,11.4142238 Z M129.790196,15.3301678 C130.629357,14.491007 131.468517,13.9317063 131.748378,13.0925455 L132.866979,13.0925455 L132.866979,15.3301678 L129.790196,15.3301678 Z M129.510336,15.3301678 L129.510336,17.8476503 L132.866979,17.8476503 L132.866979,24.0016364 C132.866979,24.5609371 132.866979,24.8407972 132.587538,25.1206573 L132.587538,25.4000979 L133.986,27.6381399 L138.741105,25.1206573 L138.741105,22.6031748 C138.741105,22.6031748 136.223622,24.0016364 135.664322,24.2814965 L135.664322,18.1275105 L139.020965,18.1275105 L139.020965,15.610028 L135.664322,15.610028 L135.664322,13.3724056 L138.461664,13.3724056 L138.461664,10.8549231 L133.426699,10.8549231 C133.70614,10.2952028 133.986,9.7359021 133.986,9.45604196 L138.741105,9.45604196 L138.741105,6.93855944 L134.825161,6.93855944 C135.105021,5.5400979 135.105021,4.14163636 135.105021,4.14163636 L135.105021,3.86177622 L132.866979,3.30247552 L132.866979,3.58191608 C132.587538,8.05758042 131.188657,11.1343636 128.671175,13.3724056 L128.391734,13.6518462 C128.111874,13.3724056 129.510336,15.3301678 129.510336,15.3301678 L129.510336,15.3301678 Z M158.601524,11.9735245 C160.559287,10.5750629 162.797329,8.05758042 165.034951,4.70093706 L165.034951,4.42107692 L163.356629,3.02261538 L163.356629,3.30247552 C161.678308,6.0993986 159.440685,8.33744056 156.923203,10.2952028 L156.643343,10.5750629 L158.601524,11.9735245 Z M166.433413,7.49786014 L178.181664,7.49786014 L178.181664,5.26023776 L166.433413,5.26023776 L166.433413,7.49786014 Z M81.6785874,17.0084895 L79.4405455,15.610028 L79.4405455,15.8898881 C79.4405455,15.8898881 78.0420839,21.4841538 75.5246014,25.1206573 L75.5246014,25.4000979 L77.7622238,27.0784196 L78.0420839,26.798979 C80.2797063,22.6031748 81.6785874,17.2883497 81.6785874,17.0084895 L81.6785874,17.0084895 Z M79.1611049,14.7708671 L81.1188671,13.3724056 L81.1188671,13.0925455 C78.8812448,10.2952028 76.6436224,9.1766014 76.3637622,9.1766014 L74.4055804,10.8549231 L74.6854406,11.1343636 C74.6854406,10.8549231 78.0420839,13.0925455 79.1611049,14.7708671 L79.1611049,14.7708671 Z M121.398587,9.7359021 L123.63621,8.33744056 L123.356769,8.05758042 C121.398587,5.26023776 119.160965,3.58191608 118.881105,3.58191608 L118.601245,3.58191608 L116.643483,4.9807972 L116.922923,5.26023776 C117.202783,5.26023776 120.000126,7.77772028 121.398587,9.7359021 L121.398587,9.7359021 Z" id="Fill-1" fill="#143568"></path>
                <path d="M159.440685,45.2603077 L159.440685,44.9804476 C159.160825,44.4211469 151.328517,33.2321958 150.769217,32.1135944 L148.251734,32.1135944 L148.251734,47.2184895 L149.930056,47.2184895 L149.930056,34.0713566 L150.209916,34.3512168 C150.489357,34.9105175 158.321664,46.0994685 159.160825,47.2184895 L161.398448,47.2184895 L161.398448,32.1135944 L159.440685,32.1135944 L159.440685,45.2603077 Z M94.8253007,39.1063217 L91.7480979,39.1063217 L91.7480979,33.5120559 L94.8253007,33.5120559 C95.6644615,33.5120559 98.4613846,33.5120559 98.4613846,36.3093986 C98.4613846,39.1063217 95.6644615,39.1063217 94.8253007,39.1063217 L94.8253007,39.1063217 Z M95.3846014,32.1135944 L90.0697762,32.1135944 L90.0697762,47.2184895 L91.7480979,47.2184895 L91.7480979,40.2253427 L95.3846014,40.2253427 C99.5804056,40.2253427 100.139706,37.428 100.139706,36.0295385 C100.139706,34.9105175 99.5804056,32.1135944 95.3846014,32.1135944 L95.3846014,32.1135944 Z M83.6363497,38.8268811 C81.958028,38.2671608 80.2797063,37.7078601 80.2797063,35.7496783 C80.2797063,34.9105175 80.8394266,33.2321958 83.6363497,33.2321958 C84.7553706,33.2321958 85.8743916,33.7919161 86.4336923,34.6310769 L87.8321538,33.2321958 C86.992993,32.1135944 85.5945315,31.5538741 83.6363497,31.5538741 C80.0002657,31.5538741 78.6013846,34.0713566 78.6013846,35.7496783 C78.6013846,39.1063217 80.8394266,39.666042 83.077049,40.5052028 C84.7553706,41.0645035 86.4336923,41.6238042 86.4336923,43.3021259 C86.4336923,45.2603077 84.4755105,46.0994685 83.077049,46.0994685 C81.6785874,46.0994685 80.5595664,45.5401678 79.7204056,44.4211469 C79.4405455,44.4211469 78.6013846,45.5401678 78.3219441,45.5401678 C79.1611049,46.6587692 81.1188671,47.4979301 83.077049,47.4979301 C86.1538322,47.4979301 88.3918741,45.5401678 88.3918741,43.0226853 C87.8321538,40.2253427 85.5945315,39.666042 83.6363497,38.8268811 L83.6363497,38.8268811 Z M125.594392,45.8196084 L122.237748,45.8196084 L122.237748,39.9454825 L125.874252,39.9454825 C128.111874,39.9454825 129.510336,41.0645035 129.510336,43.0226853 C129.230895,45.8196084 126.713413,45.8196084 125.594392,45.8196084 L125.594392,45.8196084 Z M122.517608,33.5120559 L125.874252,33.5120559 C127.832014,33.5120559 128.671175,34.9105175 128.671175,36.0295385 C128.671175,37.7078601 127.552573,38.547021 125.594392,38.547021 L122.517608,38.547021 L122.517608,33.5120559 Z M127.832014,39.1063217 C129.510336,38.547021 130.349497,37.428 130.349497,35.7496783 C130.349497,33.5120559 128.671175,32.1135944 125.874252,32.1135944 L120.559427,32.1135944 L120.559427,47.2184895 L125.874252,47.2184895 C128.951035,47.2184895 131.188657,45.5401678 131.188657,43.0226853 C131.188657,41.3443636 129.790196,39.3861818 127.832014,39.1063217 L127.832014,39.1063217 Z M167.552434,39.1063217 C167.552434,38.8268811 173.70642,33.2321958 175.104881,32.1135944 L172.867259,32.1135944 C172.307538,32.6728951 165.874112,38.547021 165.594252,38.8268811 L165.314811,39.1063217 L165.314811,32.1135944 L163.63649,32.1135944 L163.63649,47.2184895 L165.314811,47.2184895 L165.314811,39.3861818 L165.594252,39.666042 C165.874112,39.9454825 172.587399,46.9386294 173.146699,47.4979301 L175.664182,47.4979301 C174.54558,46.0994685 167.832294,39.3861818 167.552434,39.1063217 L167.552434,39.1063217 Z M135.664322,41.9036643 L139.020965,33.7919161 L142.377608,41.9036643 L135.664322,41.9036643 Z M138.461664,32.1135944 C138.461664,32.393035 132.027818,46.9386294 131.748378,47.2184895 L133.70614,47.2184895 C133.70614,46.9386294 135.384462,43.3021259 135.384462,43.3021259 L143.216769,43.3021259 C143.216769,43.3021259 144.615231,46.9386294 144.895091,47.2184895 L146.853273,47.2184895 C146.573413,46.9386294 140.419427,32.1135944 140.419427,32.1135944 L138.461664,32.1135944 Z M106.293692,45.8196084 L103.49635,45.8196084 L103.49635,33.7919161 L106.852993,33.7919161 C113.006979,33.7919161 113.286839,39.1063217 113.286839,39.9454825 C113.006979,43.8618462 109.650336,45.8196084 106.293692,45.8196084 L106.293692,45.8196084 Z M106.852993,32.1135944 L101.538587,32.1135944 L101.538587,47.2184895 L106.293692,47.2184895 C108.811175,47.2184895 111.048797,46.3793287 112.447678,44.9804476 C113.84614,43.581986 114.685301,41.6238042 114.685301,39.666042 C114.965161,38.8268811 114.685301,32.1135944 106.852993,32.1135944 L106.852993,32.1135944 Z M166.433413,10.5748531 L164.47565,9.17639161 L164.19579,9.45625175 C161.678308,13.0923357 159.160825,15.6098182 156.363483,17.2881399 L156.084042,17.568 L158.041804,19.5261818 C158.041804,19.5261818 159.999986,18.1273007 160.839147,17.568 L160.839147,27.3580699 L163.356629,27.3580699 L163.356629,15.3303776 C164.755091,13.0923357 165.874112,11.6938741 166.433413,10.5748531 L166.433413,10.5748531 Z M146.573413,19.5261818 C146.293552,18.687021 146.014112,17.568 145.734252,16.448979 L149.370755,16.448979 C148.251734,17.8478601 147.412573,18.9664615 146.573413,19.5261818 L146.573413,19.5261818 Z M141.538448,13.9314965 L147.412573,13.9314965 L147.412573,11.414014 L141.538448,11.414014 L141.538448,13.9314965 Z M141.538448,9.17639161 L147.412573,9.17639161 L147.412573,6.93876923 L141.538448,6.93876923 L141.538448,9.17639161 Z M151.049077,26.7987692 L152.727399,24.5611469 L152.447538,24.5611469 C149.930056,24.0014266 148.531594,22.8828252 147.412573,21.4839441 C148.811035,20.6447832 149.930056,19.5261818 151.049077,18.1273007 L151.049077,17.8478601 L149.370755,16.448979 L149.930056,16.448979 L149.930056,4.42128671 L139.020965,4.42128671 L139.020965,24.0014266 C139.020965,24.5611469 138.741105,24.8405874 138.741105,24.8405874 L138.461664,24.8405874 L139.580266,27.0786294 L145.174951,25.1204476 L145.174951,22.602965 C145.174951,22.602965 141.818308,23.721986 141.258587,24.0014266 L141.258587,16.1695385 L142.936909,16.1695385 C143.216769,18.4071608 144.05593,20.6447832 145.174951,22.602965 C146.853273,24.8405874 148.811035,25.9596084 151.049077,26.7987692 L151.049077,26.7987692 Z M85.0352308,18.687021 L85.0352308,17.0086993 L88.3918741,17.0086993 L88.3918741,18.9664615 L85.0352308,18.9664615 L85.0352308,18.687021 Z M85.0352308,14.4912168 L88.3918741,14.4912168 L88.3918741,12.8128951 L85.0352308,12.8128951 L85.0352308,14.4912168 Z M90.9089371,14.4912168 L94.5454406,14.4912168 L94.5454406,12.8128951 L90.9089371,12.8128951 L90.9089371,14.4912168 Z M90.9089371,18.687021 L94.5454406,18.687021 L94.5454406,17.0086993 L90.9089371,17.0086993 L90.9089371,18.687021 Z M90.9089371,26.7987692 L90.9089371,21.2045035 L94.5454406,21.2045035 L94.5454406,24.5611469 C94.5454406,24.5611469 93.9861399,24.8405874 92.3078182,24.8405874 L92.027958,24.8405874 L92.8671189,27.3580699 L94.5454406,27.3580699 C95.1047413,27.3580699 95.6644615,27.0786294 96.2237622,26.7987692 C96.7830629,26.2394685 97.0629231,25.6797483 97.0629231,25.1204476 L97.0629231,10.2954126 L90.9089371,10.2954126 L90.9089371,8.89653147 L98.7412448,8.89653147 L98.7412448,6.65890909 L96.5036224,6.65890909 L96.7830629,6.65890909 L96.7830629,6.37904895 C95.6644615,4.70072727 93.9861399,3.58212587 93.7062797,3.58212587 L93.4264196,3.58212587 L91.4686573,4.98058741 L91.7480979,5.26044755 C91.7480979,5.26044755 92.8671189,6.09960839 93.4264196,6.93876923 L90.6294965,6.93876923 L90.6294965,3.02240559 L88.112014,3.02240559 L88.112014,6.65890909 L81.1188671,6.65890909 L81.1188671,6.93876923 C79.4405455,5.26044755 77.7622238,4.42128671 77.7622238,4.42128671 L77.4827832,4.42128671 L75.8044615,5.81974825 L76.0839021,6.09960839 C76.0839021,6.09960839 78.8812448,8.05737063 80.5595664,10.0155524 L80.8394266,10.2954126 C80.8394266,10.2954126 82.2378881,9.45625175 82.2378881,9.17639161 L88.6713147,9.17639161 L88.6713147,10.5748531 L82.7971888,10.5748531 L82.7971888,27.6379301 L85.3146713,27.6379301 L85.3146713,21.4839441 L88.6713147,21.4839441 L88.6713147,27.0786294 L90.9089371,27.0786294 L90.9089371,26.7987692 Z M116.083762,19.8056224 C115.244601,18.9664615 114.405441,17.8478601 113.56628,16.1695385 L118.601245,16.1695385 C117.762084,17.568 116.922923,18.687021 116.083762,19.8056224 L116.083762,19.8056224 Z M124.19593,27.3580699 L125.874252,25.4003077 L125.594392,25.4003077 C122.517608,24.5611469 120.000126,23.4421259 117.762084,21.7638042 C119.160965,20.0854825 120.279566,18.4071608 121.398587,15.8896783 L121.398587,13.9314965 L112.447678,13.9314965 C112.447678,13.6520559 113.006979,12.533035 113.006979,12.533035 L124.755231,12.533035 L124.755231,10.0155524 L113.56628,10.0155524 C113.84614,8.89653147 114.126,6.93876923 114.405441,4.42128671 L114.405441,4.14142657 L111.887958,3.58212587 L111.887958,3.86156643 C111.608517,6.37904895 111.328657,8.61709091 111.048797,10.0155524 L107.412713,10.0155524 C107.692154,9.45625175 109.091035,5.26044755 109.091035,5.26044755 L106.852993,4.14142657 L104.33551,10.2954126 L104.33551,12.2531748 L110.209636,12.2531748 C108.811175,17.568 106.013832,21.4839441 101.538587,24.2812867 L101.258727,24.5611469 L102.937049,26.5189091 L103.216909,26.5189091 C107.132853,23.721986 109.650336,20.6447832 111.048797,17.0086993 C111.887958,18.687021 113.006979,20.0854825 114.126,21.4839441 C112.167818,23.1622657 109.650336,24.2812867 106.573552,25.1204476 L106.293692,25.4003077 L107.692154,27.3580699 L107.972014,27.3580699 C111.328657,26.7987692 113.84614,25.4003077 116.083762,23.1622657 C118.041944,24.5611469 119.160965,25.4003077 120.279566,25.9596084 C121.398587,26.5189091 122.797049,27.0786294 124.19593,27.3580699 L124.19593,27.3580699 Z" id="Fill-3" fill="#143568"></path>
                <path d="M38.8811748,19.5261818 C42.7971189,16.1695385 47.5526434,16.4493986 48.9511049,16.7288392 C48.3918042,15.0505175 45.5944615,8.89695105 37.2028531,8.89695105 C32.4477483,8.89695105 29.3705455,11.4144336 27.6922238,13.3721958 C25.7344615,15.8896783 25.1747413,18.687021 24.8953007,20.3653427 C24.3355804,27.6379301 20.4196364,30.9945734 19.8603357,31.2744336 C15.6645315,34.9105175 11.1888671,34.3512168 9.79040559,34.0713566 C10.6295664,36.0295385 13.4264895,42.1835245 21.8180979,41.9036643 C25.1747413,41.9036643 27.9720839,40.5052028 30.4895664,37.9877203 C33.2869091,35.1903776 33.8462098,30.9945734 33.8462098,29.8755524 C34.6853706,24.0018462 37.7621538,20.6452028 38.8811748,19.5261818" id="Fill-5" fill="#143568"></path>
                <g transform="translate(0.000000, 0.171189)">
                    <mask id="mask-2" fill="white">
                        <use xlink:href="#path-1"></use>
                    </mask>
                    <g id="Clip-8"></g>
                    <path d="M59.5803357,7.88639161 C59.5803357,6.48793007 58.4613147,5.64876923 58.4613147,5.64876923 L52.0278881,0.613804196 C52.0278881,0.613804196 50.6294266,-0.505216783 50.6294266,1.1731049 L50.6294266,21.312965 C50.6294266,22.7114266 50.3495664,27.1870909 46.4336224,30.5437343 C41.6780979,34.4596783 36.922993,34.1802378 34.9648112,33.9003776 C35.803972,35.8585594 39.4404755,41.7326853 47.2727832,41.7326853 C54.5453706,41.7326853 59.3004755,35.2988392 59.3004755,29.4247133 C59.5803357,29.4247133 59.5803357,18.2361818 59.5803357,7.88639161 M12.8671888,19.9145035 C17.6222937,15.9981399 22.3773986,16.278 24.3355804,16.5578601 C23.4964196,14.5996783 19.8599161,8.72555245 12.028028,8.72555245 C4.75502098,8.72555245 -8.39160839e-05,15.158979 -8.39160839e-05,21.0331049 L-8.39160839e-05,43.1311469 C-8.39160839e-05,44.530028 1.11893706,45.3691888 1.11893706,45.3691888 L7.55236364,50.4041538 C7.55236364,50.4041538 8.95082517,51.5227552 8.95082517,49.8444336 L8.95082517,29.7045734 L8.95082517,29.1452727 C8.67138462,27.7463916 9.23068531,23.2711469 12.8671888,19.9145035" id="Fill-7" fill="#143568" mask="url(#mask-2)"></path>
                </g>
            </g>
        </g>
    </g>
</svg>