<?xml version="1.0" encoding="utf-8"?>
<svg version="1.1" xmlns:xlink="http://www.w3.org/1999/xlink" width="18px" height="19px" xmlns="http://www.w3.org/2000/svg">
  <g transform="matrix(1 0 0 1 -470 -196 )">
    <path d="M 18 0  L 18 4.07142857142857  L 16.875 4.07142857142857  L 16.875 14.9285714285714  L 18 14.9285714285714  L 18 19  L 14.625 19  L 14.625 17.6428571428571  L 3.375 17.6428571428571  L 3.375 19  L 0 19  L 0 14.9285714285714  L 1.125 14.9285714285714  L 1.125 4.07142857142857  L 0 4.07142857142857  L 0 0  L 3.375 0  L 3.375 1.35714285714286  L 14.625 1.35714285714286  L 14.625 0  L 18 0  Z M 16.875 1.35714285714286  L 15.75 1.35714285714286  L 15.75 2.71428571428572  L 16.875 2.71428571428572  L 16.875 1.35714285714286  Z M 2.25 1.35714285714286  L 1.125 1.35714285714286  L 1.125 2.71428571428572  L 2.25 2.71428571428572  L 2.25 1.35714285714286  Z M 1.125 17.6428571428571  L 2.25 17.6428571428571  L 2.25 16.2857142857143  L 1.125 16.2857142857143  L 1.125 17.6428571428571  Z M 3.375 16  L 14.625 16  L 14.625 14.9285714285714  L 15.75 14.9285714285714  L 15.75 4.07142857142857  L 14.625 4.07142857142857  L 14.625 3  L 3.375 3  L 3.375 4.07142857142857  L 2.25 4.07142857142857  L 2.25 14.9285714285714  L 3.375 14.9285714285714  L 3.375 16  Z M 15.75 17.6428571428571  L 16.875 17.6428571428571  L 16.875 16.2857142857143  L 15.75 16.2857142857143  L 15.75 17.6428571428571  Z M 11.25 4.07142857142857  L 11.25 6.78571428571428  L 14.625 6.78571428571428  L 14.625 14.9285714285714  L 6.75 14.9285714285714  L 6.75 12.2142857142857  L 3.375 12.2142857142857  L 3.375 4.07142857142857  L 11.25 4.07142857142857  Z M 4.5 5.42857142857143  L 4.5 10.8571428571429  L 10.125 10.8571428571429  L 10.125 5.42857142857143  L 4.5 5.42857142857143  Z M 7.875 13.5714285714286  L 13.5 13.5714285714286  L 13.5 8.14285714285714  L 11.25 8.14285714285714  L 11.25 12.2142857142857  L 7.875 12.2142857142857  L 7.875 13.5714285714286  Z " fill-rule="nonzero" fill="#d7d7d7" stroke="none" transform="matrix(1 0 0 1 470 196 )" />
  </g>
</svg>