<?xml version="1.0" encoding="utf-8"?>
<svg version="1.1" xmlns:xlink="http://www.w3.org/1999/xlink" width="20px" height="18px" xmlns="http://www.w3.org/2000/svg">
  <g transform="matrix(1 0 0 1 -313 -195 )">
    <path d="M 15.5859375 10.27734375  C 15.7508680555556 10.12890625  15.8333333333333 9.953125  15.8333333333333 9.75  L 15.8333333333333 8.25  C 15.8333333333333 8.046875  15.7508680555556 7.87109375  15.5859375 7.72265625  C 15.4210069444444 7.57421875  15.2256944444444 7.5  15 7.5  L 11.6666666666667 7.5  L 11.6666666666667 4.5  C 11.6666666666667 4.296875  11.5842013888889 4.12109375  11.4192708333333 3.97265625  C 11.2543402777778 3.82421875  11.0590277777778 3.75  10.8333333333333 3.75  L 9.16666666666667 3.75  C 8.94097222222222 3.75  8.74565972222222 3.82421875  8.58072916666667 3.97265625  C 8.41579861111111 4.12109375  8.33333333333333 4.296875  8.33333333333333 4.5  L 8.33333333333333 7.5  L 5 7.5  C 4.77430555555556 7.5  4.57899305555556 7.57421875  4.4140625 7.72265625  C 4.24913194444444 7.87109375  4.16666666666667 8.046875  4.16666666666667 8.25  L 4.16666666666667 9.75  C 4.16666666666667 9.953125  4.24913194444444 10.12890625  4.4140625 10.27734375  C 4.57899305555556 10.42578125  4.77430555555556 10.5  5 10.5  L 8.33333333333333 10.5  L 8.33333333333333 13.5  C 8.33333333333333 13.703125  8.41579861111111 13.87890625  8.58072916666667 14.02734375  C 8.74565972222222 14.17578125  8.94097222222222 14.25  9.16666666666667 14.25  L 10.8333333333333 14.25  C 11.0590277777778 14.25  11.2543402777778 14.17578125  11.4192708333333 14.02734375  C 11.5842013888889 13.87890625  11.6666666666667 13.703125  11.6666666666667 13.5  L 11.6666666666667 10.5  L 15 10.5  C 15.2256944444444 10.5  15.4210069444444 10.42578125  15.5859375 10.27734375  Z M 18.6588541666667 4.482421875  C 19.5529513888889 5.861328125  20 7.3671875  20 9  C 20 10.6328125  19.5529513888889 12.138671875  18.6588541666667 13.517578125  C 17.7647569444444 14.896484375  16.5516493055556 15.98828125  15.01953125 16.79296875  C 13.4874131944444 17.59765625  11.8142361111111 18  10 18  C 8.18576388888889 18  6.51258680555556 17.59765625  4.98046875 16.79296875  C 3.44835069444444 15.98828125  2.23524305555556 14.896484375  1.34114583333333 13.517578125  C 0.447048611111111 12.138671875  0 10.6328125  0 9  C 0 7.3671875  0.447048611111111 5.861328125  1.34114583333333 4.482421875  C 2.23524305555556 3.103515625  3.44835069444444 2.01171875  4.98046875 1.20703125  C 6.51258680555556 0.402343749999998  8.18576388888889 0  10 0  C 11.8142361111111 0  13.4874131944444 0.402343749999998  15.01953125 1.20703125  C 16.5516493055556 2.01171875  17.7647569444444 3.103515625  18.6588541666667 4.482421875  Z " fill-rule="nonzero" fill="#d7d7d7" stroke="none" transform="matrix(1 0 0 1 313 195 )" />
  </g>
</svg>