<?xml version="1.0" encoding="utf-8"?>
<svg version="1.1" xmlns:xlink="http://www.w3.org/1999/xlink" width="22px" height="18px" xmlns="http://www.w3.org/2000/svg">
  <g transform="matrix(1 0 0 1 -882 -197 )">
    <path d="M 13.4128605769231 7.02584134615385  C 13.4965945512821 7.09435096153846  13.5384615384615 7.17548076923077  13.5384615384615 7.26923076923077  L 13.5384615384615 7.96153846153846  C 13.5384615384615 8.05528846153846  13.4965945512821 8.13641826923077  13.4128605769231 8.20492788461538  C 13.3291266025641 8.2734375  13.2299679487179 8.30769230769231  13.1153846153846 8.30769230769231  L 10.1538461538462 8.30769230769231  L 10.1538461538462 10.7307692307692  C 10.1538461538462 10.8245192307692  10.1119791666667 10.9056490384615  10.0282451923077 10.9741586538462  C 9.94451121794872 11.0426682692308  9.84535256410256 11.0769230769231  9.73076923076923 11.0769230769231  L 8.88461538461539 11.0769230769231  C 8.77003205128205 11.0769230769231  8.6708733974359 11.0426682692308  8.58713942307692 10.9741586538462  C 8.50340544871795 10.9056490384615  8.46153846153846 10.8245192307692  8.46153846153846 10.7307692307692  L 8.46153846153846 8.30769230769231  L 5.5 8.30769230769231  C 5.38541666666667 8.30769230769231  5.28625801282051 8.2734375  5.20252403846154 8.20492788461538  C 5.11879006410256 8.13641826923077  5.07692307692308 8.05528846153846  5.07692307692308 7.96153846153846  L 5.07692307692308 7.26923076923077  C 5.07692307692308 7.17548076923077  5.11879006410256 7.09435096153846  5.20252403846154 7.02584134615385  C 5.28625801282051 6.95733173076923  5.38541666666667 6.92307692307692  5.5 6.92307692307692  L 8.46153846153846 6.92307692307692  L 8.46153846153846 4.5  C 8.46153846153846 4.40625  8.50340544871795 4.32512019230769  8.58713942307692 4.25661057692308  C 8.6708733974359 4.18810096153846  8.77003205128205 4.15384615384615  8.88461538461539 4.15384615384615  L 9.73076923076923 4.15384615384615  C 9.84535256410256 4.15384615384615  9.94451121794872 4.18810096153846  10.0282451923077 4.25661057692308  C 10.1119791666667 4.32512019230769  10.1538461538462 4.40625  10.1538461538462 4.5  L 10.1538461538462 6.92307692307692  L 13.1153846153846 6.92307692307692  C 13.2299679487179 6.92307692307692  13.3291266025641 6.95733173076923  13.4128605769231 7.02584134615385  Z M 13.4921875 11.0390625  C 14.6512419871795 10.0907451923077  15.2307692307692 8.94951923076923  15.2307692307692 7.61538461538462  C 15.2307692307692 6.28125  14.6512419871795 5.14002403846154  13.4921875 4.19170673076923  C 12.3331330128205 3.24338942307692  10.9383012820513 2.76923076923077  9.30769230769231 2.76923076923077  C 7.67708333333333 2.76923076923077  6.2822516025641 3.24338942307692  5.12319711538462 4.19170673076923  C 3.96414262820513 5.14002403846154  3.38461538461539 6.28125  3.38461538461539 7.61538461538462  C 3.38461538461539 8.94951923076923  3.96414262820513 10.0907451923077  5.12319711538462 11.0390625  C 6.2822516025641 11.9873798076923  7.67708333333333 12.4615384615385  9.30769230769231 12.4615384615385  C 10.9383012820513 12.4615384615385  12.3331330128205 11.9873798076923  13.4921875 11.0390625  Z M 21.5108173076923 15.6418269230769  C 21.8369391025641 15.9086538461538  22 16.2331730769231  22 16.6153846153846  C 22 16.9975961538462  21.8347355769231 17.3239182692308  21.5042067307692 17.5943509615385  C 21.1736778846154 17.8647836538462  20.7748397435897 18  20.3076923076923 18  C 19.8317307692308 18  19.4350961538462 17.8629807692308  19.1177884615385 17.5889423076923  L 14.5829326923077 13.8894230769231  C 13.0052083333333 14.7836538461538  11.2467948717949 15.2307692307692  9.30769230769231 15.2307692307692  C 8.04727564102564 15.2307692307692  6.84194711538462 15.0306490384615  5.69170673076923 14.6304086538462  C 4.54146634615385 14.2301682692308  3.54987980769231 13.6893028846154  2.71694711538462 13.0078125  C 1.88401442307692 12.3263221153846  1.22295673076923 11.5150240384615  0.733774038461538 10.5739182692308  C 0.244591346153846 9.6328125  0 8.64663461538461  0 7.61538461538462  C 0 6.58413461538461  0.244591346153846 5.59795673076923  0.733774038461538 4.65685096153846  C 1.22295673076923 3.71574519230769  1.88401442307692 2.90444711538462  2.71694711538462 2.22295673076923  C 3.54987980769231 1.54146634615385  4.54146634615385 1.00060096153846  5.69170673076923 0.600360576923078  C 6.84194711538462 0.200120192307692  8.04727564102564 0  9.30769230769231 0  C 10.568108974359 0  11.7734375 0.200120192307692  12.9236778846154 0.600360576923078  C 14.0739182692308 1.00060096153846  15.0655048076923 1.54146634615385  15.8984375 2.22295673076923  C 16.7313701923077 2.90444711538462  17.3924278846154 3.71574519230769  17.8816105769231 4.65685096153846  C 18.3707932692308 5.59795673076923  18.6153846153846 6.58413461538461  18.6153846153846 7.61538461538462  C 18.6153846153846 9.20192307692308  18.0689102564103 10.640625  16.9759615384615 11.9314903846154  L 21.5108173076923 15.6418269230769  Z " fill-rule="nonzero" fill="#000000" stroke="none" transform="matrix(1 0 0 1 882 197 )" />
  </g>
</svg>