<?xml version="1.0" encoding="utf-8"?>
<!-- Generator: Adobe Illustrator 22.1.0, SVG Export Plug-In . SVG Version: 6.00 Build 0)  -->
<svg version="1.1" id="图层_1" xmlns="http://www.w3.org/2000/svg" xmlns:xlink="http://www.w3.org/1999/xlink" x="0px" y="0px"
	 viewBox="0 0 32 32" style="enable-background:new 0 0 32 32;" xml:space="preserve">
<style type="text/css">
	.st0{fill-rule:evenodd;clip-rule:evenodd;fill:#005BAC;}
</style>
<g>
	<path class="st0" d="M23.3,23.4c0,1.8-0.6,3.5-1.8,4.7c-1.2,1.2-2.9,1.8-4.7,1.8l0,0c-1.6,0-3.3-0.6-4.5-1.8
		c-1-1.2-1.8-2.9-1.8-4.5c1.8,0,1.8,0,1.8,0c0.6,0,1.4-0.6,1.4-1.4c0-1.2,0-1.2,0-1.2c1,0,1,0,1,0c1.2,0,2.2-1,2.2-2
		c0-9.8,0-9.8,0-9.8c0-1-1-2-2.2-2l0,0c0-4.5,0-4.5,0-4.5c0-1-0.6-1.6-1.6-1.6C6.5,1,6.5,1,6.5,1c-1,0-1.6,0.6-1.6,1.6
		c0,4.5,0,4.5,0,4.5c-1,0.2-2,1-2,2c0,9.8,0,9.8,0,9.8c0,1,1,2,2.2,2s1.2,0,1.2,0c0,1.2,0,1.2,0,1.2c0,0.8,0.6,1.4,1.4,1.4
		c1.6,0,1.6,0,1.6,0c0,2,0.8,3.9,2.2,5.1c1.4,1.4,3.3,2.2,5.1,2.2l0,0c2,0,3.9-0.8,5.3-2.2c1.4-1.4,2.2-3.3,2.2-5.3
		c0-0.6,0-0.6,0-0.6c-1,0-1,0-1,0V23.4L23.3,23.4L23.3,23.4z M10.4,2c2.7,0,2.7,0,2.7,0c0.4,0,0.6,0.2,0.6,0.6c0,4.5,0,4.5,0,4.5
		c-3.3,0-3.3,0-3.3,0V2L10.4,2L10.4,2z M5.9,2.6C5.9,2.2,6.1,2,6.5,2c2.9,0,2.9,0,2.9,0c0,5.1,0,5.1,0,5.1c-3.5,0-3.5,0-3.5,0V2.6
		L5.9,2.6L5.9,2.6z M5.1,20c-0.6,0-1-0.6-1-1c0-9.8,0-9.8,0-9.8c0-0.4,0.4-0.8,1-0.8c9.6,0,9.6,0,9.6,0c0.6,0,1,0.4,1,0.8
		c0,9.8,0,9.8,0,9.8c0,0.4-0.4,1-1,1H5.1L5.1,20L5.1,20z M7.7,22.6c-0.2,0-0.4-0.2-0.4-0.4c0-1.2,0-1.2,0-1.2c5.3,0,5.3,0,5.3,0
		c0,1.2,0,1.2,0,1.2c0,0.2-0.2,0.4-0.4,0.4H7.7L7.7,22.6L7.7,22.6z"/>
	<path class="st0" d="M28.5,11.1c-2.9,0-5.4,2.2-5.4,5.3c0,1.2,0,1.2,0,1.2c1,0,1,0,1,0c0-1.2,0-1.2,0-1.2c0-2.4,2.1-4.3,4.4-4.3
		c0.4,0,0.6-0.2,0.6-0.6C29.2,11.3,29,11.1,28.5,11.1L28.5,11.1z"/>
	<polygon class="st0" points="24.5,18.4 23.3,18.4 23.3,19.4 22.3,19.4 22.3,20.7 23.3,20.7 23.3,21.7 24.5,21.7 24.5,20.7 
		25.5,20.7 25.5,19.4 24.5,19.4 24.5,18.4 24.5,18.4 	"/>
</g>
</svg>
