<?xml version="1.0" encoding="utf-8"?>
<!-- Generator: Adobe Illustrator 22.1.0, SVG Export Plug-In . SVG Version: 6.00 Build 0)  -->
<svg version="1.1" id="图层_1" xmlns="http://www.w3.org/2000/svg" xmlns:xlink="http://www.w3.org/1999/xlink" x="0px" y="0px"
	 viewBox="0 0 32 32" style="enable-background:new 0 0 32 32;" xml:space="preserve">
<style type="text/css">
	.st0{fill-rule:evenodd;clip-rule:evenodd;fill:#005BAC;}
</style>
<g>
	<polygon class="st0" points="16.7,14.7 15.8,14.7 15.8,15.8 14.7,15.8 14.7,16.7 15.8,16.7 15.8,17.8 16.7,17.8 16.7,16.7 
		17.8,16.7 17.8,15.8 16.7,15.8 16.7,14.7 16.7,14.7 	"/>
	<path class="st0" d="M19.1,10.3c-6.2,0-6.2,0-6.2,0c-1.5,0-2.6,1.1-2.6,2.6c0,6.2,0,6.2,0,6.2c0,1.5,1.1,2.6,2.6,2.6
		c6.2,0,6.2,0,6.2,0c1.5,0,2.6-1.1,2.6-2.6c0-6.2,0-6.2,0-6.2C21.7,11.4,20.6,10.3,19.1,10.3L19.1,10.3z M20.6,19.1
		c0,0.9-0.7,1.5-1.5,1.5c-6.2,0-6.2,0-6.2,0c-0.9,0-1.8-0.7-1.8-1.5c0-6.2,0-6.2,0-6.2c0-0.9,0.9-1.5,1.8-1.5c6.2,0,6.2,0,6.2,0
		c0.9,0,1.5,0.7,1.5,1.5V19.1L20.6,19.1L20.6,19.1z"/>
	<path class="st0" d="M26.1,18.5c4.2,0,4.2,0,4.2,0c0.4,0,0.7-0.2,0.7-0.4c0-0.4-0.2-0.7-0.7-0.7c-4.2,0-4.2,0-4.2,0
		c0-2.8,0-2.8,0-2.8c4.2,0,4.2,0,4.2,0c0.4,0,0.7-0.2,0.7-0.4s-0.2-0.4-0.7-0.4c-4.2,0-4.2,0-4.2,0c0-2.6,0-2.6,0-2.6v-0.2
		c4.2,0,4.2,0,4.2,0c0.4,0,0.7-0.2,0.7-0.7c0-0.2-0.2-0.4-0.7-0.4c-4.4,0-4.4,0-4.4,0c-0.4-1.8-1.8-2.8-3.5-3.3c0-4.4,0-4.4,0-4.4
		c0-0.4-0.2-0.7-0.4-0.7c-0.4,0-0.7,0.2-0.7,0.7c0,4.2,0,4.2,0,4.2c-2.9,0-2.9,0-2.9,0c0-4.2,0-4.2,0-4.2c0-0.4-0.2-0.7-0.4-0.7
		c-0.4,0-0.7,0.2-0.7,0.7c0,4.2,0,4.2,0,4.2c-2.9,0-2.9,0-2.9,0c0-4.2,0-4.2,0-4.2c0-0.4-0.2-0.7-0.4-0.7s-0.7,0.2-0.7,0.7
		c0,4.2,0,4.2,0,4.2c-2.6,0-2.6,0-2.6,0c0-4.2,0-4.2,0-4.2c0-0.4-0.4-0.7-0.7-0.7S9.6,1.7,9.6,2.1c0,4.4,0,4.4,0,4.4
		C7.8,6.9,6.5,8,6.1,9.8c-4.6,0-4.6,0-4.6,0C1.2,9.8,1,10,1,10.2c0,0.4,0.2,0.7,0.4,0.7c4.4,0,4.4,0,4.4,0v0.2c0,2.6,0,2.6,0,2.6
		c-4.4,0-4.4,0-4.4,0c-0.2,0-0.4,0.2-0.4,0.4s0.2,0.4,0.4,0.4c4.4,0,4.4,0,4.4,0c0,2.8,0,2.8,0,2.8c-4.4,0-4.4,0-4.4,0
		c-0.2,0-0.4,0.2-0.4,0.7c0,0.2,0.2,0.4,0.4,0.4c4.4,0,4.4,0,4.4,0c0,2.6,0,2.6,0,2.6v0.2c-4.4,0-4.4,0-4.4,0C1.2,21.4,1,21.6,1,22
		c0,0.2,0.2,0.4,0.4,0.4c4.6,0,4.6,0,4.6,0c0.4,1.5,1.8,2.8,3.5,3.3c0,4.4,0,4.4,0,4.4c0,0.2,0.2,0.4,0.4,0.4s0.7-0.2,0.7-0.4
		c0-4.4,0-4.4,0-4.4c2.6,0,2.6,0,2.6,0c0,4.4,0,4.4,0,4.4c0,0.2,0.4,0.4,0.7,0.4s0.4-0.2,0.4-0.4c0-4.4,0-4.4,0-4.4
		c2.9,0,2.9,0,2.9,0c0,4.4,0,4.4,0,4.4c0,0.2,0.2,0.4,0.7,0.4c0.2,0,0.4-0.2,0.4-0.4c0-4.4,0-4.4,0-4.4c2.9,0,2.9,0,2.9,0
		c0,4.4,0,4.4,0,4.4c0,0.2,0.2,0.4,0.7,0.4c0.2,0,0.4-0.2,0.4-0.4c0-4.4,0-4.4,0-4.4c1.8-0.4,3.1-1.8,3.5-3.3c4.4,0,4.4,0,4.4,0
		c0.4,0,0.7-0.2,0.7-0.4c0-0.4-0.2-0.7-0.7-0.7c-4.2,0-4.2,0-4.2,0v-0.2V18.5L26.1,18.5L26.1,18.5z M25,21.1c0,2-1.8,3.7-3.7,3.7
		c-10.6,0-10.6,0-10.6,0c-2.2,0-3.7-1.8-3.7-3.7c0-10.1,0-10.1,0-10.1c0-2,1.5-3.7,3.7-3.7c10.6,0,10.6,0,10.6,0
		c2,0,3.7,1.8,3.7,3.7V21.1L25,21.1L25,21.1z"/>
</g>
</svg>
