<?xml version="1.0" encoding="utf-8"?>
<!-- Generator: Adobe Illustrator 22.1.0, SVG Export Plug-In . SVG Version: 6.00 Build 0)  -->
<svg version="1.1" id="图层_1" xmlns="http://www.w3.org/2000/svg" xmlns:xlink="http://www.w3.org/1999/xlink" x="0px" y="0px"
	 viewBox="0 0 664 664" style="enable-background:new 0 0 664 664;" xml:space="preserve">
<style type="text/css">
	.st0{fill:#1D50A1;}
</style>
<g>
	<path class="st0" d="M630,426.2c-4.6,0-9-2.9-10.6-7.4c-2.1-5.9,0.9-12.4,6.8-14.5c5.8-2.1,9.7-7.7,9.7-13.8
		c0-8.1-6.6-14.6-14.7-14.6c-1.6,0-3.1,0.2-4.5,0.7c-0.7,0.2-1.4,0.5-2.1,0.9c-5.6,2.8-12.4,0.6-15.2-4.9
		c-2.8-5.6-0.6-12.4,4.9-15.2c1.7-0.9,3.6-1.6,5.4-2.3c3.7-1.2,7.6-1.8,11.5-1.8c20.5,0,37.2,16.7,37.2,37.2
		c0,15.6-9.9,29.7-24.6,35C632.6,426,631.3,426.2,630,426.2"/>
	<g>
		<path class="st0" d="M479.3,415.2c-2.2,0-4.4-0.6-6.3-2l-123.5-83.9c-5.2-3.5-6.5-10.5-3-15.7c3.5-5.2,10.5-6.5,15.7-3l123.5,83.9
			c5.1,3.5,6.5,10.5,3,15.7C486.5,413.5,482.9,415.2,479.3,415.2"/>
		<path class="st0" d="M199.2,224.9c-2.2,0-4.4-0.6-6.3-2L74.4,142.4c-5.1-3.5-6.5-10.5-3-15.7c3.5-5.2,10.5-6.5,15.7-3l118.5,80.5
			c5.2,3.5,6.5,10.5,3,15.7C206.4,223.1,202.8,224.9,199.2,224.9"/>
		<path class="st0" d="M484.9,494.5c-4.2,0-8.3-2.4-10.2-6.5c-2.6-5.6-0.2-12.4,5.4-15l148.5-69.8c5.6-2.7,12.4-0.2,15,5.4
			c2.7,5.6,0.2,12.4-5.4,15l-148.5,69.8C488.1,494.1,486.5,494.5,484.9,494.5"/>
		<path class="st0" d="M522.5,419.6c-4.2,0-8.3-2.4-10.2-6.5c-2.6-5.6-0.2-12.4,5.4-15l87.9-41.4c5.6-2.7,12.4-0.2,15,5.4
			c2.7,5.6,0.2,12.4-5.4,15l-88,41.4C525.8,419.2,524.1,419.6,522.5,419.6"/>
		<path class="st0" d="M34.8,212c-2.2,0-4.4-0.6-6.3-2c-23.8-16.2-30-48.7-13.9-72.6c16.2-23.8,48.7-30.1,72.6-13.9
			c5.1,3.5,6.5,10.5,3,15.7c-3.5,5.1-10.5,6.5-15.7,3c-13.5-9.2-32-5.7-41.2,7.9c-9.2,13.5-5.7,32,7.9,41.2c5.2,3.5,6.5,10.5,3,15.7
			C42,210.3,38.4,212,34.8,212"/>
		<path class="st0" d="M515.4,177.1c-2.7,0-5.4-1-7.6-2.9c-4.6-4.2-5-11.3-0.8-15.9c0.9-1,1.8-2.1,2.6-3.3
			c4.4-6.5,6.1-14.4,4.6-22.2c-1.5-7.8-5.9-14.5-12.5-19c-8.2-5.6-18.7-6.7-27.9-2.9c-5.8,2.4-12.3-0.4-14.7-6.2
			c-2.3-5.8,0.4-12.4,6.2-14.7c16.3-6.6,34.7-4.7,49.2,5.1c11.6,7.8,19.3,19.7,22,33.4c2.6,13.7-0.3,27.6-8.1,39.2
			c-1.4,2-2.9,3.9-4.5,5.7C521.6,175.8,518.5,177.1,515.4,177.1"/>
		<path class="st0" d="M468.2,498.3c-10.2,0-20.5-3-29.3-9.1c-2.3-1.6-4.6-3.4-6.6-5.3c-4.5-4.3-4.7-11.4-0.5-16
			c4.3-4.5,11.4-4.7,16-0.4c1.2,1.1,2.4,2.1,3.7,3c9.2,6.3,21,6.8,30.9,1.5c5.5-3,12.3-0.9,15.3,4.5c3,5.5,0.9,12.3-4.6,15.3
			C485.3,496.2,476.7,498.3,468.2,498.3"/>
		<path class="st0" d="M504.6,423.6c-11.7,0-23.3-3.9-32.9-11.7c-4.9-3.9-5.6-11-1.7-15.9c3.9-4.8,11.1-5.6,15.9-1.7
			c9.5,7.7,22.5,8.8,33.2,2.8c5.5-3.1,12.3-1.1,15.4,4.3c3.1,5.4,1.1,12.3-4.3,15.4C522.2,421.4,513.4,423.6,504.6,423.6"/>
		<path class="st0" d="M509.2,578H104.1c-6.2,0-11.3-5.1-11.3-11.3c0-6.2,5.1-11.3,11.3-11.3h405.2c6.2,0,11.3,5.1,11.3,11.3
			C520.5,572.9,515.4,578,509.2,578"/>
		<path class="st0" d="M355.8,331.3c-3,0-5.9-1.2-8.1-3.5c-4.3-4.5-4.2-11.6,0.3-16l157.9-152.4c4.5-4.3,11.6-4.2,16,0.3
			c4.3,4.5,4.2,11.6-0.3,16L363.6,328.1C361.5,330.2,358.6,331.3,355.8,331.3"/>
		<path class="st0" d="M199.2,224.9c-4.4,0-8.6-2.6-10.4-7c-2.4-5.7,0.3-12.4,6-14.8L465.2,90c5.8-2.4,12.4,0.3,14.8,6.1
			c2.4,5.7-0.3,12.4-6,14.8L203.6,224C202.1,224.6,200.7,224.9,199.2,224.9"/>
		<path class="st0" d="M277.7,352.2L41.2,191.4c-5.1-3.5-12.2-2.2-15.7,3c-3.5,5.2-2.2,12.2,3,15.7L265,370.9L277.7,352.2z"/>
		<path class="st0" d="M454.9,472.5l-88.1-59.7l-12.7,18.7l88,59.7c2,1.3,4.2,1.9,6.4,1.9c3.6,0,7.2-1.7,9.3-4.9
			C461.4,483,460.1,476,454.9,472.5"/>
		<polygon class="st0" points="335.5,418.8 283.7,383.6 296.4,364.9 348.1,400.1 		"/>
		<polygon class="st0" points="289,411.4 324.1,359.6 342.8,372.3 307.7,424.1 		"/>
	</g>
</g>
</svg>
