<?xml version="1.0" encoding="utf-8"?>
<!-- Generator: Adobe Illustrator 22.1.0, SVG Export Plug-In . SVG Version: 6.00 Build 0)  -->
<svg version="1.1" id="图层_1" xmlns="http://www.w3.org/2000/svg" xmlns:xlink="http://www.w3.org/1999/xlink" x="0px" y="0px"
	 viewBox="0 0 32 32" style="enable-background:new 0 0 32 32;" xml:space="preserve">
<style type="text/css">
	.st0{fill-rule:evenodd;clip-rule:evenodd;fill:#005BAC;}
</style>
<g>
	<polygon class="st0" points="22.2,5.2 23.3,5.2 23.3,4.2 24.6,4.2 24.6,3.1 23.3,3.1 23.3,2.1 22.2,2.1 22.2,3.1 21.1,3.1 
		21.1,4.2 22.2,4.2 22.2,5.2 22.2,5.2 	"/>
	<path class="st0" d="M10.6,27.9c-6.4,0-6.4,0-6.4,0c-0.7,0-1.3-0.7-1.3-1.3c0-4.7,0-4.7,0-4.7c0-0.7,0.7-1.1,1.3-1.1
		c6.4,0,6.4,0,6.4,0c0.2,0,0.4-0.4,0.4-0.7c0-0.2-0.2-0.7-0.4-0.7c-6.4,0-6.4,0-6.4,0c-0.7,0-1.3-0.4-1.3-1.1c0-4.7,0-4.7,0-4.7
		c0-0.7,0.7-1.3,1.3-1.3c22,0,22,0,22,0c0.9,0,1.3,0.7,1.3,1.3c0,3.8,0,3.8,0,3.8c0,0.2,0.2,0.4,0.7,0.4c0.2,0,0.4-0.2,0.4-0.4
		c0-3.8,0-3.8,0-3.8c0-0.7-0.2-1.3-0.9-1.8c0.7-0.4,0.9-1.1,0.9-2c0-4.4,0-4.4,0-4.4c0-1.3-1.1-2.4-2.4-2.4c-0.4,0-0.4,0-0.4,0
		c0,1.1,0,1.1,0,1.1c0.4,0,0.4,0,0.4,0c0.9,0,1.3,0.4,1.3,1.3c0,4.4,0,4.4,0,4.4c0,0.9-0.4,1.3-1.3,1.3c-22,0-22,0-22,0
		c-0.7,0-1.3-0.4-1.3-1.3c0-4.4,0-4.4,0-4.4c0-0.9,0.7-1.3,1.3-1.3c15.8,0,15.8,0,15.8,0c0-1.1,0-1.1,0-1.1C4.1,3,4.1,3,4.1,3
		C2.8,3,1.7,4.1,1.7,5.4c0,4.4,0,4.4,0,4.4c0,0.9,0.4,1.6,0.9,2c-0.4,0.4-0.9,1.1-0.9,1.8c0,4.7,0,4.7,0,4.7c0,0.7,0.4,1.3,0.9,1.8
		c-0.4,0.4-0.9,1.1-0.9,1.8c0,4.7,0,4.7,0,4.7c0,1.3,1.1,2.4,2.4,2.4c6.4,0,6.4,0,6.4,0c0.2,0,0.4-0.2,0.4-0.7
		C11,28.1,10.8,27.9,10.6,27.9L10.6,27.9z"/>
	<path class="st0" d="M5.2,6.4c0,2.9,0,2.9,0,2.9C5.2,9.8,5.5,10,6,10c0.3,0,0.5-0.2,0.5-0.7c0-2.9,0-2.9,0-2.9
		c0-0.5-0.3-0.7-0.5-0.7C5.5,5.6,5.2,5.9,5.2,6.4L5.2,6.4z"/>
	<path class="st0" d="M5.2,14.9c0,2.7,0,2.7,0,2.7C5.2,17.8,5.5,18,6,18c0.3,0,0.5-0.2,0.5-0.4c0-2.7,0-2.7,0-2.7
		c0-0.2-0.3-0.4-0.5-0.4C5.5,14.5,5.2,14.7,5.2,14.9L5.2,14.9z"/>
	<path class="st0" d="M5.2,22.9c0,3,0,3,0,3c0,0.2,0.3,0.5,0.8,0.5c0.3,0,0.5-0.2,0.5-0.5c0-3,0-3,0-3c0-0.2-0.3-0.5-0.5-0.5
		C5.5,22.4,5.2,22.6,5.2,22.9L5.2,22.9z"/>
	<path class="st0" d="M27.7,21.1c0,0,0,0,0-0.2c0-3.1-2.4-5.5-5.2-5.5c-2,0-3.7,1.1-4.6,3.1C17.5,18.2,17,18,16.6,18
		c-1.7,0-3.1,1.3-3.1,3.1c-1.5,0.9-2.6,2.4-2.6,4.2c0,2.6,2,4.6,4.4,4.6c10.7,0,10.7,0,10.7,0c2.4,0,4.4-2,4.4-4.6
		C30.3,23.5,29.2,22,27.7,21.1L27.7,21.1z M26,28.8c-10.7,0-10.7,0-10.7,0c-1.7,0-3.3-1.5-3.3-3.5c0-1.3,0.9-2.6,2.2-3.3
		c0.2,0,0.4-0.2,0.4-0.4c0-0.2,0-0.2,0-0.2c0-1.1,0.9-2.2,2-2.2c0.4,0,0.9,0.2,1.1,0.4c0.2,0.2,0.4,0.2,0.7,0.2c0,0,0.2-0.2,0.2-0.4
		c0.7-1.8,2.2-2.9,3.9-2.9c2.4,0,4.1,2,4.1,4.4c0,0.2,0,0.4,0,0.7c0,0.2,0,0.4,0.4,0.4c1.1,0.4,2,1.8,2,3.3
		C29,27.2,27.7,28.8,26,28.8L26,28.8z"/>
</g>
</svg>
