<?xml version="1.0" encoding="utf-8"?>
<!-- Generator: Adobe Illustrator 22.1.0, SVG Export Plug-In . SVG Version: 6.00 Build 0)  -->
<svg version="1.1" id="图层_1" xmlns="http://www.w3.org/2000/svg" xmlns:xlink="http://www.w3.org/1999/xlink" x="0px" y="0px"
	 viewBox="0 0 919 76" style="enable-background:new 0 0 919 76;" xml:space="preserve">
<style type="text/css">
	.st0{fill:#1D50A3;}
	.st1{fill:#333333;}
</style>
<path class="st0" d="M67,71.3H49l-31-46v46H1V4.1h22.3l26.6,38.5V4.1h17L67,71.3L67,71.3z M111.9,39.4c-0.1-3.5-1-6-2.8-7.8
	c-1.6-1.8-4.4-2.6-7.9-2.6c-3.4,0-6.2,0.9-8.4,2.5c-2.2,1.8-3.4,4.4-3.7,7.9H111.9 M129.5,48.9H89.3c0.3,4,1.9,7.1,4.8,9.3
	c3.1,2.1,7.5,3.1,13.4,3.1c3.7,0,7.3-0.6,10.7-1.9c3.5-1.3,6.2-2.6,8.2-4h1.9v13.1c-4,1.5-7.6,2.5-11.2,3.1c-3.5,0.7-7.3,1-11.6,1
	c-11,0-19.4-2.4-25.3-6.9c-5.9-4.6-8.8-11-8.8-19.5c0-8.4,2.8-15,8.2-19.8c5.6-4.8,13.1-7.3,22.8-7.3c9,0,15.6,2.2,20.1,6.3
	c4.4,4.1,6.8,10.1,6.8,17.9V49L129.5,48.9L129.5,48.9z M189,71.3h-17.6v-5.6c-3.2,2.2-6.2,4-8.8,5.1c-2.6,1.2-5.9,1.8-9.5,1.8
	c-6,0-10.6-1.6-14-4.8c-3.2-3.2-4.8-7.9-4.8-14.3V20.6h17.6v25.1c0,2.5,0.1,4.7,0.1,6.3c0.3,1.8,0.6,3.1,1.3,4.3
	c0.6,1.2,1.6,1.9,2.8,2.5c1.2,0.4,2.9,0.7,5.1,0.7c1.5,0,3.1-0.3,4.8-0.7c1.8-0.4,3.5-1.2,5.3-2.2v-36H189V71.3z M245,55.2
	c0,5.1-2.5,9.4-7.6,12.6c-5.1,3.2-12,4.8-20.9,4.8c-4.8,0-9.3-0.4-13.2-1.3c-4-0.9-7.2-1.8-9.5-2.8V55.4h1.6c0.9,0.4,1.9,1,3.1,1.8
	c1.2,0.7,2.8,1.3,4.8,2.1c1.9,0.7,3.8,1.3,6.2,1.8s4.7,0.7,7.3,0.7c3.4,0,6-0.3,7.6-1s2.5-1.8,2.5-3.1c0-1.2-0.4-2.2-1.5-2.6
	c-1-0.6-2.8-1-5.6-1.6c-1.3-0.3-3.1-0.6-5.3-0.9c-2.2-0.3-4.3-0.7-6.2-1.2c-5-1.2-8.7-3.1-11-5.6c-2.4-2.5-3.7-5.7-3.7-9.4
	c0-4.8,2.5-9,7.5-12.2s11.8-4.8,20.4-4.8c4.1,0,7.9,0.4,11.8,1.2c3.8,0.9,6.6,1.6,8.8,2.5v12.8h-1.5c-2.5-1.6-5.6-2.9-8.8-4
	c-3.4-1-6.8-1.6-10.1-1.6c-2.9,0-5.3,0.3-7.2,1c-1.9,0.7-2.9,1.8-2.9,3.1c0,1.2,0.4,2.2,1.3,2.8c0.9,0.6,2.9,1.3,6.2,1.9
	c1.8,0.3,3.7,0.7,5.9,1c2.1,0.3,4.1,0.7,6.2,1.2c4.6,1,8.1,2.9,10.3,5.3C243.8,48.6,245,51.7,245,55.2 M286.9,58.3
	c1.2-1.3,2.1-2.8,2.6-4.7c0.6-1.9,0.9-4.4,0.9-7.6c0-2.9-0.3-5.4-0.9-7.5s-1.3-3.7-2.4-4.8c-1-1.2-2.4-2.1-3.8-2.6
	c-1.5-0.4-3.1-0.7-4.7-0.7s-3.2,0.1-4.6,0.6c-1.3,0.4-2.6,1.3-3.8,2.5c-1,1.2-1.9,2.8-2.5,4.8s-1,4.6-1,7.6c0,2.8,0.3,5.1,0.9,7.3
	c0.6,1.9,1.3,3.7,2.5,4.8c1,1.2,2.4,2.1,3.7,2.5c1.5,0.6,3.1,0.9,5,0.9c1.6,0,3.1-0.3,4.6-0.7C284.7,60.2,286,59.5,286.9,58.3
	 M308.5,45.8c0,8.4-2.6,14.8-7.9,19.7c-5.3,4.7-12.6,7.2-22.2,7.2c-9.4,0-16.9-2.4-22.2-7.2c-5.3-4.8-7.8-11.3-7.8-19.7
	s2.6-15,7.9-19.7c5.3-4.7,12.6-7.2,22-7.2c9.5,0,17,2.5,22.2,7.2C306,31,308.5,37.6,308.5,45.8 M335.5,20.6h20.6v-7.5L372.3,6h1.6
	v14.4h16.3v11.2H374v22.8c0,0-0.1,7.1,7.5,6.6c0,0,3.5,0.1,6.9-1.5h1.8v11c0,0-9.7,3.1-22.2,0.7c0,0-8.1-1.3-10.6-8.2
	c0,0-1.3-2.9-1.3-6.8V31.6H336v39.5h-17.8V31.6h-7.5v-11h7.6c0,0-1-10.9,6.2-15.9c0,0,7.8-6.6,28.1-3.1v11.5h-1.5c0,0-12-3.7-15,2.1
	C336.1,15.1,335.1,17.6,335.5,20.6"/>
<path class="st1" d="M494.7,16.8h3.7l17.8,29.9l4.8,8.8h0.3c-0.2-4.3-0.5-8.6-0.5-12.9V16.8h3.4v43.5h-3.7l-17.7-29.9l-4.9-8.7h-0.3
	c0.2,4.2,0.5,8.2,0.5,12.6v26.1h-3.4V16.8z"/>
<path class="st1" d="M533.9,44.4c0-10.3,6.7-16.8,14-16.8c7.7,0,12.3,5.5,12.3,14.8c0,0.9-0.1,1.7-0.2,2.5h-22.5
	c0.2,7.8,4.8,13.2,11.6,13.2c3.4,0,6.1-1.1,8.5-2.7l1.3,2.6c-2.6,1.6-5.5,3.1-10.1,3.1C540.5,61,533.9,54.8,533.9,44.4z M557,42.2
	c0-7.7-3.5-11.6-9.1-11.6c-5.2,0-9.8,4.3-10.5,11.6H557z"/>
<path class="st1" d="M568.7,51.2V31.4h-5v-2.6l5.1-0.3l0.4-9.2h2.9v9.2h9.1v2.9h-9.1v20c0,4,1.1,6.6,5.3,6.6c1.2,0,2.7-0.4,3.9-0.9
	l0.8,2.7c-1.8,0.7-3.9,1.2-5.3,1.2C570.7,61,568.7,57.1,568.7,51.2z"/>
<path class="st1" d="M589.3,16.8h24v3h-20.5v15.9H610v3h-17.2v18.4H614v3.1h-24.7V16.8z"/>
<path class="st1" d="M618.2,73.9L619,71c0.7,0.2,1.7,0.5,2.6,0.5c3.8,0,6.4-3.5,7.9-8.1l0.8-2.7l-13-32.3h3.8l7.4,19.4
	c1,2.7,2.2,6.1,3.3,8.9h0.3c1-2.9,2-6.2,2.9-8.9l6.5-19.4h3.5L632.6,64c-1.9,5.5-5.1,10.6-11,10.6C620.3,74.6,619.1,74.3,618.2,73.9
	z"/>
<path class="st1" d="M649.1,44.4c0-10.3,6.7-16.8,14-16.8c7.7,0,12.3,5.5,12.3,14.8c0,0.9-0.1,1.7-0.2,2.5h-22.5
	c0.2,7.8,4.8,13.2,11.6,13.2c3.4,0,6.1-1.1,8.5-2.7l1.3,2.6c-2.6,1.6-5.5,3.1-10.1,3.1C655.7,61,649.1,54.8,649.1,44.4z M672.2,42.2
	c0-7.7-3.5-11.6-9.1-11.6c-5.2,0-9.8,4.3-10.5,11.6H672.2z"/>
<path class="st1" d="M738.2,59.2c0,2.2-0.6,3.1-2.2,3.6c-1.6,0.5-4.4,0.5-9.5,0.5c-0.2-0.8-0.7-1.9-1.1-2.7c4,0.1,7.6,0.1,8.5,0
	c1-0.1,1.5-0.3,1.5-1.4V18h-41.6v45.4H691v-48h47.2V59.2z M712.1,50.3c-1.3-2.5-3-5.5-5.1-8.8c-2.5,5.7-5.6,10.6-9.5,14.6
	c-0.5-0.4-1.6-1.3-2.3-1.7c4.3-3.9,7.6-9.2,10-15.5c-2.7-3.9-5.6-8-8.3-11.4l1.9-1.4c2.4,3,5.1,6.5,7.5,9.9
	c1.4-4.2,2.5-8.6,3.4-13.4l2.7,0.3c-1.1,5.6-2.4,10.9-4.2,15.6c2.5,3.7,4.7,7.2,6,10L712.1,50.3z M729.5,52.2
	c-1.3-2.9-3.3-6.5-5.6-10.3c-2.4,5.8-5.6,10.7-9.6,14.5c-0.5-0.4-1.6-1.3-2.3-1.6c4.4-3.9,7.7-9.2,10.2-15.5
	c-2.6-4.1-5.5-8.3-8.3-11.8l2-1.3c2.4,3.1,5,6.6,7.3,10.1c1.4-4.2,2.4-8.6,3.3-13.5l2.6,0.3c-1,5.8-2.3,11-4.1,15.7
	c2.8,4.3,5.2,8.6,6.6,11.8L729.5,52.2z"/>
<path class="st1" d="M764.5,41.3c-0.1,0.7,0.1,1.8,0.2,2.5c-14.5,3.4-16.2,4-17.2,4.7c-0.2-0.6-0.6-2-0.9-2.8c1-0.2,2.5-1.7,4.2-3.8
	c1.2-1.2,4-4.7,6.9-8.9c-8.4,1.3-9.8,1.6-10.5,1.9c-0.1-0.6-0.6-2.1-0.9-2.7c0.9-0.2,1.9-1.7,3.2-3.6s5.8-9.5,8.3-16.4l2.7,1.2
	c-2.8,6.4-6.3,13-9.9,18l8.9-1c1.4-2.1,2.7-4.2,3.8-6.3l2.6,1.4c-4.1,6.7-8.7,13.4-13.4,18.6L764.5,41.3z M746.4,57
	c4.8-1.1,12.1-2.9,19.5-4.7l0.3,2.5c-6.9,1.7-14,3.6-19.2,5L746.4,57z M796.7,18.2c-2.6,5.7-6.6,10.5-11.6,14.4
	c4.1,3,8.9,5.4,14.1,7c-0.5,0.6-1.1,1.6-1.3,2.3c-5.3-1.8-10.4-4.5-14.7-7.8c-4.8,3.5-10.4,6.2-15.9,8.1c-0.3-0.7-0.9-1.8-1.5-2.4
	c5.3-1.7,10.6-4.2,15.3-7.4c-3.1-2.7-5.7-5.8-7.6-9.2c-1.9,2.6-3.9,5-6,7c-0.3-0.5-1.3-1.5-2-2c4.7-4.2,9-10.6,11.6-17.2l2.6,0.7
	c-0.8,1.9-1.6,3.8-2.6,5.6h17.3l0.6-0.2L796.7,18.2z M771.3,42.5h24v20.3h-2.7v-2.7H774v2.7h-2.7V42.5z M774,45v12.6h18.5V45H774z
	 M775.1,20.9c1.9,3.7,4.6,7.1,8,10c4.1-3.1,7.5-6.8,9.8-11.1h-17.3L775.1,20.9z"/>
<path class="st1" d="M843.9,36.7c-2,5.9-5.1,10.6-8.9,14.3c7.4,3,14.2,6.4,18.8,9.3l-2.3,2.4c-4.5-3-11.4-6.4-19-9.6
	c-6.1,4.9-13.9,7.9-23.4,10.2c-0.2-0.7-1.2-1.9-1.9-2.5c9.2-1.8,16.7-4.5,22.4-8.8c-5.4-2.2-11-4.2-16.1-5.8c2-2.6,4.4-5.9,6.7-9.5
	H806V34h15.8c2-3.4,3.8-6.7,5.1-9.8l2.8,0.6c-1.2,2.9-3,6-4.8,9.2h30.6v2.6h-11.6V36.7z M810.4,29.4h-2.8V18.6h22
	c-0.8-1.9-2-4.3-3.1-6.2l2.8-0.6c1.3,2.2,2.7,4.9,3.5,6.8h20.9v10.8h-2.8v-8.2h-40.5L810.4,29.4L810.4,29.4z M823.4,36.7
	c-1.9,3-3.8,5.8-5.5,8.1c4.7,1.5,9.5,3.2,14.2,5.1c3.8-3.4,6.7-7.8,8.7-13.2H823.4z"/>
<path class="st1" d="M891.4,12.2c-0.3,0.5-0.6,1-1,1.4c7.3,8.7,16.2,15.2,25.8,20.6c-0.7,0.5-1.6,1.5-2,2.3
	c-9.3-5.6-17.7-12-25.3-20.8c-6.3,8.2-15.7,15.9-25.2,20.5c-0.4-0.7-1.2-1.6-2-2.1c10.7-5,21.4-13.9,27.1-23.1L891.4,12.2z
	 M890.3,59.2h23.4v2.6h-49.4v-2.6h23.2V48.3h-15.9v-2.5h15.9V35.5h-16V33h35.3v2.6h-16.5v10.3H907v2.5h-16.7V59.2z"/>
</svg>
