<?xml version="1.0" encoding="utf-8"?>
<!-- Generator: Adobe Illustrator 22.1.0, SVG Export Plug-In . SVG Version: 6.00 Build 0)  -->
<svg version="1.1" id="图层_1" xmlns="http://www.w3.org/2000/svg" xmlns:xlink="http://www.w3.org/1999/xlink" x="0px" y="0px"
	 viewBox="0 0 32 32" style="enable-background:new 0 0 32 32;" xml:space="preserve">
<style type="text/css">
	.st0{fill:#1D50A1;}
</style>
<g>
	<rect x="28.2" y="19.4" class="st0" width="3.2" height="1.1"/>
	<path class="st0" d="M11.2,28.4c0,0-0.1,0-0.1,0c-6.1-1.5-10.4-7-10.4-13.3c0-7.6,6.2-13.7,13.7-13.7c6,0,11.2,3.8,13,9.5
		c0.1,0.3,0.2,0.7,0.3,1c0.1,0.3-0.1,0.6-0.4,0.6c-0.3,0.1-0.6-0.1-0.6-0.4c-0.1-0.3-0.2-0.6-0.3-0.9c-1.7-5.2-6.5-8.8-12-8.8
		c-7,0-12.6,5.7-12.6,12.6c0,5.8,3.9,10.9,9.6,12.3c0.3,0.1,0.5,0.4,0.4,0.6C11.7,28.2,11.4,28.4,11.2,28.4z"/>
	<path class="st0" d="M10.9,15.6H1.2c-0.3,0-0.5-0.2-0.5-0.5c0-0.3,0.2-0.5,0.5-0.5h9.7c0.3,0,0.5,0.2,0.5,0.5
		C11.4,15.4,11.2,15.6,10.9,15.6z"/>
	<path class="st0" d="M14.4,12.4c-0.3,0-0.5-0.2-0.5-0.5v-10c0-0.3,0.2-0.5,0.5-0.5s0.5,0.2,0.5,0.5v10
		C14.9,12.2,14.7,12.4,14.4,12.4z"/>
	<path class="st0" d="M14.4,9.3c-3.4,0-6.6-1.4-8.9-3.9c-0.2-0.2-0.2-0.6,0-0.8c0.2-0.2,0.6-0.2,0.8,0c2.1,2.3,5,3.6,8.1,3.6
		c3.1,0,5.9-1.2,8-3.5c0.2-0.2,0.5-0.2,0.8,0c0.2,0.2,0.2,0.5,0,0.8C20.9,8,17.8,9.3,14.4,9.3z"/>
	<path class="st0" d="M5.8,25.6c-0.1,0-0.3,0-0.4-0.1c-0.2-0.2-0.2-0.5,0-0.8c1.4-1.6,3.3-2.8,5.3-3.4c0.3-0.1,0.6,0.1,0.7,0.3
		c0.1,0.3-0.1,0.6-0.3,0.7c-1.9,0.6-3.5,1.7-4.9,3.1C6.1,25.5,6,25.6,5.8,25.6z"/>
	<path class="st0" d="M10.8,25.4c-0.2,0-0.3-0.1-0.4-0.2c-2.3-2.8-3.6-6.4-3.6-10.1c0-5.4,2.7-10.5,7.3-13.4
		c0.2-0.2,0.6-0.1,0.7,0.2C15,2,14.9,2.4,14.7,2.5C10.4,5.3,7.9,10,7.9,15.1c0,3.4,1.2,6.7,3.3,9.4c0.2,0.2,0.2,0.6-0.1,0.8
		C11,25.3,10.9,25.4,10.8,25.4z"/>
	<path class="st0" d="M21.2,12.5c-0.2,0-0.5-0.2-0.5-0.4c-0.1-0.3-0.1-0.6-0.2-0.9c-1-3.5-3.2-6.6-6.3-8.6C14,2.4,13.9,2,14.1,1.8
		c0.2-0.2,0.5-0.3,0.7-0.2c3.3,2.2,5.7,5.4,6.7,9.2c0.1,0.3,0.2,0.6,0.2,1c0.1,0.3-0.1,0.6-0.4,0.6C21.3,12.5,21.3,12.5,21.2,12.5z"
		/>
	<path class="st0" d="M21.3,28.8c-0.3,0-0.5-0.2-0.5-0.5v-1.6c0-0.3,0.2-0.5,0.5-0.5s0.5,0.2,0.5,0.5v1.6
		C21.9,28.5,21.6,28.8,21.3,28.8z"/>
	<path class="st0" d="M24.5,29.3h-6.4c-0.3,0-0.5-0.2-0.5-0.5c0-0.3,0.2-0.5,0.5-0.5h6.4c0.3,0,0.5,0.2,0.5,0.5
		C25.1,29,24.8,29.3,24.5,29.3z"/>
	<path class="st0" d="M29.3,22.6V25c0,0.5-0.4,0.9-0.9,0.9h-14c-0.5,0-0.9-0.4-0.9-0.9v-9.8c0-0.5,0.4-0.9,0.9-0.9h14
		c0.5,0,0.9,0.4,0.9,0.9v2.1h1.1v-2.1c0-1.1-0.9-2-2-2h-14c-1.1,0-2,0.9-2,2V25c0,1.1,0.9,2,2,2h14c1.1,0,2-0.9,2-2v-2.4H29.3z"/>
	<rect x="29.3" y="18.3" class="st0" width="1.1" height="3.2"/>
</g>
</svg>
