<?xml version="1.0" encoding="utf-8"?>
<!-- Generator: Adobe Illustrator 22.1.0, SVG Export Plug-In . SVG Version: 6.00 Build 0)  -->
<svg version="1.1" id="图层_1" xmlns="http://www.w3.org/2000/svg" xmlns:xlink="http://www.w3.org/1999/xlink" x="0px" y="0px"
	 viewBox="0 0 32 32" style="enable-background:new 0 0 32 32;" xml:space="preserve">
<style type="text/css">
	.st0{fill-rule:evenodd;clip-rule:evenodd;fill:#005BAC;}
</style>
<g>
	<path class="st0" d="M2.6,26.1c0-24.2,0-24.2,0-24.2c-1.1,0-1.1,0-1.1,0c0,24.2,0,24.2,0,24.2c0,2.2,1.7,4,3.9,4
		c23.8,0,23.8,0,23.8,0c0-1.1,0-1.1,0-1.1C5.4,29,5.4,29,5.4,29C3.9,29,2.6,27.7,2.6,26.1L2.6,26.1z"/>
	<path class="st0" d="M6.9,26.6L6.9,26.6L6.9,26.6c3,0,3,0,3,0l0,0c0.4,0,1.1-0.2,1.5-0.7s0.6-1.1,0.6-1.5l0,0v-0.2
		c0-8.2,0-8.2,0-8.2c0-0.7-0.2-1.1-0.6-1.5s-1.1-0.7-1.7-0.7l0,0l0,0c-2.8,0-2.8,0-2.8,0c-0.6,0-1.1,0.2-1.5,0.7
		C5,14.9,4.5,15.3,4.5,16h0.2H4.5c0,8.4,0,8.4,0,8.4c0,0.4,0.4,1.1,0.9,1.5C5.8,26.4,6.3,26.6,6.9,26.6L6.9,26.6z M5.6,16
		c0-0.4,0.2-0.7,0.4-0.9c0.2-0.2,0.4-0.4,0.9-0.4c2.8,0,2.8,0,2.8,0l0,0l0,0c0.4,0,0.6,0.2,0.9,0.4c0.2,0.2,0.4,0.4,0.4,0.9
		c0,8.2,0,8.2,0,8.2v0.2l0,0c0,0.2-0.2,0.4-0.4,0.9c-0.2,0.2-0.4,0.2-0.9,0.2l0,0c-2.8,0-2.8,0-2.8,0l0,0l0,0c-0.4,0-0.6,0-0.9-0.4
		c-0.2-0.2-0.4-0.4-0.4-0.7C5.6,16,5.6,16,5.6,16L5.6,16L5.6,16L5.6,16z"/>
	<path class="st0" d="M15.6,26.6L15.6,26.6L15.6,26.6c3.1,0,3.1,0,3.1,0l0,0c0.7,0,1.1-0.2,1.5-0.7c0.4-0.4,0.7-1.1,0.7-1.5l0,0
		v-0.2c0-17.9,0-17.9,0-17.9c0-0.7-0.2-1.1-0.7-1.5c-0.4-0.4-1.1-0.7-1.8-0.7l0,0l0,0c-2.9,0-2.9,0-2.9,0c-0.7,0-1.1,0.2-1.5,0.7
		s-0.7,0.9-0.7,1.5l0,0l0,0c0,18.1,0,18.1,0,18.1c0,0.4,0.2,1.1,0.7,1.5C14.5,26.4,14.9,26.6,15.6,26.6L15.6,26.6z M14.5,6.3
		c0-0.2,0-0.7,0.2-0.9c0.2-0.2,0.7-0.2,0.9-0.2c2.9,0,2.9,0,2.9,0l0,0l0,0c0.4,0,0.7,0,0.9,0.2c0.2,0.2,0.4,0.7,0.4,0.9
		c0,17.9,0,17.9,0,17.9v0.2l0,0c0,0.2-0.2,0.4-0.4,0.9c-0.2,0.2-0.4,0.2-0.9,0.2l0,0c-2.9,0-2.9,0-2.9,0l0,0l0,0
		c-0.2,0-0.7,0-0.9-0.4c-0.2-0.2-0.2-0.4-0.2-0.7C14.5,6.3,14.5,6.3,14.5,6.3L14.5,6.3L14.5,6.3L14.5,6.3z"/>
	<path class="st0" d="M28.1,24.2v0.2l0,0c0,0.2-0.2,0.4-0.4,0.9c-0.2,0.2-0.4,0.2-0.7,0.2c0,0,0,0-0.2,0c-2.9,0-2.9,0-2.9,0l0,0l0,0
		c-0.2,0-0.7,0-0.9-0.4c-0.2-0.2-0.2-0.4-0.2-0.7c0-12.6,0-12.6,0-12.6l0,0c0-0.2,0-0.2,0-0.2c0-0.2,0-0.4,0.2-0.7
		c0.2-0.2,0.7-0.4,0.9-0.4c2.9,0,2.9,0,2.9,0l0,0c0.2,0,0.2,0,0.2,0c0.2,0,0.4,0.2,0.7,0.4c0.2,0.2,0.4,0.4,0.4,0.7c0,2,0,2,0,2
		c1.1,0,1.1,0,1.1,0c0-2,0-2,0-2c0-0.4-0.2-1.1-0.7-1.5S27.5,9.4,27,9.4c0,0,0,0-0.2,0l0,0c-2.9,0-2.9,0-2.9,0
		c-0.7,0-1.1,0.2-1.5,0.7s-0.7,1.1-0.7,1.5c0,0,0,0,0,0.2l0,0c0,12.6,0,12.6,0,12.6c0,0.4,0.2,1.1,0.7,1.5s0.9,0.7,1.5,0.7l0,0l0,0
		c3.1,0,3.1,0,3.1,0l0,0c0.7,0,1.1-0.2,1.5-0.7s0.7-1.1,0.7-1.5l0,0v-0.2c0-5.1,0-5.1,0-5.1c-1.1,0-1.1,0-1.1,0V24.2L28.1,24.2
		L28.1,24.2z"/>
	<polygon class="st0" points="29.4,15.7 29.4,14.7 28.2,14.7 28.2,15.7 27,15.7 27,16.7 28.2,16.7 28.2,17.8 29.4,17.8 29.4,16.7 
		30.5,16.7 30.5,15.7 29.4,15.7 29.4,15.7 	"/>
</g>
</svg>
