<?xml version="1.0" encoding="utf-8"?>
<!-- Generator: Adobe Illustrator 22.1.0, SVG Export Plug-In . SVG Version: 6.00 Build 0)  -->
<svg version="1.1" id="图层_1" xmlns="http://www.w3.org/2000/svg" xmlns:xlink="http://www.w3.org/1999/xlink" x="0px" y="0px"
	 viewBox="0 0 32 32" style="enable-background:new 0 0 32 32;" xml:space="preserve">
<style type="text/css">
	.st0{fill-rule:evenodd;clip-rule:evenodd;fill:#005BAC;}
</style>
<g>
	<path class="st0" d="M13.7,17.7c1.4,0,1.7-0.2,1.9-0.4c0.2-0.2,0.2-0.4,0.2-0.6c0,0,0,0,0-0.2c0-0.2-0.4-0.6-0.8-0.8
		c-0.2-0.2-0.4-0.2-0.6-0.2c0.2-0.4,0.4-0.6,0.4-1c0-0.6-0.6-1.2-1.4-1.2c-0.6,0-1.2,0.6-1.2,1.2c0,0.4,0,0.6,0.2,1
		c-0.2,0-0.4,0.2-0.6,0.2c-0.4,0.2-0.6,0.6-0.8,0.8c0,0.2,0,0.4,0.2,0.4C11.4,17.4,11.9,17.7,13.7,17.7L13.7,17.7z M13.5,14.5
		c0.2,0,0.4,0.2,0.4,0.2c0,0.2-0.2,0.4-0.4,0.4c0,0-0.2-0.2-0.2-0.4L13.5,14.5L13.5,14.5z M13.1,16.4h0.2c0,0,0,0,0.2,0s0.2,0,0.4,0
		s0.4,0.2,0.6,0.2c-0.2,0.2-0.4,0.2-0.8,0.2c-0.6,0-0.8,0-1-0.2C12.9,16.6,13.1,16.4,13.1,16.4L13.1,16.4z"/>
	<path class="st0" d="M17.1,12c-0.4-0.4-0.4-0.4-0.4-0.4c-6.1,0-6.1,0-6.1,0c-0.8,0-1.4,0.6-1.4,1.4c0,12.7,0,12.7,0,12.7
		c0,0.8,0.6,1.4,1.4,1.4c9.6,0,9.6,0,9.6,0c0.8,0,1.4-0.6,1.4-1.4c0-9,0-9,0-9l0,0c0-0.2,0-0.2,0-0.2c-0.2-0.2-0.2-0.2-0.2-0.2
		L17.1,12L17.1,12L17.1,12z M17.3,13.5c2.5,2.7,2.5,2.7,2.5,2.7c-2.4,0-2.4,0-2.4,0c-0.2,0-0.2-0.2-0.2-0.4V13.5L17.3,13.5
		L17.3,13.5z M20.4,25.6c0,0.2,0,0.2-0.2,0.2c-9.6,0-9.6,0-9.6,0c-0.2,0-0.4,0-0.4-0.2c0-12.7,0-12.7,0-12.7c0-0.2,0.2-0.4,0.4-0.4
		c5.5,0,5.5,0,5.5,0c0,3.3,0,3.3,0,3.3c0,0.8,0.6,1.4,1.4,1.4c2.9,0,2.9,0,2.9,0V25.6L20.4,25.6L20.4,25.6z"/>
	<path class="st0" d="M11.2,19.5c0,0.4,0.2,0.6,0.6,0.6c7.4,0,7.4,0,7.4,0c0.4,0,0.6-0.2,0.6-0.6c0-0.2-0.2-0.6-0.6-0.6
		c-7.4,0-7.4,0-7.4,0C11.4,18.9,11.2,19.3,11.2,19.5L11.2,19.5z"/>
	<path class="st0" d="M19.1,21.2c-7.4,0-7.4,0-7.4,0c-0.4,0-0.6,0.2-0.6,0.6c0,0.2,0.2,0.6,0.6,0.6c7.4,0,7.4,0,7.4,0
		c0.4,0,0.6-0.4,0.6-0.6C19.7,21.4,19.5,21.2,19.1,21.2L19.1,21.2z"/>
	<path class="st0" d="M19.1,23.5c-7.4,0-7.4,0-7.4,0c-0.4,0-0.6,0.2-0.6,0.5c0,0.2,0.2,0.3,0.6,0.3c7.4,0,7.4,0,7.4,0
		c0.4,0,0.6-0.2,0.6-0.3C19.7,23.7,19.5,23.5,19.1,23.5L19.1,23.5z"/>
	<polygon class="st0" points="30.3,16.8 30.3,15.8 29.1,15.8 29.1,16.8 28.2,16.8 28.2,17.9 29.1,17.9 29.1,18.9 30.3,18.9 
		30.3,17.9 31.2,17.9 31.2,16.8 30.3,16.8 30.3,16.8 	"/>
	<path class="st0" d="M23.5,11.2c2.5,0,4.4,1.5,5.4,3.5c1.2,0,1.2,0,1.2,0c-1-2.5-3.3-4.4-6.2-4.6c-0.4-2.1-2.3-3.7-4.6-3.7
		c-1,0-1.7,0.4-2.5,0.8C15.4,5.8,13.5,5,11.4,5C7.3,5,4,8.3,4,12.3c0,0.8,0,1.5,0.2,2.1c-1.9,0.8-3.5,2.5-3.5,4.8c0,2.7,2.3,5,5,5
		c2.3,0,2.3,0,2.3,0c0.4,0,0.6-0.2,0.6-0.6c0-0.2-0.2-0.6-0.6-0.6l0,0c-2.3,0-2.3,0-2.3,0c-2.1,0-3.9-1.7-3.9-3.9
		c0-1.9,1.4-3.5,3.1-3.9c0.2,0,0.4-0.2,0.4-0.4c0.2,0,0.2-0.2,0-0.4C5.2,13.9,5,13.1,5,12.3C5,8.9,7.9,6,11.4,6
		c1.9,0,3.7,0.8,4.8,2.3c0.2,0.2,0.6,0.2,0.8,0c0.8-0.6,1.5-0.8,2.3-0.8c1.9,0,3.5,1.4,3.9,3.1C23.1,11,23.3,11,23.5,11.2L23.5,11.2
		z"/>
	<path class="st0" d="M23.9,23.1c-1.2,0-1.2,0-1.2,0c-0.2,0-0.4,0.2-0.4,0.6c0,0.2,0.2,0.6,0.4,0.6l0,0c1.2,0,1.2,0,1.2,0l0,0
		c2.7-0.4,4.8-1.9,5.8-4.2c-1.2,0-1.2,0-1.2,0C27.6,21.8,25.8,22.9,23.9,23.1L23.9,23.1z"/>
</g>
</svg>
