<?xml version="1.0" encoding="utf-8"?>
<!-- Generator: Adobe Illustrator 22.1.0, SVG Export Plug-In . SVG Version: 6.00 Build 0)  -->
<svg version="1.1" id="图层_1" xmlns="http://www.w3.org/2000/svg" xmlns:xlink="http://www.w3.org/1999/xlink" x="0px" y="0px"
	 viewBox="0 0 32 32" style="enable-background:new 0 0 32 32;" xml:space="preserve">
<style type="text/css">
	.st0{fill-rule:evenodd;clip-rule:evenodd;fill:#005BAC;}
</style>
<g>
	<path class="st0" d="M28.1,3L28.1,3C11.8,3,11.8,3,11.8,3c0,1.3,0,1.3,0,1.3c16.1,0,16.1,0,16.1,0c1.5,0,2.6,1.1,2.6,2.4
		c0,1.6,0,1.6,0,1.6c-28.9,0-28.9,0-28.9,0c0-1.6,0-1.6,0-1.6c0-1.3,1.1-2.4,2.4-2.4c2,0,2,0,2,0c0-1.3,0-1.3,0-1.3c-2,0-2,0-2,0
		c-2,0-3.7,1.8-3.7,3.8c0,13.8,0,13.8,0,13.8l0,0c0,2,1.8,3.8,3.7,3.8c13.2,0,13.2,0,13.2,0c0,0.7,0.2,1.3,0.2,1.8
		c0.7,2.2,4,3.6,4.4,3.8c0.2,0,0.2,0,0.2,0c0.2,0,0.2,0,0.2,0c0.9-0.2,3.7-1.6,4.4-3.8c0.2-0.4,0.2-1.1,0.4-1.8c0.9,0,0.9,0,0.9,0
		l0,0c2,0,3.5-1.8,3.5-3.8c0-13.8,0-13.8,0-13.8C31.6,4.8,30.1,3.2,28.1,3L28.1,3z M25.7,25.7c-0.4,1.8-2.9,2.9-3.5,3.1
		c-0.7-0.2-3.1-1.6-3.5-3.1c-0.2-0.9-0.7-4-0.7-5.1c0-0.2,0-0.2,0.2-0.2c0.2-0.2,0.4-0.2,0.9-0.4c0.2,0,0.7,0,1.1-0.2
		c0.4-0.2,0.9-0.4,1.3-0.7c0.2,0,0.7-0.2,0.7-0.2c0.2,0,0.7,0.2,0.9,0.2c0.4,0.2,0.7,0.4,1.1,0.7c0.4,0.2,0.9,0.2,1.3,0.4
		c0.2,0,0.7,0,0.9,0.2c0,0,0,0,0,0.2C26.4,21.7,25.9,24.8,25.7,25.7L25.7,25.7z M30.5,20.6c0,1.6-1.1,2.7-2.6,2.7
		c-0.7,0-0.7,0-0.7,0c0.2-1.1,0.2-2.2,0.2-2.7c0.2-0.7-0.2-1.1-0.7-1.3C26.6,19,26.1,19,25.7,19c-0.4-0.2-0.7-0.2-1.1-0.4
		c-0.2,0-0.7-0.2-1.1-0.4c-0.4-0.2-0.9-0.4-1.3-0.4c-0.2,0-0.7,0-1.3,0.4c-0.2,0.2-0.7,0.2-1.1,0.4c-0.2,0.2-0.7,0.2-1.1,0.4
		c-0.2,0-0.7,0-1.1,0.2c-0.4,0.2-0.7,0.7-0.7,1.3c0,0.4,0.2,1.6,0.2,2.7c-13,0-13,0-13,0c-1.3,0-2.4-1.1-2.4-2.7c0-7.6,0-7.6,0-7.6
		c28.9,0,28.9,0,28.9,0V20.6L30.5,20.6L30.5,20.6z M30.5,11.9c-28.9,0-28.9,0-28.9,0c0-2.4,0-2.4,0-2.4c28.9,0,28.9,0,28.9,0V11.9
		L30.5,11.9L30.5,11.9z"/>
	<polygon class="st0" points="8.3,5.6 9.4,5.6 9.4,4.3 10.5,4.3 10.5,3.2 9.4,3.2 9.4,2.1 8.3,2.1 8.3,3.2 7,3.2 7,4.3 8.3,4.3 
		8.3,5.6 8.3,5.6 	"/>
	<path class="st0" d="M5.2,16.7c9.1,0,9.1,0,9.1,0c0.4,0,0.6-0.2,0.6-0.4c0-0.4-0.2-0.5-0.6-0.5c-9.1,0-9.1,0-9.1,0
		c-0.2,0-0.4,0.2-0.4,0.5C4.8,16.5,5,16.7,5.2,16.7L5.2,16.7z"/>
	<path class="st0" d="M5.2,19.7c6,0,6,0,6,0c0.2,0,0.6-0.2,0.6-0.4c0-0.4-0.4-0.5-0.6-0.5c-6,0-6,0-6,0c-0.2,0-0.4,0.2-0.4,0.5
		C4.8,19.6,5,19.7,5.2,19.7L5.2,19.7z"/>
</g>
</svg>
