<?xml version="1.0" encoding="utf-8"?>
<!-- Generator: Adobe Illustrator 22.1.0, SVG Export Plug-In . SVG Version: 6.00 Build 0)  -->
<svg version="1.1" id="图层_1" xmlns="http://www.w3.org/2000/svg" xmlns:xlink="http://www.w3.org/1999/xlink" x="0px" y="0px"
	 viewBox="0 0 200 200" style="enable-background:new 0 0 200 200;" xml:space="preserve">
<style type="text/css">
	.st0{fill:#1D50A1;}
</style>
<path class="st0" d="M199,100c0-54.6-44.4-99-98.9-99h0l0,0h0C45.4,1,1,45.4,1,100c0,54.6,44.4,99,99,99h0l0,0h0
	C154.6,199,199,154.6,199,100z M191.8,96.4h-24.3v7.1h24.3c-1,25.1-12.1,47.7-29.3,63.7c-5.8-5.9-12.3-10.8-19.4-14.8
	c5.6-11.1,9.4-23,11.2-35.5h-7.2c-1.8,11.3-5.3,22.2-10.4,32.3c-10.3-4.8-21.6-7.5-33.1-8v-37.7h29.9v-7.1h-29.9V58.1
	c11.5-0.4,22.6-3.1,32.7-7.7c5.2,10.2,8.9,21.2,10.7,32.7h7.2c-1.9-12.6-5.8-24.7-11.5-35.9c7-3.9,13.5-8.9,19.4-14.8
	C179.6,48.5,190.8,71.2,191.8,96.4z M103.6,12.2c12,8.7,21.8,19.6,29.2,31.9c-9.1,4.1-19,6.3-29.2,6.8V12.2z M110.9,8.8
	c17.1,2,32.8,8.8,45.7,18.9c-5.3,5.2-11,9.7-17.3,13.2C132,28.7,122.4,17.8,110.9,8.8z M96.5,13v37.9c-9.8-0.5-19.4-2.6-28.4-6.5
	C75.3,32.3,84.9,21.6,96.5,13z M61.7,41.2C55.1,37.6,49,33,43.5,27.6c13.2-10.4,29.4-17.2,47-19C78.8,17.7,69.1,28.8,61.7,41.2z
	 M96.5,58.1v38.3H52.9c0.5-16.2,4.7-31.7,11.8-45.7C74.6,55.1,85.4,57.7,96.5,58.1z M96.5,103.6v37.7c-11.2,0.5-22.1,3.1-32.2,7.6
	c-7-13.9-10.9-29.3-11.4-45.3H96.5z M103.6,148.5c10.3,0.5,20.4,2.8,29.6,7c-7.4,12.6-17.4,23.7-29.6,32.6V148.5z M96.5,148.5v38.8
	c-11.8-8.8-21.5-19.8-28.8-32.2C76.7,151.2,86.5,148.9,96.5,148.5z M90,191.3c-17.6-1.9-33.6-8.8-46.8-19.2
	c5.4-5.4,11.5-10.1,18.1-13.7C68.6,170.9,78.3,182.1,90,191.3z M139.6,158.7c6.3,3.6,12.1,8.1,17.3,13.3
	c-12.9,10.2-28.5,17-45.5,19.1C122.9,182.1,132.4,171.1,139.6,158.7z M38,32.3c6,6.1,12.9,11.2,20.3,15.2c-7.6,15-12,31.6-12.5,48.9
	H8.2C9.2,71.1,20.5,48.4,38,32.3z M8.2,103.6h37.5c0.5,17.1,4.7,33.6,12.2,48.5c-7.4,4.1-14.2,9.2-20.2,15.3
	C20.3,151.4,9.2,128.8,8.2,103.6z M160.4,103.6h-19.7v-7.1h19.7V103.6z M147,90.2h7.1v19.7H147V90.2z"/>
</svg>
