<?xml version="1.0" encoding="utf-8"?>
<!-- Generator: Adobe Illustrator 22.1.0, SVG Export Plug-In . SVG Version: 6.00 Build 0)  -->
<svg version="1.1" id="图层_1" xmlns="http://www.w3.org/2000/svg" xmlns:xlink="http://www.w3.org/1999/xlink" x="0px" y="0px"
	 viewBox="0 0 32 32" style="enable-background:new 0 0 32 32;" xml:space="preserve">
<style type="text/css">
	.st0{fill-rule:evenodd;clip-rule:evenodd;fill:#005BAC;}
</style>
<g>
	<path class="st0" d="M11.7,23.3L11.7,23.3c-1.8,0-1.8,0-1.8,0c-3.1,0-3.1,0-3.1,0c0-15.2,0-15.2,0-15.2c-1.1,0-1.1,0-1.1,0
		c0,15.2,0,15.2,0,15.2c-3.1,0-3.1,0-3.1,0c-0.7,0-1.1-0.4-1.1-1.1c0-15.4,0-15.4,0-15.4c0-0.4,0.4-1.1,1.1-1.1s0.7,0,0.7,0
		c0-1.1,0-1.1,0-1.1c-0.7,0-0.7,0-0.7,0c-1.1,0-2.2,1.1-2.2,2.2c0,15.4,0,15.4,0,15.4c0,1.3,1.1,2.2,2.2,2.2c7.3,0,7.3,0,7.3,0
		c1.8,0,1.8,0,1.8,0l0,0c0.4,0,0.7-0.2,0.7-0.4S12.1,23.3,11.7,23.3L11.7,23.3z"/>
	<path class="st0" d="M9.9,12.5c-0.4,0-0.6,0.2-0.6,0.5c0,0.2,0.2,0.4,0.6,0.4c6.6,0,6.6,0,6.6,0c0.2,0,0.6-0.2,0.6-0.4
		c0-0.4-0.4-0.5-0.6-0.5H9.9L9.9,12.5L9.9,12.5z"/>
	<path class="st0" d="M11.7,15.6c-1.8,0-1.8,0-1.8,0c-0.4,0-0.7,0.4-0.7,0.7c0,0.2,0.2,0.7,0.7,0.7c1.8,0,1.8,0,1.8,0
		c0.4,0,0.7-0.4,0.7-0.7C12.4,16,12.1,15.6,11.7,15.6L11.7,15.6z"/>
	<path class="st0" d="M17.6,9.5c0-0.3-0.2-0.5-0.7-0.5c-7.1,0-7.1,0-7.1,0c-0.4,0-0.7,0.3-0.7,0.5c0,0.5,0.2,0.8,0.7,0.8
		c7.1,0,7.1,0,7.1,0C17.4,10.3,17.6,10,17.6,9.5L17.6,9.5z"/>
	<path class="st0" d="M28.9,19.3C25,18.4,25,18.4,25,18.4c0-7.3,0-7.3,0-7.3c0-1.1-1.1-2.2-2.4-2.2c-0.2,0-0.2,0-0.2,0
		c-1.1,0-2.2,1.1-2.2,2.2c0,11.7,0,11.7,0,11.7c-1.5-2-1.5-2-1.5-2c-0.4-0.4-1.1-0.7-1.7-0.7c-0.7,0-1.1,0.2-1.5,0.7
		c-0.2,0-0.2,0-0.2,0c-0.4,0.4-0.7,1.1-0.7,1.8c0,0.7,0.2,1.1,0.7,1.5c3.3,4.4,3.3,4.4,3.3,4.4c0.2,0,0.4,0.2,0.4,0.2
		c0.2,0,0.4-0.2,0.4-0.2c0.2-0.2,0.2-0.2,0.2-0.4c0-0.2-0.2-0.2-0.2-0.4c-3.3-4.2-3.3-4.2-3.3-4.2c-0.2-0.2-0.4-0.7-0.4-0.9
		c0-0.4,0.2-0.7,0.4-0.9l0,0c0.2-0.2,0.7-0.4,0.9-0.4c0.4,0,0.7,0.2,0.9,0.4c1.7,2,1.7,2,1.7,2l0.2,0.2c0.4,0.2,1.1,0,1.3-0.4
		c0.2-0.4,0.2-0.4,0.2-0.7V11.1c0-0.7,0.4-1.1,1.1-1.1c0.2,0,0.2,0,0.2,0c0.7,0,1.3,0.4,1.3,1.1c0,8.4,0,8.4,0,8.4
		c4.8,0.9,4.8,0.9,4.8,0.9c1.1,0.4,2,0.9,1.7,2.6C30,28.1,30,28.1,30,28.1s0,0.2,0,0.4c0.2,0,0.2,0,0.4,0.2c0.4,0,0.7-0.2,0.7-0.7
		c0.4-5.1,0.4-5.1,0.4-5.1C31.7,20.4,30.4,19.5,28.9,19.3L28.9,19.3z"/>
	<path class="st0" d="M2.7,14.5c0-0.4,0.4-0.7,0.9-0.7s0.9,0.3,0.9,0.7c0,0.4-0.4,0.7-0.9,0.7S2.7,14.8,2.7,14.5L2.7,14.5z"/>
	<path class="st0" d="M27.3,6.7c0,4,0,4,0,4c0,2.9,0,2.9,0,2.9c0,2.6,0,2.6,0,2.6c0,0.4,0.4,0.7,0.7,0.7c0.2,0,0.7-0.2,0.7-0.7
		c0-2.6,0-2.6,0-2.6c0-2.9,0-2.9,0-2.9c0-4,0-4,0-4c0-1.1-1.1-2.2-2.5-2.2c-17.4,0-17.4,0-17.4,0c0,1.1,0,1.1,0,1.1
		c17.4,0,17.4,0,17.4,0C26.9,5.6,27.3,6.3,27.3,6.7L27.3,6.7z"/>
	<polygon class="st0" points="5.6,6.7 6.8,6.7 6.8,5.6 7.9,5.6 7.9,4.4 6.8,4.4 6.8,3.2 5.6,3.2 5.6,4.4 4.4,4.4 4.4,5.6 5.6,5.6 
		5.6,6.7 5.6,6.7 	"/>
</g>
</svg>
