<?xml version="1.0" encoding="utf-8"?>
<!-- Generator: Adobe Illustrator 22.1.0, SVG Export Plug-In . SVG Version: 6.00 Build 0)  -->
<svg version="1.1" id="图层_1" xmlns="http://www.w3.org/2000/svg" xmlns:xlink="http://www.w3.org/1999/xlink" x="0px" y="0px"
	 viewBox="0 0 32 32" style="enable-background:new 0 0 32 32;" xml:space="preserve">
<style type="text/css">
	.st0{fill-rule:evenodd;clip-rule:evenodd;fill:#005BAC;}
</style>
<g>
	<path class="st0" d="M0.8,12.7c-0.4,0-0.4,0.2-0.4,0.4c0,0.4,0,0.7,0.4,0.7c7.4,0,13.6,6.1,13.6,13.5c0,0.2,0.4,0.4,0.7,0.4
		c0.4,0,0.7-0.2,0.7-0.4C15.8,19.2,9.1,12.7,0.8,12.7L0.8,12.7z"/>
	<path class="st0" d="M0.8,17.5c-0.5,0-0.5,0.2-0.5,0.6c0,0.2,0,0.6,0.5,0.6c5,0,8.8,3.7,8.8,8.4c0,0.2,0.2,0.4,0.7,0.4
		c0.5,0,0.7-0.2,0.7-0.4C10.9,22.1,6.2,17.5,0.8,17.5L0.8,17.5z"/>
	<path class="st0" d="M0.8,22c-0.4,0-0.4,0.4-0.4,0.7c0,0.4,0,0.7,0.4,0.7c2.2,0,4,1.8,4,4c0,0.2,0.2,0.4,0.7,0.4
		c0.2,0,0.2-0.2,0.2-0.4C5.6,24.2,3.4,22,0.8,22L0.8,22z"/>
	<polygon class="st0" points="31.6,9.5 30.8,9.5 30.8,8.3 29.6,8.3 29.6,9.5 28.6,9.5 28.6,10.6 29.6,10.6 29.6,11.8 30.8,11.8 
		30.8,10.6 31.6,10.6 31.6,9.5 31.6,9.5 	"/>
	<path class="st0" d="M29.4,25.1c0,0.7-0.7,1.5-1.8,1.5c-10.1,0-10.1,0-10.1,0c-0.4,0-0.4,0.4-0.4,0.7c0,0.2,0.2,0.4,0.4,0.4
		c10.1,0,10.1,0,10.1,0c1.5,0,3.1-1.1,3.1-2.6c0-11.9,0-11.9,0-11.9c-1.3,0-1.3,0-1.3,0C29.4,25.1,29.4,25.1,29.4,25.1L29.4,25.1z"
		/>
	<path class="st0" d="M0.8,10.9c0.2,0,0.4-0.2,0.4-0.4c0-3.3,0-3.3,0-3.3c0-1.1,0.9-2,1.8-2c24.7,0,24.7,0,24.7,0
		c1.1,0,1.8,0.9,1.8,2c1.3,0,1.3,0,1.3,0c0-1.8-1.5-2.9-3.1-2.9C3,4.3,3,4.3,3,4.3c-1.5,0-2.6,1.1-2.6,2.9c0,3.3,0,3.3,0,3.3
		C0.4,10.7,0.4,10.9,0.8,10.9L0.8,10.9z"/>
</g>
</svg>
