<?xml version="1.0" encoding="utf-8"?>
<!-- Generator: Adobe Illustrator 22.1.0, SVG Export Plug-In . SVG Version: 6.00 Build 0)  -->
<svg version="1.1" id="图层_1" xmlns="http://www.w3.org/2000/svg" xmlns:xlink="http://www.w3.org/1999/xlink" x="0px" y="0px"
	 viewBox="0 0 32 32" style="enable-background:new 0 0 32 32;" xml:space="preserve">
<style type="text/css">
	.st0{fill-rule:evenodd;clip-rule:evenodd;fill:#005BAC;}
</style>
<g>
	<path class="st0" d="M6.7,19.7c-0.8,0-1.4,0.6-1.4,1.4s0.6,1.4,1.4,1.4c2.2,0,2.2,0,2.2,0c0.8,0,1.6-0.6,1.6-1.4l0,0
		c0-0.8-0.8-1.4-1.6-1.4H6.7L6.7,19.7L6.7,19.7z M9.3,21.1c0,0.2-0.2,0.2-0.4,0.2c-2.2,0-2.2,0-2.2,0c-0.2,0-0.2,0-0.2-0.2
		c0-0.2,0-0.2,0.2-0.2c2.2,0,2.2,0,2.2,0C9.1,20.9,9.3,20.9,9.3,21.1L9.3,21.1z"/>
	<polygon class="st0" points="19.7,23.7 18.4,23.7 18.4,24.9 17.4,24.9 17.4,26 18.4,26 18.4,27 19.7,27 19.7,26 20.7,26 20.7,24.9 
		19.7,24.9 19.7,23.7 19.7,23.7 	"/>
	<path class="st0" d="M19.4,14.2c1,0.8,2.2,1.4,2.2,1.4h0.2c0.2,0,0.2,0,0.4,0c0,0,1-0.6,2-1.4c1.2-0.8,2.4-1.6,2.8-2.4
		c-0.4-0.4-0.4-0.4-0.4-0.4c0.4,0.4,0.4,0.4,0.4,0.4c0.4-1,0.6-2,0.6-3c0-2.2-0.6-4.5-0.6-4.5c0-0.2-0.2-0.4-0.4-0.4C22,3,22,3,22,3
		c-0.2,0-0.2,0-0.2,0c-5,0.8-5,0.8-5,0.8c-0.2,0-0.4,0.2-0.4,0.4c0,0-0.6,2.2-0.6,4.5c0,1,0.2,2,0.6,3
		C16.8,12.5,18.2,13.6,19.4,14.2L19.4,14.2z M17.2,5.8c0.2-0.4,0.2-0.8,0.2-1c4.4-0.6,4.4-0.6,4.4-0.6C26,4.8,26,4.8,26,4.8
		c0,0.2,0.2,0.6,0.2,1c0,0.2,0,0.6,0,1c-4.4,3.9-4.4,3.9-4.4,3.9c-4.6-3.9-4.6-3.9-4.6-3.9s0,0,0-0.2C17.2,6.5,17.2,6,17.2,5.8
		L17.2,5.8z M17,8.3c4.4,3.7,4.4,3.7,4.4,3.7c0.2,0,0.4,0.2,0.4,0.2c0.2,0,0.4-0.2,0.4-0.2c4.2-3.7,4.2-3.7,4.2-3.7s0,0.2,0,0.4
		c0,0.8-0.2,1.8-0.4,2.4l0,0c-0.2,0.4-1.4,1.4-2.4,2c-0.8,0.6-1.4,1-1.8,1.2c-0.4-0.2-1-0.6-1.8-1.2c-1.2-0.6-2.4-1.6-2.6-2
		C17.2,10.5,17,9.5,17,8.7C17,8.5,17,8.3,17,8.3L17,8.3z"/>
	<path class="st0" d="M23,22.5c2.3,0,2.3,0,2.3,0c0.8,0,1.5-0.6,1.5-1.4l0,0c0-0.8-0.6-1.4-1.5-1.4c-2.3,0-2.3,0-2.3,0
		c-0.8,0-1.5,0.6-1.5,1.4S22.1,22.5,23,22.5L23,22.5z M23,20.9c2.3,0,2.3,0,2.3,0c0.2,0,0.2,0,0.2,0.2c0,0.2,0,0.2-0.2,0.2
		c-2.3,0-2.3,0-2.3,0c-0.2,0-0.2,0-0.2-0.2C22.7,20.9,22.7,20.9,23,20.9L23,20.9z"/>
	<path class="st0" d="M30.2,16.4c-2.2,0-2.2,0-2.2,0c-0.8,0-1.4,0.6-1.4,1.4l0,0c-0.2,0-0.6,0-0.8,0c-19.6,0-19.6,0-19.6,0
		c0.2-0.4,0.6-0.8,0.8-1.4c0.8-1,1.6-2.2,1.8-2.6c0.6-0.8,1.2-1,2-1c2.5,0,2.5,0,2.5,0c0.4,0,0.6-0.4,0.6-0.6c0-0.4-0.2-0.6-0.6-0.6
		c-2.5,0-2.5,0-2.5,0c-1,0-2.2,0.4-2.9,1.4c-0.6,0.8-1.8,2.6-2.7,3.9c-0.2-0.2-0.6-0.4-1.2-0.4c-2.2,0-2.2,0-2.2,0
		c-0.8,0-1.4,0.6-1.4,1.4c0,0.8,0.6,1.4,1.4,1.4c1.6,0,1.6,0,1.6,0c-0.2,0.4-0.2,0.8-0.2,1.2c0,3,0,3,0,3c0,0.6,0.2,1.2,0.6,1.8l0,0
		c0,1.4,0,1.4,0,1.4c0,1.2,1,2.2,2.2,2.2c1.4,0,2.5-1,2.5-2.2c0-0.6,0-0.6,0-0.6c8,0,8,0,8,0c0-1.2,0-1.2,0-1.2
		c-10.6,0-10.6,0-10.6,0c-0.8,0-1.4-0.6-1.4-1.4c0-3,0-3,0-3c0-0.8,0.6-1.4,1.4-1.4c19.8,0,19.8,0,19.8,0c0.8,0,1.6,0.6,1.6,1.4
		c0,3,0,3,0,3c0,0.8-0.8,1.4-1.6,1.4c-3.9,0-3.9,0-3.9,0c0,1.2,0,1.2,0,1.2c1.4,0,1.4,0,1.4,0c0,0.6,0,0.6,0,0.6
		c0,1.2,1,2.2,2.2,2.2c1.2,0,2.2-1,2.2-2.2c0-1.4,0-1.4,0-1.4s0,0,0-0.2c0.4-0.4,0.8-1,0.8-1.6c0-3,0-3,0-3c0-0.4-0.2-0.8-0.4-1.2
		c2,0,2,0,2,0c0.8,0,1.4-0.6,1.4-1.4C31.6,17,31,16.4,30.2,16.4L30.2,16.4z M5.1,26c0.2,0.2,0.6,0.2,0.8,0.2c1.4,0,1.4,0,1.4,0
		c0,0.6,0,0.6,0,0.6c0,0.6-0.6,1-1.2,1s-1-0.4-1-1V26L5.1,26L5.1,26z M4,18c-2.2,0-2.2,0-2.2,0s-0.2,0-0.2-0.2
		c0-0.2,0.2-0.2,0.2-0.2c2.2,0,2.2,0,2.2,0c0.2,0,0.4,0,0.4,0.2C4.5,18,4.3,18,4,18L4,18z M26.7,26.8c0,0.6-0.6,1-1.2,1
		c-0.6,0-1-0.4-1-1s0-0.6,0-0.6c1.2,0,1.2,0,1.2,0c0.4,0,0.6,0,1-0.2V26.8L26.7,26.8L26.7,26.8z M30.2,18C28,18,28,18,28,18
		c-0.2,0-0.2,0-0.2-0.2c0-0.2,0-0.2,0.2-0.2c2.2,0,2.2,0,2.2,0c0.2,0,0.2,0,0.2,0.2C30.4,18,30.4,18,30.2,18L30.2,18z"/>
</g>
</svg>
