<?xml version="1.0" encoding="utf-8"?>
<!-- Generator: Adobe Illustrator 22.1.0, SVG Export Plug-In . SVG Version: 6.00 Build 0)  -->
<svg version="1.1" id="图层_1" xmlns="http://www.w3.org/2000/svg" xmlns:xlink="http://www.w3.org/1999/xlink" x="0px" y="0px"
	 viewBox="0 0 32 32" style="enable-background:new 0 0 32 32;" xml:space="preserve">
<style type="text/css">
	.st0{fill-rule:evenodd;clip-rule:evenodd;fill:#005BAC;}
</style>
<g>
	<path class="st0" d="M14.6,8.1c-3.9,0-7.4,3.3-7.4,7.3s3.5,7.3,7.4,7.3c1.1,0,2.2-0.2,3-0.7c0.4-0.2,0.4-0.7,0.4-0.9
		c-0.2-0.2-0.4-0.4-0.9-0.2c-0.9,0.2-1.7,0.4-2.6,0.4c-3.3,0-6.1-2.6-6.1-6s2.8-6,6.1-6c2,0,3.7,0.9,4.8,2c0.9,1.1,1.1,2.4,0.9,4
		c-0.2,0.4-0.4,1.1-0.9,1.5c-0.7,0.7-1.7,1.1-2.4,0.9c-0.2-0.2-0.4-0.2-0.4-1.1c0-0.4,0-0.7,0-1.1c0.2-0.7,0.2-0.7,0.2-0.7
		c0-0.7,0.4-1.3,0.9-2.2c0.2-0.2,0-0.7-0.2-0.9c-0.2-0.2-0.7,0-0.9,0.2c0,0.2-0.2,0.4-0.2,0.7c-0.4-0.4-1.1-0.7-1.7-0.7
		c-0.2,0-0.2,0-0.2,0c-1.3,0-2.6,1.1-2.8,2.4c-0.4,1.8-0.4,1.8-0.4,1.8c0,0.7,0,1.3,0.4,1.8c0.4,0.7,1.1,0.9,1.7,0.9
		c0.2,0,0.2,0,0.2,0c0.9,0,1.5-0.4,2.2-0.9c0.2,0.4,0.4,0.7,0.9,0.9c1.3,0.4,2.8-0.2,3.9-1.3c0.4-0.7,0.9-1.3,0.9-1.8
		c0.4-2,0.2-3.7-0.9-5.1C19.1,9.2,17,8.1,14.6,8.1L14.6,8.1z M15.4,14.5c0,0.2,0,0.2,0,0.2c0,0.2,0,0.4,0,0.9
		c-0.2,0.7-0.2,0.7-0.2,0.7c-0.2,0.7-0.9,1.3-1.7,1.3c-0.2,0-0.2,0-0.2,0c-0.2,0-0.7,0-0.7-0.2c-0.2-0.2-0.2-0.4-0.2-0.9
		c0.2-1.8,0.2-1.8,0.2-1.8c0.2-0.9,0.9-1.5,1.7-1.5c0.2,0,0.2,0,0.2,0c0.4,0,0.7,0.2,0.9,0.4C15.4,13.8,15.7,14.2,15.4,14.5
		L15.4,14.5z"/>
	<path class="st0" d="M28.3,3.6c-3.1,0-3.1,0-3.1,0c0-1.1-0.9-2.2-2.2-2.2c-17.8,0-17.8,0-17.8,0c-1.3,0-2.4,1.1-2.4,2.2
		c0,23.2,0,23.2,0,23.2c0,1.3,1.1,2.4,2.4,2.4c10.4,0,10.4,0,10.4,0c0-1.3,0-1.3,0-1.3c-10.4,0-10.4,0-10.4,0
		c-0.7,0-1.1-0.4-1.1-1.1c0-23.2,0-23.2,0-23.2c0-0.4,0.4-0.9,1.1-0.9c17.8,0,17.8,0,17.8,0c0.7,0,1.1,0.4,1.1,0.9
		c0,23.2,0,23.2,0,23.2c0,0.7-0.4,1.1-1.1,1.1c-0.9,0-0.9,0-0.9,0c0,1.3,0,1.3,0,1.3c0.9,0,0.9,0,0.9,0c1.3,0,2.2-1.1,2.2-2.4
		c0-3.7,0-3.7,0-3.7c3.1,0,3.1,0,3.1,0c0.4,0,0.9-0.7,0.9-1.3c0-16.8,0-16.8,0-16.8C29.2,4.1,28.8,3.6,28.3,3.6L28.3,3.6z
		 M28.1,21.8c-2.9,0-2.9,0-2.9,0c0-3.3,0-3.3,0-3.3c2.9,0,2.9,0,2.9,0C28.1,21.8,28.1,21.8,28.1,21.8L28.1,21.8z M28.1,17.2
		c-2.9,0-2.9,0-2.9,0c0-3.1,0-3.1,0-3.1c2.9,0,2.9,0,2.9,0C28.1,17.2,28.1,17.2,28.1,17.2L28.1,17.2z M28.1,12.6c-2.9,0-2.9,0-2.9,0
		c0-3.1,0-3.1,0-3.1c2.9,0,2.9,0,2.9,0V12.6L28.1,12.6L28.1,12.6z M28.1,8.2c-2.9,0-2.9,0-2.9,0c0-3.3,0-3.3,0-3.3
		c2.9,0,2.9,0,2.9,0C28.1,8.2,28.1,8.2,28.1,8.2L28.1,8.2z"/>
	<polygon class="st0" points="19.5,27 18.4,27 18.4,28.3 16.9,28.3 16.9,29.3 18.4,29.3 18.4,30.6 19.5,30.6 19.5,29.3 20.8,29.3 
		20.8,28.3 19.5,28.3 19.5,27 19.5,27 	"/>
</g>
</svg>
