<?xml version="1.0" encoding="utf-8"?>
<!-- Generator: Adobe Illustrator 22.1.0, SVG Export Plug-In . SVG Version: 6.00 Build 0)  -->
<svg version="1.1" id="图层_1" xmlns="http://www.w3.org/2000/svg" xmlns:xlink="http://www.w3.org/1999/xlink" x="0px" y="0px"
	 viewBox="0 0 32 32" style="enable-background:new 0 0 32 32;" xml:space="preserve">
<style type="text/css">
	.st0{fill:#1D50A1;}
	.st1{fill:#FFFFFF;}
</style>
<g>
	<g>
		<path class="st0" d="M15.9,31.1C7.7,31.1,1,24.4,1,16.2S7.7,1.3,15.9,1.3c3.7,0,7.3,1.4,10.1,3.9c0.2,0.2,0.3,0.6,0,0.8
			c-0.2,0.2-0.6,0.3-0.8,0c-2.5-2.3-5.8-3.6-9.3-3.6C8.3,2.5,2.1,8.6,2.1,16.2s6.2,13.7,13.7,13.7c7.6,0,13.7-6.2,13.7-13.7
			c0-0.3,0.3-0.6,0.6-0.6c0.3,0,0.6,0.3,0.6,0.6C30.8,24.4,24.1,31.1,15.9,31.1z"/>
		<path class="st0" d="M21.4,7.1c-0.3,0-0.6-0.2-0.6-0.6c0-0.3,0.2-0.6,0.6-0.6l3.8-0.1c0.3,0,0.6-0.3,0.6-0.6l-0.1-3.8
			c0-0.3,0.2-0.6,0.6-0.6c0,0,0,0,0,0c0.3,0,0.6,0.2,0.6,0.6l0.1,3.8c0,1-0.7,1.8-1.7,1.8L21.4,7.1C21.4,7.1,21.4,7.1,21.4,7.1z"/>
		<g>
			<path class="st0" d="M15.9,5.5c-0.3,0-0.6-0.3-0.6-0.6V1.9c0-0.3,0.3-0.6,0.6-0.6c0.3,0,0.6,0.3,0.6,0.6v3.1
				C16.5,5.3,16.2,5.5,15.9,5.5z"/>
			<path class="st0" d="M15.9,30.7c-0.3,0-0.6-0.3-0.6-0.6v-3.1c0-0.3,0.3-0.6,0.6-0.6c0.3,0,0.6,0.3,0.6,0.6v3.1
				C16.5,30.5,16.2,30.7,15.9,30.7z"/>
		</g>
		<g>
			<path class="st0" d="M5,16.6H1.9c-0.3,0-0.6-0.3-0.6-0.6c0-0.3,0.3-0.6,0.6-0.6H5c0.3,0,0.6,0.3,0.6,0.6
				C5.6,16.4,5.3,16.6,5,16.6z"/>
			<path class="st0" d="M30.2,16.6h-3.1c-0.3,0-0.6-0.3-0.6-0.6c0-0.3,0.3-0.6,0.6-0.6h3.1c0.3,0,0.6,0.3,0.6,0.6
				C30.8,16.4,30.5,16.6,30.2,16.6z"/>
		</g>
		<path class="st0" d="M14.9,21.1H9c-0.2,0-0.3-0.1-0.4-0.2c-0.1-0.1-0.2-0.3-0.1-0.5c0.3-2.2,2.3-3.1,3.4-3.3
			c0.8-0.2,2.5-1.2,2.5-2.5c0-1.3-1.1-2.4-2.4-2.4c-1.3,0-2.4,1.1-2.4,2.4c0,0.3-0.3,0.6-0.6,0.6c-0.3,0-0.6-0.3-0.6-0.6
			c0-2,1.6-3.6,3.6-3.6c2,0,3.6,1.6,3.6,3.6c0,2.1-2.3,3.3-3.5,3.6c-0.1,0-1.7,0.3-2.3,1.6h5.2c0.3,0,0.6,0.3,0.6,0.6
			C15.5,20.8,15.2,21.1,14.9,21.1z"/>
		<path class="st0" d="M21,21.1c-0.3,0-0.6-0.3-0.6-0.6v-1.6h-3.5c-0.2,0-0.4-0.1-0.5-0.3c-0.1-0.2-0.1-0.4,0-0.6l4.1-6.7
			c0.1-0.2,0.4-0.3,0.7-0.3c0.3,0.1,0.4,0.3,0.4,0.6v6.1h1.3c0.3,0,0.6,0.3,0.6,0.6c0,0.3-0.3,0.6-0.6,0.6h-1.3v1.6
			C21.6,20.8,21.3,21.1,21,21.1z M17.9,17.7h2.5v-4.1L17.9,17.7z"/>
	</g>
	<g>
		<rect x="26.1" y="13.2" class="st1" width="7" height="5.8"/>
		<g>
			<rect x="28.4" y="15.4" class="st0" width="3.5" height="1.2"/>
			<rect x="29.5" y="14.3" class="st0" width="1.2" height="3.5"/>
		</g>
	</g>
</g>
</svg>
