<?xml version="1.0" encoding="utf-8"?>
<!-- Generator: Adobe Illustrator 22.1.0, SVG Export Plug-In . SVG Version: 6.00 Build 0)  -->
<svg version="1.1" id="图层_1" xmlns="http://www.w3.org/2000/svg" xmlns:xlink="http://www.w3.org/1999/xlink" x="0px" y="0px"
	 viewBox="0 0 32 32" style="enable-background:new 0 0 32 32;" xml:space="preserve">
<style type="text/css">
	.st0{fill-rule:evenodd;clip-rule:evenodd;fill:#005BAC;}
</style>
<g>
	<path class="st0" d="M27.7,4c-3.5-3.7-9.3-4.2-13.4-1.3c-0.4,0.2-0.4,0.7-0.2,0.9s0.7,0.2,0.9,0.2c3.7-2.6,8.8-2.2,12.1,1.1
		c3.1,3.1,3.5,8.4,1.1,12.1c-0.2,0.2-0.2,0.4,0,0.7c0,0,0,0,0.2,0c0.2,0.2,0.4,0.2,0.7,0C31.9,13.3,31.5,7.6,27.7,4L27.7,4z"/>
	<path class="st0" d="M16.7,5.6c-0.2,0.2-0.2,0.6-0.2,0.9c0.2,0.2,0.7,0.4,0.9,0.2c2.3-1.1,5-0.6,7.1,1.1c1.8,1.7,2.3,4.3,0.9,6.7
		c0,0.2,0,0.4,0.2,0.6l0,0c0.5,0.2,0.7,0,0.9-0.2c1.4-2.6,0.9-5.8-1.4-8C23.1,4.7,19.7,4.3,16.7,5.6L16.7,5.6z"/>
	<polygon class="st0" points="17.8,27.6 18.6,26.8 19.2,27.6 19.2,27.6 19.2,27.6 19.6,27.2 20,26.8 19.2,26 20,25.2 19.2,24.5 
		18.6,25.2 17.8,24.5 16.9,25.2 17.8,26 16.9,26.8 17.8,27.6 17.8,27.6 	"/>
	<path class="st0" d="M22.7,9.1c-1.3-1.3-3.5-1.3-4.8,0c-1.1,1.3-1.3,3.1-0.4,4.5C11,17.4,11,17.4,11,17.4c-7.9-8-7.9-8-7.9-8
		C2.8,9.1,2.6,9.1,2.4,9.1c0,0-0.2,0.2-0.4,0.4c-0.7,1.8-0.9,3.8-0.9,5.6c0,4.2,1.5,8.2,4.4,11.4c3.1,2.9,7.1,4.7,11.2,4.7
		c2,0,4-0.4,5.7-1.1c0.2,0,0.2-0.2,0.2-0.4c0.2-0.2,0-0.4,0-0.4c-1.5-1.6-1.5-1.6-1.5-1.6c-0.9,0.7-0.9,0.7-0.9,0.7
		c0.9,0.9,0.9,0.9,0.9,0.9c-1.5,0.4-2.9,0.7-4.4,0.7c-4,0-7.5-1.3-10.4-4.2c-2.6-2.7-4.2-6.5-4.2-10.5c0-1.3,0.2-2.9,0.7-4.5
		c7.5,7.8,7.5,7.8,7.5,7.8l0,0l0,0c3.3,3.1,3.3,3.1,3.3,3.1l0,0l0,0c2.4,2.7,2.4,2.7,2.4,2.7c0.9-0.9,0.9-0.9,0.9-0.9
		c-2.2-2.2-2.2-2.2-2.2-2.2c3.7-6.7,3.7-6.7,3.7-6.7c1.3,0.9,3.1,0.9,4.2-0.4C24,12.7,24,10.5,22.7,9.1L22.7,9.1z M13.9,20.2
		c-2-2.2-2-2.2-2-2.2c4.6-2.7,4.6-2.7,4.6-2.7L13.9,20.2L13.9,20.2L13.9,20.2z M21.8,13.1c-0.9,0.9-2.2,0.9-3.1,0
		c-0.9-0.7-0.9-2.2,0-3.1c0.9-0.9,2.2-0.9,3.1,0C22.7,10.9,22.7,12.5,21.8,13.1L21.8,13.1z"/>
</g>
</svg>
