<?xml version="1.0" encoding="utf-8"?>
<!-- Generator: Adobe Illustrator 22.1.0, SVG Export Plug-In . SVG Version: 6.00 Build 0)  -->
<svg version="1.1" id="图层_1" xmlns="http://www.w3.org/2000/svg" xmlns:xlink="http://www.w3.org/1999/xlink" x="0px" y="0px"
	 viewBox="0 0 664 664" style="enable-background:new 0 0 664 664;" xml:space="preserve">
<style type="text/css">
	.st0{fill:#1D50A1;}
</style>
<path class="st0" d="M318.8,332.6h-67.9c-6.3,0-11.4,5.1-11.4,11.4s5.1,11.4,11.4,11.4h67.9c6.3,0,11.4-5.1,11.4-11.4
	S325.1,332.6,318.8,332.6z M239.4,264.7c0,6.3,5.1,11.4,11.4,11.4h67.9c6.3,0,11.4-5.1,11.4-11.4c0-6.3-5.1-11.4-11.4-11.4h-67.9
	C244.5,253.3,239.4,258.4,239.4,264.7z M157.7,253.3H89.8c-6.3,0-11.4,5.1-11.4,11.4s5.1,11.4,11.4,11.4h67.9
	c6.3,0,11.4-5.1,11.4-11.4S164,253.3,157.7,253.3z M157.7,416.8H89.8c-6.3,0-11.4,5.1-11.4,11.4c0,6.3,5.1,11.4,11.4,11.4h67.9
	c6.3,0,11.4-5.1,11.4-11.4C169.1,421.9,164,416.8,157.7,416.8z M157.7,332.6H89.8c-6.3,0-11.4,5.1-11.4,11.4s5.1,11.4,11.4,11.4
	h67.9c6.3,0,11.4-5.1,11.4-11.4S164,332.6,157.7,332.6z M318.8,416.8h-67.9c-6.3,0-11.4,5.1-11.4,11.4c0,6.3,5.1,11.4,11.4,11.4
	h67.9c6.3,0,11.4-5.1,11.4-11.4C330.2,422,325.1,416.8,318.8,416.8z M535.2,286.6h-68c-6.3,0-11.4,5.1-11.4,11.4
	c0,6.3,5.1,11.4,11.4,11.4h68c6.3,0,11.4-5.1,11.4-11.4C546.6,291.7,541.5,286.6,535.2,286.6z M535.2,450.2h-68
	c-6.3,0-11.4,5.1-11.4,11.4c0,6.3,5.1,11.4,11.4,11.4h68c6.3,0,11.4-5.1,11.4-11.4C546.6,455.3,541.5,450.2,535.2,450.2z
	 M633.7,507.1v-21.1h-21.1v21.1h-21.2v21.1h21.2v21.2h21.1v-21.2h21.2v-21.1H633.7z M613.1,588.7c0,15.9-13,28.8-28.9,28.8H403.2
	V220.1h181.1c15.9,0,28.8,12.9,28.9,28.8v215.8h22.8V249c0-28.6-23.1-51.7-51.7-51.7H403.2v-34.9c0-3.7-1.8-7.2-4.9-9.3
	C348,117.8,213.4,25.7,213.4,25.6c-3.9-2.6-8.9-2.6-12.8,0c-0.1,0.1-153,103-186.7,127.6c-2.9,2.1-4.7,5.6-4.7,9.2v426.3
	c0,28.5,23.1,51.7,51.7,51.7h46.5c3,0,5.9-1.2,8.1-3.3c2.2-2.1,3.3-5,3.3-8.1v-54.7c0-16,12.9-28.8,28.8-28.8h115.8
	c15.9,0,28.8,12.9,28.8,28.8v54.7c0,3,1.2,5.9,3.3,8.1c2.1,2.1,5.1,3.3,8.1,3.3h280.6c28.5,0,51.7-23.1,51.7-51.7v-18.2h-22.8V588.7
	z M380.3,617.5h-65.2v-43.3c0-28.6-23.1-51.7-51.7-51.7H147.6c-28.5,0-51.7,23.1-51.7,51.7v43.3H60.8c-15.9,0-28.8-12.9-28.9-28.8
	V168.3c19.3-13.8,61.8-42.8,100.6-69.1c32-21.7,61.7-41.7,74.3-50.3c26.3,18,127.3,87.2,173.5,119.5V617.5z M535.2,365.9h-68
	c-6.3,0-11.4,5.1-11.4,11.4c0,6.3,5.1,11.4,11.4,11.4h68c6.3,0,11.4-5.1,11.4-11.4C546.6,371,541.5,365.9,535.2,365.9z M162.3,165.9
	c0,24,19.4,43.4,43.4,43.4c24,0,43.4-19.4,43.4-43.4s-19.4-43.4-43.4-43.4C181.7,122.4,162.3,141.9,162.3,165.9z M226.4,165.9
	c0,11.4-9.2,20.6-20.6,20.6c-11.4,0-20.6-9.2-20.6-20.6s9.2-20.6,20.6-20.6C217.1,145.3,226.3,154.5,226.4,165.9z"/>
</svg>
