<?xml version="1.0" encoding="utf-8"?>
<!-- Generator: Adobe Illustrator 22.1.0, SVG Export Plug-In . SVG Version: 6.00 Build 0)  -->
<svg version="1.1" id="图层_1" xmlns="http://www.w3.org/2000/svg" xmlns:xlink="http://www.w3.org/1999/xlink" x="0px" y="0px"
	 viewBox="0 0 32 32" style="enable-background:new 0 0 32 32;" xml:space="preserve">
<style type="text/css">
	.st0{fill:#1D50A1;}
</style>
<g>
	<g>
		<path class="st0" d="M30.4,19.7V7.6c0-0.4,0.3-0.7,0.7-0.7c0.4,0,0.7,0.3,0.7,0.7v12.1"/>
	</g>
	<g>
		<g>
			<polyline class="st0" points="27.6,4.6 4.5,4.6 4.5,3.3 27.6,3.3 			"/>
		</g>
		<g>
			<polyline class="st0" points="0.2,19.7 0.2,7.6 1.6,7.6 1.6,19.7 			"/>
		</g>
		<g>
			<path class="st0" d="M27.5,28.7H4.5c-0.4,0-0.7-0.3-0.7-0.7s0.3-0.7,0.7-0.7h22.9c0.4,0,0.7,0.3,0.7,0.7S27.8,28.7,27.5,28.7z"/>
		</g>
		<g>
			<polygon class="st0" points="24.5,22.7 23.2,22.7 23.2,21.4 21.9,21.4 21.9,22.7 20.6,22.7 20.6,24 21.9,24 21.9,25.3 23.2,25.3 
				23.2,24 24.5,24 			"/>
		</g>
		<g>
			<g>
				<polyline class="st0" points="27.6,22.7 25.9,22.7 25.9,24 27.6,24 				"/>
			</g>
			<g>
				<rect x="20.6" y="22.7" class="st0" width="4" height="1.3"/>
			</g>
			<g>
				<polyline class="st0" points="4.5,24 19.2,24 19.2,22.7 4.5,22.7 				"/>
			</g>
		</g>
		<g>
			<path class="st0" d="M1.6,7.6H0.2c0-2.4,1.9-4.3,4.3-4.3v1.3C2.9,4.6,1.6,5.9,1.6,7.6z"/>
		</g>
		<g>
			<path class="st0" d="M31.8,7.6h-1.3c0-1.6-1.3-3-3-3V3.3C29.8,3.3,31.8,5.2,31.8,7.6z"/>
		</g>
		<g>
			<path class="st0" d="M27.5,24v-1.3c1.6,0,3-1.3,3-3h1.3C31.8,22.1,29.8,24,27.5,24z"/>
		</g>
		<g>
			<path class="st0" d="M4.5,24c-2.4,0-4.3-1.9-4.3-4.3h1.3c0,1.6,1.3,3,3,3V24z"/>
		</g>
		<g>
			<g>
				<path class="st0" d="M10.2,17c-2.2,0-3.9-1.8-3.9-3.9S8,9.2,10.2,9.2c2.2,0,3.9,1.8,3.9,3.9S12.3,17,10.2,17z M10.2,10.6
					c-1.4,0-2.6,1.2-2.6,2.6s1.2,2.6,2.6,2.6s2.6-1.2,2.6-2.6S11.6,10.6,10.2,10.6z"/>
			</g>
			<g>
				<path class="st0" d="M15.5,23.5c-0.4,0-0.7-0.3-0.7-0.7c0-2.6-2.1-4.7-4.7-4.7c-2.6,0-4.7,2.1-4.7,4.7c0,0.4-0.3,0.7-0.7,0.7
					c-0.4,0-0.7-0.3-0.7-0.7c0-3.3,2.7-6,6-6c3.3,0,6,2.7,6,6C16.2,23.2,15.9,23.5,15.5,23.5z"/>
			</g>
		</g>
		<g>
			<g>
				<g>
					<g>
						<rect x="20.2" y="6.5" class="st0" width="5.8" height="1.3"/>
					</g>
					<g>
						<path class="st0" d="M20.2,14.3c-1.5,0-2.7-1.2-2.7-2.7h1.3c0,0.7,0.6,1.3,1.3,1.3V14.3z"/>
					</g>
					<g>
						<rect x="17.5" y="9.1" class="st0" width="1.3" height="2.5"/>
					</g>
					<g>
						<path class="st0" d="M25.9,14.3V13c0.7,0,1.3-0.6,1.3-1.3h1.3C28.6,13.1,27.4,14.3,25.9,14.3z"/>
					</g>
					<g>
						<rect x="20.2" y="13" class="st0" width="1.2" height="1.3"/>
					</g>
					<g>
						<path class="st0" d="M20.2,6.5c-1.5,0-2.7,1.2-2.7,2.7h1.3c0-0.7,0.6-1.3,1.3-1.3V6.5z"/>
					</g>
					<g>
						<path class="st0" d="M25.9,6.5c1.5,0,2.7,1.2,2.7,2.7h-1.3c0-0.7-0.6-1.3-1.3-1.3V6.5z"/>
					</g>
					<g>
						<g>
							<rect x="27.3" y="9.1" class="st0" width="1.3" height="2.5"/>
						</g>
					</g>
					<g>
						<path class="st0" d="M25.9,14.3h-1.7c-0.4,0-0.7-0.3-0.7-0.7c0-0.4,0.3-0.7,0.7-0.7h1.7c0.4,0,0.7,0.3,0.7,0.7
							C26.6,14,26.3,14.3,25.9,14.3z"/>
					</g>
				</g>
			</g>
			<g>
				<path class="st0" d="M19.3,16.8c-0.1,0-0.3,0-0.4-0.2c-0.3-0.2-0.3-0.7-0.1-0.9l2-2.5c0.2-0.3,0.7-0.3,0.9-0.1
					c0.3,0.2,0.3,0.7,0.1,0.9l-2,2.5C19.7,16.7,19.5,16.8,19.3,16.8z"/>
			</g>
		</g>
	</g>
</g>
</svg>
