
                    <svg version="1.1" id="svg-draw" xmlns="http://www.w3.org/2000/svg" xlink="http://www.w3.org/1999/xlink" x="0px" y="0px" width="100%" height="100%" xml:space="preserve" svgjs="http://svgjs.com/svgjs" viewBox="0 0 670 500">
	<g id="svg-content">
		<g id="svg-logo" class="svg-element" style="cursor: pointer" transform="matrix(0.8,0,0,0.8,252.4,116.9)">
<g>
	<path fill="#2c4de0" d="M 46.1 85.4 c 1.4 -2.5 3.8 -4.5 6.7 -5.5 c 6.5 -2.2 13.5 1.3 15.7 7.7 c 4.6 13.7 17.5 22.9 32 22.9 s 27.3 -9.2 32 -22.9 c 2.2 -6.5 9.2 -9.9 15.7 -7.7 c 3 1 5.3 3 6.7 5.5 c 1.5 2.5 2 5.5 1.4 8.6 c -1.3 6.7 -7.8 11 -14.5 9.7 c -14.2 -2.8 -28.6 3.7 -35.8 16.2 c -7.2 12.5 -5.7 28.3 3.9 39.2 c 4.5 5.1 4 12.9 -1.1 17.4 c -2.4 2.1 -5.3 3.1 -8.2 3.1 c -2.9 0 -5.8 -1 -8.2 -3.1 c -5.1 -4.5 -5.6 -12.3 -1.1 -17.4 c 9.6 -10.9 11.1 -26.6 3.9 -39.2 c -7.2 -12.5 -21.6 -19.1 -35.8 -16.2 c -6.7 1.3 -13.2 -3 -14.5 -9.7 C 44 91 44.6 88 46.1 85.4 z"></path>
	<circle fill="#2c4de0" cx="100.4" cy="73.7" r="21.5"></circle>
	<ellipse transform="matrix(0.5,-0.9,0.9,0.5,-51,188.5)" fill="#2c4de0" cx="137.8" cy="138.4" rx="21.5" ry="21.5"></ellipse>
	<ellipse transform="matrix(0.9,-0.5,0.5,0.9,-60.8,50.1)" fill="#2c4de0" cx="63.1" cy="138.4" rx="21.5" ry="21.5"></ellipse>
	<path fill="#2c4de0" d="M 100.4 110.6 c -8 0 -15.6 -2.8 -21.5 -7.7 c -0.5 0.2 -1 0.5 -1.4 0.7 c 0 0.5 0 1.1 0.1 1.6 C 84.8 107.9 91 113 95 120 c 4 7 5.3 14.9 4.1 22.5 c 0.4 0.3 0.9 0.6 1.4 0.9 c 0.5 -0.3 0.9 -0.6 1.4 -0.9 c -1.3 -7.6 0 -15.5 4.1 -22.5 c 4 -7 10.3 -12.1 17.4 -14.8 c 0 -0.5 0.1 -1.1 0.1 -1.6 c -0.5 -0.3 -0.9 -0.5 -1.4 -0.7 C 116 107.7 108.5 110.6 100.4 110.6 z"></path>
	<g>
		<path fill="#2c4de0" d="M 100.4 36.1 c -14.5 0 -27.3 9.2 -32 22.9 c -2.2 6.5 -9.2 9.9 -15.7 7.7 c -6.5 -2.2 -9.9 -9.2 -7.7 -15.7 c 8 -23.8 30.3 -39.7 55.4 -39.7 c 25.1 0 47.3 16 55.4 39.7 c 2.2 6.5 -1.3 13.5 -7.7 15.7 c -6.5 2.2 -13.5 -1.3 -15.7 -7.7 C 127.8 45.3 114.9 36.1 100.4 36.1 z"></path>
		<path fill="#2c4de0" d="M 170.4 157.2 c 7.2 -12.5 5.7 -28.3 -3.9 -39.2 c -4.5 -5.1 -4 -12.9 1.1 -17.4 c 5.1 -4.5 12.9 -4 17.4 1.1 c 16.6 18.8 19.3 46.1 6.7 67.8 c -12.5 21.7 -37.5 33 -62.1 28.1 c -6.7 -1.3 -11 -7.8 -9.7 -14.5 c 1.3 -6.7 7.8 -11 14.5 -9.7 C 148.7 176.3 163.1 169.8 170.4 157.2 z"></path>
		<path fill="#2c4de0" d="M 30.5 157.2 c 7.2 12.5 21.6 19.1 35.8 16.2 c 6.7 -1.3 13.2 3 14.5 9.7 c 1.3 6.7 -3 13.2 -9.7 14.5 c -24.6 4.9 -49.5 -6.4 -62.1 -28.1 c -12.5 -21.7 -9.8 -49 6.7 -67.8 c 4.5 -5.1 12.3 -5.6 17.4 -1.1 c 5.1 4.5 5.6 12.3 1.1 17.4 C 24.8 128.9 23.3 144.7 30.5 157.2 z"></path>
		<path fill="#2c4de0" d="M 100.4 11.4 c -15 0 -28.9 5.7 -39.5 15.3 c 3.9 7.2 10.2 13.2 18 17.1 c 5.9 -4.9 13.4 -7.7 21.5 -7.7 c 8 0 15.6 2.8 21.5 7.7 c 7.8 -3.9 14.1 -9.9 18 -17.1 C 129.4 17.1 115.4 11.4 100.4 11.4 z"></path>
		<path fill="#2c4de0" d="M 191.8 169.6 c 7.5 -13 9.5 -27.9 6.5 -41.8 c -8.2 -0.3 -16.5 2.2 -23.8 7 c 1.3 7.6 0 15.5 -4.1 22.5 c -4 7 -10.3 12.1 -17.4 14.8 c -0.5 8.7 1.5 17.2 5.8 24.1 C 172.4 191.8 184.3 182.5 191.8 169.6 z"></path>
		<path fill="#2c4de0" d="M 9.1 169.6 c 7.5 13 19.4 22.2 33 26.5 c 4.3 -6.9 6.3 -15.4 5.8 -24.1 c -7.2 -2.7 -13.4 -7.8 -17.4 -14.8 c -4 -7 -5.3 -14.9 -4.1 -22.5 c -7.3 -4.8 -15.6 -7.3 -23.8 -7 C -0.4 141.7 1.6 156.6 9.1 169.6 z"></path>
	</g>
</g>
 </g>
		<g id="svg-name" class="svg-element" style="cursor: pointer" transform="matrix(1,0,0,1,234.9,297.6)"><g transform="matrix(1,0,0,1,0,0)" fill="#2c4de0"><path d="M 47 7.2 L 47 5.5 L 47 5.5 Q 47 2.8 46 1.8 L 46 1.8 L 46 1.8 Q 45 0.8 42.3 0.8 L 42.3 0.8 L 30.3 0.8 L 30.3 -1.6 L 19.8 -1.6 L 19.8 0.8 L 3.2 0.8 L 3.2 7.2 L 11.8 7.2 L 11.8 5.1 L 36.9 5.1 L 36.9 5.1 Q 38.5 5 38.4 6.6 L 38.4 6.6 L 38.4 7.2 L 47 7.2 M 12.7 6.2 L 12.7 8.5 L 3.6 8.5 L 3.6 12.8 L 12.7 12.8 L 12.7 14.7 L 4.4 14.7 L 4.4 19 L 12.7 19 L 12.7 21 L 2.8 21 L 2.8 25.3 L 7.1 25.3 L 1.5 30.6 L 6.2 30.6 L 6.2 38.4 L 15.7 38.4 L 15.7 32.2 L 32.7 32.2 L 32.7 32.2 Q 34.9 32 34.7 34.1 L 34.7 34.1 L 34.7 38.6 L 44.2 38.6 L 44.2 30.6 L 48.2 30.6 L 43.1 25.3 L 47.2 25.3 L 47.2 21 L 37.4 21 L 37.4 19 L 45.4 19 L 45.4 14.7 L 37.4 14.7 L 37.4 12.8 L 46.6 12.8 L 46.6 8.5 L 37.4 8.5 L 37.4 6.2 L 28.1 6.2 L 28.1 8.5 L 22 8.5 L 22 6.2 L 12.7 6.2 M 28.1 14.7 L 22 14.7 L 22 12.8 L 28.1 12.8 L 28.1 14.7 M 28.1 21 L 22 21 L 22 19 L 28.1 19 L 28.1 21 M 48.7 45.6 L 30.1 37.3 L 30.1 33.3 L 19.7 33.3 L 19.7 37.1 L 1.4 45.6 L 17.3 45.6 L 24.8 42 L 33.4 45.6 L 48.7 45.6 M 16 27.9 L 18.9 25.3 L 31.5 25.3 L 34.2 27.9 L 16 27.9 Z M 63.1 45 L 63.1 18.3 L 65.3 18.3 L 65.3 14 L 63.1 14 L 63.1 -1.1 L 55 -1.1 L 55 14 L 52.5 14 L 52.5 18.3 L 55 18.3 L 55 45 L 63.1 45 M 72.2 42.7 L 80.4 42.7 L 74.6 36.4 L 66.5 36.4 L 72.2 42.7 M 86.1 -1.1 L 76.4 -1.1 L 76.4 0.9 L 65.7 0.9 L 65.7 5.3 L 76.5 5.3 L 76.5 6.7 L 66.1 6.7 L 66.1 28.2 L 74 28.2 L 74 25.9 L 76.4 25.9 L 76.4 28.2 L 86 28.2 L 86 25.9 L 88.7 25.9 L 88.7 27.9 L 96.4 27.9 L 96.4 12.2 L 96.4 12.2 Q 96.4 9 95.2 7.8 L 95.2 7.8 L 95.2 7.8 Q 94 6.7 90.9 6.7 L 90.9 6.7 L 86.1 6.7 L 86.1 5.3 L 89.8 5.3 L 89.8 0.9 L 86.1 0.9 L 86.1 -1.1 M 73.9 18.5 L 76.4 18.5 L 76.4 21.6 L 73.9 21.6 L 73.9 18.5 M 73.9 11.1 L 76.4 11.1 L 76.4 14.2 L 73.9 14.2 L 73.9 11.1 M 86 18.5 L 88.6 18.5 L 88.6 21.6 L 86 21.6 L 86 18.5 M 88.6 14.2 L 86 14.2 L 86 11.1 L 86.7 11.1 L 86.7 11.1 Q 88.7 10.9 88.6 12.9 L 88.6 12.9 L 88.6 14.2 M 97.7 5.8 L 96.5 -0.6 L 90.5 -0.6 L 91.6 5.8 L 97.7 5.8 M 83.9 40.7 L 81.8 40.7 L 81.8 45 L 93.3 45 L 93.3 35.2 L 96.4 35.2 L 96.4 30.9 L 93.3 30.9 L 93.3 29 L 83.9 29 L 83.9 30.9 L 64.8 30.9 L 64.8 35.2 L 83.9 35.2 L 83.9 40.7 Z M 121.9 17.3 L 148.1 17.3 L 148.1 12.8 L 140.2 12.8 L 140.2 5.8 L 147.1 5.8 L 147.1 1.5 L 140.2 1.5 L 140.2 -1.8 L 130.5 -1.8 L 130.5 1.5 L 123.2 1.5 L 123.2 5.8 L 130.5 5.8 L 130.5 12.8 L 121.9 12.8 L 121.9 17.3 M 121.9 27.5 L 136.4 27.5 L 136.4 41.2 L 133.8 41.2 L 133.8 45.6 L 146.2 45.6 L 146.2 27.5 L 148.1 27.5 L 148.1 23.2 L 146.2 23.2 L 146.2 18.8 L 136.4 18.8 L 136.4 23.2 L 121.9 23.2 L 121.9 27.5 M 121.6 31.3 L 119 31.3 L 119 11.3 L 121.6 11.3 L 121.6 6.9 L 119 6.9 L 119 -1.8 L 109.9 -1.8 L 109.9 6.9 L 108.7 6.9 L 109 0.6 L 103.2 0.6 L 101.9 27 L 107.6 27 L 108.4 11.3 L 109.9 11.3 L 109.9 31.3 L 102.5 31.3 L 102.5 35.6 L 109.9 35.6 L 109.9 45.6 L 119 45.6 L 119 35.6 L 121.6 35.6 L 121.6 31.3 M 123.7 30.2 L 125.3 39.8 L 134.2 39.8 L 132.4 30.2 L 123.7 30.2 Z M 162.4 12.3 L 162.4 6.3 L 185.4 6.3 L 185.4 6.3 Q 187.6 6.1 187.4 8.3 L 187.4 8.3 L 187.4 12.3 L 197.2 12.3 L 197.2 7.4 L 197.2 7.4 Q 197.2 4.3 196 3.1 L 196 3.1 L 196 3.1 Q 194.8 1.9 191.7 1.9 L 191.7 1.9 L 180.2 1.9 L 180.2 -1.2 L 169.8 -1.2 L 169.8 1.9 L 152.6 1.9 L 152.6 12.3 L 162.4 12.3 M 167.6 45.3 L 176 40.2 L 183.9 45.3 L 184 45.4 L 198.2 45.4 L 183.7 35.4 L 193.6 29.3 L 193.6 19.7 L 197.1 19.7 L 197.1 15.4 L 173.6 15.4 L 176 10.4 L 165.1 10.4 L 162.7 15.4 L 152.8 15.4 L 152.8 19.7 L 160.7 19.7 L 156.9 27.9 L 168.4 35.3 L 152.4 45.3 L 167.6 45.3 M 183.7 25.4 L 176.3 30 L 169.1 25.2 L 171.8 19.6 L 183.7 19.6 L 183.7 25.4 Z"></path></g></g>
			</g>
<defs id="SvgjsDefs1006"></defs><g id="svg-ghost" transform="matrix(1,0,0,1,0,0)"></g></svg>             

