<svg xmlns="http://www.w3.org/2000/svg" viewBox="0 0 245.9 226.2">
<style type="text/css">
	.st0{fill-rule:evenodd;clip-rule:evenodd;fill:#005BAC;}
</style>
<defs>
</defs>
<path class="st0" d="M74.1,68.8C85,63.3,90.4,50.7,90.4,38c0-21.7-16.3-38-36.2-38c-21.7,0-38,16.3-38,38c0,12.7,7.2,25.3,18.1,30.8
	C14.5,77.8,0,97.7,0,123c0,18.1,9,36.2,23.5,47c0,27.1,10.8,56.1,30.7,56.1s28.9-28.9,28.9-56.1c16.3-10.9,23.5-28.9,23.5-47
	C106.7,97.7,94,77.8,74.1,68.8L74.1,68.8z M27.1,38c0-16.3,10.8-27.1,27.1-27.1c14.5,0,27.1,10.9,27.1,27.1
	c0,14.5-12.7,27.1-27.1,27.1C38,65.1,27.1,52.5,27.1,38L27.1,38z M75.9,162.8c-1.8,1.8-1.8,1.8-1.8,1.8c0,3.6,0,3.6,0,3.6
	c0,23.5-7.2,47-19.9,47s-19.9-23.5-19.9-47c0-3.6,0-3.6,0-3.6c-3.6-1.8-3.6-1.8-3.6-1.8c-12.7-7.2-19.9-23.5-19.9-39.8
	c0-27.1,18.1-48.9,43.4-48.9c23.5,0,43.4,21.7,43.4,48.9C97.6,139.3,90.4,155.6,75.9,162.8 M211.6,45.2c1.8,0,5.4,1.8,5.4,5.4
	c0,1.8-3.6,3.6-5.4,3.6c0,0,0,0-86.8,0c-3.6,0-5.4-1.8-5.4-3.6c0-3.6,1.8-5.4,5.4-5.4C124.8,45.2,124.8,45.2,211.6,45.2 M226,16.3
	c10.8,0,19.9,9,19.9,19.9c0,0,0,0,0,95.9c0,10.9-9,19.9-19.9,19.9c0,0,0,0-7.2,0c0,0,0,0-1.8,0c0,0,0,0,0-10.9c0,0,0,0,1.8,0
	c0,0,0,0,7.2,0c5.4,0,10.8-3.6,10.8-9c0,0,0,0,0-95.9c0-5.4-5.4-10.9-10.8-10.9c0,0,0,0-23.5,0c0,0,0,0-88.6,0c0,0,0,0-5.4,0
	c-1.8,0-3.6-1.8-3.6-5.4c0-1.8,1.8-3.6,3.6-3.6c0,0,0,0,5.4,0c0,0,0,0,88.6,0C202.5,16.3,202.5,16.3,226,16.3 M211.6,70.6
	c1.8,0,5.4,1.8,5.4,5.4c0,1.8-3.6,5.4-5.4,5.4c0,0,0,0-86.8,0c-3.6,0-5.4-3.6-5.4-5.4c0-3.6,1.8-5.4,5.4-5.4
	C124.8,70.6,124.8,70.6,211.6,70.6 M124.8,141.1L124.8,141.1h5.4c0,0,0,0,38,0c0,0,0,0,0,10.9c0,0,0,0-38,0c0,0,0,0-5.4,0
	c-3.6,0-5.4-3.6-5.4-5.4C119.3,142.9,121.1,141.1,124.8,141.1L124.8,141.1z M197.1,132.1L197.1,132.1v9h9V152h-9v9h-10.8v-9h-9
	v-10.9h9v-9H197.1L197.1,132.1z"/>
</svg>
