<?xml version="1.0" encoding="utf-8"?>
<!-- Generator: Adobe Illustrator 22.1.0, SVG Export Plug-In . SVG Version: 6.00 Build 0)  -->
<svg version="1.1" id="图层_1" xmlns="http://www.w3.org/2000/svg" xmlns:xlink="http://www.w3.org/1999/xlink" x="0px" y="0px"
	 viewBox="0 0 32 32" style="enable-background:new 0 0 32 32;" xml:space="preserve">
<style type="text/css">
	.st0{fill:#1D50A1;}
</style>
<g>
	<rect x="5.3" y="0.3" class="st0" width="13.7" height="1.1"/>
	<g>
		<path class="st0" d="M5.3,31.7c-1.2,0-2.2-1-2.2-2.2h1.1c0,0.6,0.5,1.1,1.1,1.1V31.7z"/>
		<rect x="3.1" y="2.5" class="st0" width="1.1" height="26.9"/>
		<path class="st0" d="M25.6,31.7v-1.1c0.6,0,1.1-0.5,1.1-1.1h1.1C27.8,30.7,26.8,31.7,25.6,31.7z"/>
		<rect x="5.3" y="30.6" class="st0" width="20.4" height="1.1"/>
		<path class="st0" d="M20.6,10.4c-1.2,0-2.2-1-2.2-2.2h1.1c0,0.6,0.5,1.1,1.1,1.1V10.4z"/>
		<rect x="18.4" y="0.9" class="st0" width="1.1" height="7.3"/>
		<rect x="20.6" y="9.3" class="st0" width="6.7" height="1.1"/>
		<path class="st0" d="M5.3,0.3c-1.2,0-2.2,1-2.2,2.2h1.1c0-0.6,0.5-1.1,1.1-1.1V0.3z"/>
		<path class="st0" d="M27.3,10.4c-0.1,0-0.3-0.1-0.4-0.2l-8.3-8.9c-0.2-0.2-0.2-0.6,0-0.8c0.2-0.2,0.6-0.2,0.8,0l8.3,8.9
			c0.2,0.2,0.2,0.6,0,0.8C27.6,10.3,27.4,10.4,27.3,10.4z"/>
		<path class="st0" d="M22.9,14.8H8c-0.3,0-0.6-0.2-0.6-0.6c0-0.3,0.2-0.6,0.6-0.6h14.9c0.3,0,0.6,0.2,0.6,0.6
			C23.4,14.5,23.2,14.8,22.9,14.8z"/>
		<path class="st0" d="M22.9,19.2H8c-0.3,0-0.6-0.2-0.6-0.6c0-0.3,0.2-0.6,0.6-0.6h14.9c0.3,0,0.6,0.2,0.6,0.6
			C23.4,19,23.2,19.2,22.9,19.2z"/>
		<path class="st0" d="M22.9,23.6H8c-0.3,0-0.6-0.2-0.6-0.6c0-0.3,0.2-0.6,0.6-0.6h14.9c0.3,0,0.6,0.2,0.6,0.6
			C23.4,23.4,23.2,23.6,22.9,23.6z"/>
		<rect x="25.6" y="13.7" class="st0" width="3.3" height="1.1"/>
		<g>
			<rect x="26.7" y="9.8" class="st0" width="1.1" height="1.7"/>
			<rect x="26.7" y="17" class="st0" width="1.1" height="12.5"/>
			<rect x="26.7" y="12.6" class="st0" width="1.1" height="3.3"/>
		</g>
		<rect x="26.7" y="12.6" class="st0" width="1.1" height="3.3"/>
	</g>
</g>
</svg>
