<?xml version="1.0" encoding="utf-8"?>
<!-- Generator: Adobe Illustrator 22.1.0, SVG Export Plug-In . SVG Version: 6.00 Build 0)  -->
<svg version="1.1" id="图层_1" xmlns="http://www.w3.org/2000/svg" xmlns:xlink="http://www.w3.org/1999/xlink" x="0px" y="0px"
	 viewBox="0 0 32 32" style="enable-background:new 0 0 32 32;" xml:space="preserve">
<style type="text/css">
	.st0{fill:#005BAC;}
</style>
<g>
	<path class="st0" d="M29.7,20.5h-3.2v-3c0-1-0.8-1.8-1.8-1.8h-8v-4.1H20c1,0,1.8-0.8,1.8-1.8V9.1h-1.2v0.6c0,0.3-0.3,0.6-0.6,0.6
		h-8c-0.3,0-0.6-0.3-0.6-0.6V2.6C11.4,2.2,11.7,2,12,2h8c0.3,0,0.6,0.3,0.6,0.6V3h1.2V2.6c0-1-0.8-1.8-1.8-1.8h-8
		c-1,0-1.8,0.8-1.8,1.8v7.2c0,1,0.8,1.8,1.8,1.8h3.5v4.1H7.3c-1,0-1.8,0.8-1.8,1.8v3H2.3c-1,0-1.8,0.8-1.8,1.8v7.2
		c0,1,0.8,1.8,1.8,1.8h8c1,0,1.8-0.8,1.8-1.8v-7.2c0-1-0.8-1.8-1.8-1.8H6.7v-3c0-0.3,0.3-0.6,0.6-0.6h17.4c0.3,0,0.6,0.3,0.6,0.6v3
		h-3.6c-1,0-1.8,0.8-1.8,1.8v7.2c0,1,0.8,1.8,1.8,1.8h8c1,0,1.8-0.8,1.8-1.8v-7.2C31.5,21.3,30.7,20.5,29.7,20.5z M10.9,22.3v7.2
		c0,0.3-0.3,0.6-0.6,0.6h-8c-0.3,0-0.6-0.3-0.6-0.6v-7.2c0-0.3,0.3-0.6,0.6-0.6h8C10.6,21.7,10.9,21.9,10.9,22.3z M30.3,29.4
		c0,0.3-0.3,0.6-0.6,0.6h-8c-0.3,0-0.6-0.3-0.6-0.6v-7.2c0-0.3,0.3-0.6,0.6-0.6h8c0.3,0,0.6,0.3,0.6,0.6V29.4z"/>
	<polygon class="st0" points="20.6,4.2 20.6,5.4 19.4,5.4 19.4,6.6 20.6,6.6 20.6,7.8 21.8,7.8 21.8,6.6 23,6.6 23,5.4 21.8,5.4 
		21.8,4.2 	"/>
</g>
</svg>
