
                    <svg version="1.1" id="svg-draw" xmlns="http://www.w3.org/2000/svg" xlink="http://www.w3.org/1999/xlink" x="0px" y="0px" width="100%" height="100%" xml:space="preserve" svgjs="http://svgjs.com/svgjs" viewBox="0 0 670 500">
	<g id="svg-content">
		<g id="svg-logo" class="svg-element" style="cursor: pointer;" transform="matrix(0.8112747351919551,0,0,0.811571621658885,252.3678132219503,116.9125573786159)">
<g>
	<path fill="#64C0E8" d="M46.1,85.4c1.4-2.5,3.8-4.5,6.7-5.5c6.5-2.2,13.5,1.3,15.7,7.7c4.6,13.7,17.5,22.9,32,22.9
		s27.3-9.2,32-22.9c2.2-6.5,9.2-9.9,15.7-7.7c3,1,5.3,3,6.7,5.5c1.5,2.5,2,5.5,1.4,8.6c-1.3,6.7-7.8,11-14.5,9.7
		c-14.2-2.8-28.6,3.7-35.8,16.2c-7.2,12.5-5.7,28.3,3.9,39.2c4.5,5.1,4,12.9-1.1,17.4c-2.4,2.1-5.3,3.1-8.2,3.1
		c-2.9,0-5.8-1-8.2-3.1c-5.1-4.5-5.6-12.3-1.1-17.4c9.6-10.9,11.1-26.6,3.9-39.2c-7.2-12.5-21.6-19.1-35.8-16.2
		c-6.7,1.3-13.2-3-14.5-9.7C44,91,44.6,88,46.1,85.4z"></path>
	<circle fill="#24B3E8" cx="100.4" cy="73.7" r="21.5"></circle>
	<ellipse transform="matrix(0.5 -0.866 0.866 0.5 -50.9618 188.5313)" fill="#24B3E8" cx="137.8" cy="138.4" rx="21.5" ry="21.5"></ellipse>
	<ellipse transform="matrix(0.866 -0.5 0.5 0.866 -60.7506 50.0926)" fill="#24B3E8" cx="63.1" cy="138.4" rx="21.5" ry="21.5"></ellipse>
	<path fill="#2CA6E0" d="M100.4,110.6c-8,0-15.6-2.8-21.5-7.7c-0.5,0.2-1,0.5-1.4,0.7c0,0.5,0,1.1,0.1,1.6C84.8,107.9,91,113,95,120
		c4,7,5.3,14.9,4.1,22.5c0.4,0.3,0.9,0.6,1.4,0.9c0.5-0.3,0.9-0.6,1.4-0.9c-1.3-7.6,0-15.5,4.1-22.5c4-7,10.3-12.1,17.4-14.8
		c0-0.5,0.1-1.1,0.1-1.6c-0.5-0.3-0.9-0.5-1.4-0.7C116,107.7,108.5,110.6,100.4,110.6z"></path>
	<g>
		<path fill="#BDD762" d="M100.4,36.1c-14.5,0-27.3,9.2-32,22.9c-2.2,6.5-9.2,9.9-15.7,7.7c-6.5-2.2-9.9-9.2-7.7-15.7
			c8-23.8,30.3-39.7,55.4-39.7c25.1,0,47.3,16,55.4,39.7c2.2,6.5-1.3,13.5-7.7,15.7c-6.5,2.2-13.5-1.3-15.7-7.7
			C127.8,45.3,114.9,36.1,100.4,36.1z"></path>
		<path fill="#BDD762" d="M170.4,157.2c7.2-12.5,5.7-28.3-3.9-39.2c-4.5-5.1-4-12.9,1.1-17.4c5.1-4.5,12.9-4,17.4,1.1
			c16.6,18.8,19.3,46.1,6.7,67.8c-12.5,21.7-37.5,33-62.1,28.1c-6.7-1.3-11-7.8-9.7-14.5c1.3-6.7,7.8-11,14.5-9.7
			C148.7,176.3,163.1,169.8,170.4,157.2z"></path>
		<path fill="#BDD762" d="M30.5,157.2c7.2,12.5,21.6,19.1,35.8,16.2c6.7-1.3,13.2,3,14.5,9.7c1.3,6.7-3,13.2-9.7,14.5
			c-24.6,4.9-49.5-6.4-62.1-28.1c-12.5-21.7-9.8-49,6.7-67.8c4.5-5.1,12.3-5.6,17.4-1.1c5.1,4.5,5.6,12.3,1.1,17.4
			C24.8,128.9,23.3,144.7,30.5,157.2z"></path>
		<path fill="#8DC21F" d="M100.4,11.4c-15,0-28.9,5.7-39.5,15.3c3.9,7.2,10.2,13.2,18,17.1c5.9-4.9,13.4-7.7,21.5-7.7
			c8,0,15.6,2.8,21.5,7.7c7.8-3.9,14.1-9.9,18-17.1C129.4,17.1,115.4,11.4,100.4,11.4z"></path>
		<path fill="#8DC21F" d="M191.8,169.6c7.5-13,9.5-27.9,6.5-41.8c-8.2-0.3-16.5,2.2-23.8,7c1.3,7.6,0,15.5-4.1,22.5
			c-4,7-10.3,12.1-17.4,14.8c-0.5,8.7,1.5,17.2,5.8,24.1C172.4,191.8,184.3,182.5,191.8,169.6z"></path>
		<path fill="#8DC21F" d="M9.1,169.6c7.5,13,19.4,22.2,33,26.5c4.3-6.9,6.3-15.4,5.8-24.1c-7.2-2.7-13.4-7.8-17.4-14.8
			c-4-7-5.3-14.9-4.1-22.5c-7.3-4.8-15.6-7.3-23.8-7C-0.4,141.7,1.6,156.6,9.1,169.6z"></path>
	</g>
</g>
 </g>
		<g id="svg-name" class="svg-element" style="cursor: pointer;" transform="matrix(1,0,0,1,234.87167358398438,297.6499938964844)"><g transform="matrix(1,0,0,1,0,0)" fill="#000"><path d="M46.97 7.19L46.97 5.53L46.97 5.53Q47.02 2.84 46.00 1.82L46.00 1.82L46.00 1.82Q44.97 0.79 42.29 0.84L42.29 0.84L30.27 0.84L30.27-1.60L19.82-1.60L19.82 0.84L3.22 0.84L3.22 7.19L11.82 7.19L11.82 5.14L36.91 5.14L36.91 5.14Q38.53 4.99 38.38 6.60L38.38 6.60L38.38 7.19L46.97 7.19M12.70 6.21L12.70 8.46L3.61 8.46L3.61 12.75L12.70 12.75L12.70 14.71L4.39 14.71L4.39 19.00L12.70 19.00L12.70 20.96L2.83 20.96L2.83 25.25L7.13 25.25L1.46 30.63L6.15 30.63L6.15 38.44L15.72 38.44L15.72 32.19L32.71 32.19L32.71 32.19Q34.86 31.99 34.67 34.14L34.67 34.14L34.67 38.63L44.24 38.63L44.24 30.63L48.24 30.63L43.07 25.25L47.17 25.25L47.17 20.96L37.40 20.96L37.40 19.00L45.41 19.00L45.41 14.71L37.40 14.71L37.40 12.75L46.58 12.75L46.58 8.46L37.40 8.46L37.40 6.21L28.13 6.21L28.13 8.46L21.97 8.46L21.97 6.21L12.70 6.21M28.13 14.71L21.97 14.71L21.97 12.75L28.13 12.75L28.13 14.71M28.13 20.96L21.97 20.96L21.97 19.00L28.13 19.00L28.13 20.96M48.73 45.57L30.08 37.27L30.08 33.26L19.73 33.26L19.73 37.07L1.37 45.57L17.29 45.57L24.80 42.05L33.40 45.57L48.73 45.57M16.02 27.89L18.85 25.25L31.54 25.25L34.18 27.89L16.02 27.89ZM63.09 44.98L63.09 18.32L65.33 18.32L65.33 14.02L63.09 14.02L63.09-1.11L54.98-1.11L54.98 14.02L52.54 14.02L52.54 18.32L54.98 18.32L54.98 44.98L63.09 44.98M72.17 42.73L80.37 42.73L74.61 36.39L66.50 36.39L72.17 42.73M86.13-1.11L76.37-1.11L76.37 0.94L65.72 0.94L65.72 5.33L76.46 5.33L76.46 6.70L66.11 6.70L66.11 28.18L74.02 28.18L74.02 25.94L76.37 25.94L76.37 28.18L86.04 28.18L86.04 25.94L88.67 25.94L88.67 27.89L96.39 27.89L96.39 12.17L96.39 12.17Q96.44 9.04 95.24 7.85L95.24 7.85L95.24 7.85Q94.04 6.65 90.92 6.70L90.92 6.70L86.13 6.70L86.13 5.33L89.84 5.33L89.84 0.94L86.13 0.94L86.13-1.11M73.93 18.52L76.37 18.52L76.37 21.64L73.93 21.64L73.93 18.52M73.93 11.09L76.37 11.09L76.37 14.22L73.93 14.22L73.93 11.09M86.04 18.52L88.57 18.52L88.57 21.64L86.04 21.64L86.04 18.52M88.57 14.22L86.04 14.22L86.04 11.09L86.72 11.09L86.72 11.09Q88.72 10.95 88.57 12.95L88.57 12.95L88.57 14.22M97.66 5.82L96.48-0.63L90.53-0.63L91.60 5.82L97.66 5.82M83.89 40.68L81.84 40.68L81.84 44.98L93.26 44.98L93.26 35.21L96.39 35.21L96.39 30.92L93.26 30.92L93.26 28.96L83.89 28.96L83.89 30.92L64.75 30.92L64.75 35.21L83.89 35.21L83.89 40.68ZM121.88 17.25L148.05 17.25L148.05 12.85L140.23 12.85L140.23 5.82L147.07 5.82L147.07 1.52L140.23 1.52L140.23-1.80L130.47-1.80L130.47 1.52L123.24 1.52L123.24 5.82L130.47 5.82L130.47 12.85L121.88 12.85L121.88 17.25M121.88 27.50L136.43 27.50L136.43 41.17L133.79 41.17L133.79 45.57L146.19 45.57L146.19 27.50L148.05 27.50L148.05 23.20L146.19 23.20L146.19 18.81L136.43 18.81L136.43 23.20L121.88 23.20L121.88 27.50M121.58 31.31L119.04 31.31L119.04 11.29L121.58 11.29L121.58 6.89L119.04 6.89L119.04-1.80L109.86-1.80L109.86 6.89L108.69 6.89L108.98 0.64L103.22 0.64L101.86 27.01L107.62 27.01L108.40 11.29L109.86 11.29L109.86 31.31L102.54 31.31L102.54 35.61L109.86 35.61L109.86 45.57L119.04 45.57L119.04 35.61L121.58 35.61L121.58 31.31M123.73 30.23L125.29 39.80L134.18 39.80L132.42 30.23L123.73 30.23ZM162.40 12.27L162.40 6.31L185.45 6.31L185.45 6.31Q187.60 6.11 187.40 8.26L187.40 8.26L187.40 12.27L197.17 12.27L197.17 7.38L197.17 7.38Q197.22 4.26 196.02 3.06L196.02 3.06L196.02 3.06Q194.82 1.87 191.70 1.91L191.70 1.91L180.18 1.91L180.18-1.21L169.82-1.21L169.82 1.91L152.64 1.91L152.64 12.27L162.40 12.27M167.58 45.27L175.98 40.20L183.89 45.27L183.98 45.37L198.24 45.37L183.69 35.41L193.55 29.26L193.55 19.69L197.07 19.69L197.07 15.39L173.63 15.39L175.98 10.41L165.14 10.41L162.70 15.39L152.83 15.39L152.83 19.69L160.74 19.69L156.93 27.89L168.36 35.31L152.44 45.27L167.58 45.27M183.69 25.35L176.27 30.04L169.14 25.16L171.78 19.59L183.69 19.59L183.69 25.35Z"></path></g></g>
		<g id="svg-slogan" class="svg-element" style="cursor: pointer;" transform="matrix(1,0,0,1,197.33499145507812,335.5249938964844)"><g transform="matrix(1,0,0,1,0,0)" fill="#888"><path d="M7.57 9.20L2.83 9.20L0.44 20.58L1.76 20.58L1.76 32.78L6.64 32.78L6.64 17.94L5.81 17.94L7.57 9.20M7.91 10.42L7.91 12.57L13.28 12.57L13.28 14.23L8.54 14.23L8.54 30.59L7.47 30.59L7.47 32.78L23.78 32.78L23.78 30.59L22.80 30.59L22.80 16.96L22.80 16.96Q22.83 15.40 22.23 14.80L22.23 14.80L22.23 14.80Q21.63 14.20 20.07 14.23L20.07 14.23L18.16 14.23L18.16 12.57L23.44 12.57L23.44 10.42L18.16 10.42L18.16 9.20L13.28 9.20L13.28 10.42L7.91 10.42M17.92 18.33L13.43 18.33L13.43 16.38L16.94 16.38L16.94 16.38Q18.02 16.28 17.92 17.35L17.92 17.35L17.92 18.33M17.92 22.33L13.43 22.33L13.43 20.48L17.92 20.48L17.92 22.33M17.92 26.44L13.43 26.44L13.43 24.53L17.92 24.53L17.92 26.44M13.43 28.63L17.92 28.63L17.92 30.59L13.43 30.59L13.43 28.63ZM40.14 31.32L37.89 26.88L33.54 26.88L35.79 31.32L40.14 31.32M29.79 15.55L32.37 9.54L28.47 9.54L25.88 15.55L29.79 15.55M49.12 26.19L49.12 23.99L47.07 23.99L47.07 22.72L48.58 22.72L48.58 20.53L32.91 20.53L32.91 22.72L42.14 22.72L42.14 23.99L31.93 23.99L31.93 26.19L42.14 26.19L42.14 30.49L40.97 30.49L40.97 32.59L47.07 32.59L47.07 26.19L49.12 26.19M48.44 19.75L48.44 12.67L48.44 12.67Q48.46 11.10 47.86 10.51L47.86 10.51L47.86 10.51Q47.27 9.91 45.70 9.93L45.70 9.93L32.91 9.93L32.91 19.75L48.44 19.75M43.65 13.79L37.79 13.79L37.79 12.08L42.68 12.08L42.68 12.08Q43.75 11.98 43.65 13.06L43.65 13.06L43.65 13.79M43.65 17.55L37.79 17.55L37.79 15.94L43.65 15.94L43.65 17.55M26.90 23.95L26.90 32.59L31.54 32.59L31.54 21.70L30.27 21.70L31.88 16.18L28.22 16.18L25.78 23.95L26.90 23.95ZM73.39 32.69L73.39 26.83L73.39 26.83Q73.41 25.26 72.81 24.67L72.81 24.67L72.81 24.67Q72.22 24.07 70.65 24.09L70.65 24.09L57.67 24.09L57.67 32.69L73.39 32.69M68.51 30.54L62.55 30.54L62.55 26.29L67.53 26.29L67.53 26.29Q68.60 26.19 68.51 27.27L68.51 27.27L68.51 30.54M57.03 13.01L74.27 13.01L74.27 10.86L68.12 10.86L68.12 9.10L63.23 9.10L63.23 10.86L57.03 10.86L57.03 13.01M58.25 15.21L58.25 17.40L72.90 17.40L72.90 15.21L58.25 15.21M58.25 19.70L58.25 21.85L72.90 21.85L72.90 19.70L58.25 19.70M52.39 9.20L50.29 20.58L51.27 20.58L51.27 32.78L56.15 32.78L56.15 17.94L55.57 17.94L57.03 9.20L52.39 9.20ZM84.08 32.83L84.08 24.38L87.35 24.38L87.35 17.30L87.35 17.30Q87.38 15.89 86.83 15.34L86.83 15.34L86.83 15.34Q86.28 14.79 84.86 14.81L84.86 14.81L83.98 14.81L83.98 12.52L87.74 12.52L87.74 10.37L83.98 10.37L83.98 9.20L79.83 9.20L79.83 10.37L75.93 10.37L75.93 12.52L79.83 12.52L79.83 14.81L76.42 14.81L76.42 24.38L79.83 24.38L79.83 32.83L84.08 32.83M91.46 27.46L91.46 17.55L94.58 17.55L94.58 17.55Q95.65 17.45 95.56 18.53L95.56 18.53L95.56 27.46L98.88 27.46L98.88 16.28L98.88 16.28Q98.95 15.33 98.00 15.40L98.00 15.40L97.71 15.40L98.14 12.86L98.14 12.86Q98.41 11.30 97.94 10.73L97.94 10.73L97.94 10.73Q97.46 10.15 95.90 10.18L95.90 10.18L92.68 10.18L92.87 9.20L89.11 9.20L87.40 17.06L88.04 17.06L88.04 27.46L91.46 27.46M84.28 25.51L84.96 32.20L88.13 32.20L87.40 25.51L84.28 25.51M76.51 25.51L75.73 32.20L78.86 32.20L79.64 25.51L76.51 25.51M91.75 15.40L92.33 12.32L93.46 12.32L93.46 12.32Q94.53 12.20 94.24 13.25L94.24 13.25L93.90 15.40L91.75 15.40M79.59 22.24L79.59 16.96L80.32 16.96L80.32 22.24L79.59 22.24M84.28 17.55L84.28 22.24L83.50 22.24L83.50 16.96L83.69 16.96L83.69 16.96Q84.30 16.94 84.28 17.55L84.28 17.55M94.92 19.55L92.04 19.55L92.04 26.78L87.99 32.93L92.19 32.93L93.55 30.88L95.36 32.93L99.61 32.93L94.92 26.78L94.92 19.55ZM118.36 26.92L116.75 18.87L112.94 18.87L114.50 26.92L118.36 26.92M123.19 32.59L123.49 13.64L123.49 13.64Q123.51 12.08 122.94 11.51L122.94 11.51L122.94 11.51Q122.36 10.93 120.80 10.96L120.80 10.96L118.02 10.96L118.36 9.54L113.87 9.54L112.26 17.45L116.75 17.45L117.63 13.15L118.16 13.15L118.16 13.15Q119.21 13.03 119.09 14.08L119.09 14.08L118.85 30.34L117.24 30.34L117.24 32.59L123.19 32.59M109.38 11.40L108.20 11.40L109.03 9.49L104.79 9.49L103.96 11.40L101.56 11.40L101.56 32.44L112.11 32.44L112.11 14.13L112.11 14.13Q112.13 12.57 111.54 11.97L111.54 11.97L111.54 11.97Q110.94 11.37 109.38 11.40L109.38 11.40M105.91 22.82L107.76 22.82L107.76 30.29L105.91 30.29L105.91 22.82M107.71 20.67L105.86 20.67L105.86 13.64L106.74 13.64L106.74 13.64Q107.81 13.54 107.71 14.62L107.71 14.62L107.71 20.67ZM135.40 21.65L137.40 14.18L134.42 14.18L133.89 16.23L133.30 14.18L130.52 14.18L130.52 11.79L143.51 11.79L143.51 11.79Q144.58 11.69 144.48 12.76L144.48 12.76L144.48 28.88L142.48 21.65L144.48 14.18L141.50 14.18L140.97 16.23L140.38 14.18L137.45 14.18L139.50 21.55L137.45 29.12L135.40 21.65M134.62 29.41L137.55 29.41L140.38 29.41L141.02 27.02L141.70 29.41L144.48 29.41L144.48 30.59L142.82 30.59L142.82 32.78L148.49 32.78L148.49 12.37L148.49 12.37Q148.51 10.81 147.91 10.21L147.91 10.21L147.91 10.21Q147.31 9.61 145.75 9.64L145.75 9.64L126.51 9.64L126.51 32.78L130.52 32.78L130.52 29.41L133.30 29.41L133.94 27.02L134.62 29.41M132.42 21.55L130.52 28.68L130.52 14.72L132.42 21.55ZM173.63 32.64L173.63 25.70L173.63 25.70Q173.66 24.14 173.06 23.54L173.06 23.54L173.06 23.54Q172.46 22.94 170.90 22.97L170.90 22.97L160.11 22.97L160.11 32.64L173.63 32.64M164.60 25.12L168.16 25.12L168.16 25.12Q169.24 25.02 169.14 26.09L169.14 26.09L169.14 30.49L164.60 30.49L164.60 25.12M168.95 22.24L174.61 22.24L170.70 17.99L173.39 15.40L173.39 12.76L173.39 12.76Q173.41 11.20 172.81 10.60L172.81 10.60L172.81 10.60Q172.22 10.00 170.65 10.03L170.65 10.03L165.92 10.03L166.16 9.20L161.52 9.20L159.08 17.21L163.62 17.21L163.82 16.57L164.60 17.50L159.28 22.24L165.38 22.24L167.43 20.63L168.95 22.24M167.24 14.13L164.60 14.13L165.23 12.18L168.41 12.18L168.41 12.18Q169.12 12.13 169.09 12.96L169.09 12.96L169.09 13.64L167.87 14.77L167.24 14.13M158.98 29.80L151.12 29.80L151.12 31.95L158.98 31.95L158.98 29.80M153.61 19.79L151.56 27.41L158.98 27.41L158.98 25.17L156.93 25.17L158.98 16.38L156.15 16.38L158.06 9.44L153.37 9.44L150.54 19.79L153.61 19.79ZM181.20 16.13L181.20 13.15L192.72 13.15L192.72 13.15Q193.80 13.06 193.70 14.13L193.70 14.13L193.70 16.13L198.58 16.13L198.58 13.69L198.58 13.69Q198.61 12.13 198.01 11.53L198.01 11.53L198.01 11.53Q197.41 10.93 195.85 10.96L195.85 10.96L190.09 10.96L190.09 9.39L184.91 9.39L184.91 10.96L176.32 10.96L176.32 16.13L181.20 16.13M183.79 32.64L187.99 30.10L191.94 32.64L191.99 32.69L199.12 32.69L191.85 27.71L196.78 24.63L196.78 19.84L198.54 19.84L198.54 17.70L186.82 17.70L187.99 15.21L182.57 15.21L181.35 17.70L176.42 17.70L176.42 19.84L180.37 19.84L178.47 23.95L184.18 27.66L176.22 32.64L183.79 32.64M191.85 22.68L188.13 25.02L184.57 22.58L185.89 19.79L191.85 19.79L191.85 22.68ZM214.89 19.99L221.58 19.99L221.58 17.84L203.32 17.84L203.32 19.99L210.11 19.99L210.11 23.90L202.25 23.90L202.25 26.04L210.11 26.04L210.11 30.54L201.32 30.54L201.32 32.69L223.68 32.69L223.68 30.54L214.89 30.54L214.89 26.04L222.80 26.04L222.80 23.90L214.89 23.90L214.89 19.99M224.76 17.01L214.84 9.30L210.21 9.30L200.68 17.01L207.13 17.01L212.50 12.71L218.26 17.01L224.76 17.01ZM236.33 13.25L248.00 13.25L248.00 11.05L237.21 11.05L237.84 9.20L232.57 9.20L231.88 11.05L226.81 11.05L226.81 13.25L231.15 13.25L229.93 16.52L226.27 16.52L226.27 18.67L229.10 18.67L226.90 24.24L241.36 24.24L236.82 29.12L226.81 27.36L226.81 29.51L246.44 32.83L246.44 30.78L242.43 30.05L247.51 24.48L247.51 23.85L247.51 23.85Q247.66 21.94 245.75 22.09L245.75 22.09L233.06 22.09L234.38 18.67L248.73 18.67L248.73 16.52L235.11 16.52L236.33 13.25ZM255.96 16.72L255.96 12.52L268.07 12.52L268.07 12.52Q269.14 12.42 269.04 13.50L269.04 13.50L269.04 16.72L273.58 16.72L273.58 13.11L273.58 13.11Q273.61 11.54 273.01 10.94L273.01 10.94L273.01 10.94Q272.41 10.35 270.85 10.37L270.85 10.37L265.14 10.37L265.14 9.05L259.91 9.05L259.91 10.37L251.42 10.37L251.42 16.72L255.96 16.72M266.46 32.73L266.46 20.43L264.70 17.50L266.55 16.67L268.51 16.67L268.51 14.52L256.45 14.52L256.45 16.67L259.77 16.67L251.90 19.79L251.90 22.92L260.25 19.84L260.84 20.82L251.61 24.63L251.61 27.71L261.57 23.80L261.57 25.26L251.27 29.27L251.27 32.49L261.57 28.54L261.57 30.59L259.96 30.59L259.96 32.73L266.46 32.73M270.02 18.18L266.11 18.18L269.92 32.64L273.93 32.64L271.97 24.92L274.41 18.57L271.24 18.57L270.56 20.28L270.02 18.18Z"></path></g></g>
		<g id="svg-atext" class="svg-element" style="cursor: pointer;" transform="matrix(1,0,0,1,334.5,249.5)"></g>
	</g>
<defs id="SvgjsDefs1006"></defs><g id="svg-ghost" transform="matrix(1,0,0,1,0,0)"></g></svg>             

