<?xml version="1.0" encoding="utf-8"?>
<!-- Generator: Adobe Illustrator 22.1.0, SVG Export Plug-In . SVG Version: 6.00 Build 0)  -->
<svg version="1.1" id="图层_1" xmlns="http://www.w3.org/2000/svg" xmlns:xlink="http://www.w3.org/1999/xlink" x="0px" y="0px"
	 viewBox="0 0 32 32" style="enable-background:new 0 0 32 32;" xml:space="preserve">
<style type="text/css">
	.st0{fill:#1D50A1;}
</style>
<g>
	<path class="st0" d="M30.7,20.7V6.8c0-0.3,0.3-0.6,0.6-0.6c0.3,0,0.6,0.3,0.6,0.6v13.9"/>
	<polyline class="st0" points="0.2,20.7 0.2,6.8 1.3,6.8 1.3,20.7 	"/>
	<g>
		<path class="st0" d="M1.3,6.8H0.2C0.2,4.7,1.8,3,3.9,3v1.2C2.5,4.2,1.3,5.4,1.3,6.8z"/>
	</g>
	<g>
		<path class="st0" d="M31.8,6.8h-1.2c0-1.4-1.2-2.6-2.6-2.6V3C30.2,3,31.8,4.7,31.8,6.8z"/>
	</g>
	<g>
		<path class="st0" d="M28.1,24.5v-1.2c1.4,0,2.6-1.2,2.6-2.6h1.2C31.8,22.8,30.2,24.5,28.1,24.5z"/>
	</g>
	<g>
		<path class="st0" d="M3.9,24.5c-2.1,0-3.8-1.7-3.8-3.8h1.2c0,1.4,1.2,2.6,2.6,2.6V24.5z"/>
	</g>
	<g>
		<rect x="3.9" y="3" class="st0" width="2" height="1.2"/>
		<rect x="11.7" y="3" class="st0" width="16.5" height="1.2"/>
	</g>
	<polygon class="st0" points="10.6,3.1 9.4,3.1 9.4,1.9 8.3,1.9 8.3,3.1 7.1,3.1 7.1,4.2 8.3,4.2 8.3,5.4 9.4,5.4 9.4,4.2 10.6,4.2 
			"/>
	<g>
		<path class="st0" d="M14.4,16.9H5c-0.3,0-0.6-0.3-0.6-0.6c0-0.3,0.3-0.6,0.6-0.6h9.4c0.3,0,0.6,0.3,0.6,0.6
			C15,16.6,14.7,16.9,14.4,16.9z"/>
	</g>
	<g>
		<path class="st0" d="M11.2,20.1H5c-0.3,0-0.6-0.3-0.6-0.6c0-0.3,0.3-0.6,0.6-0.6h6.2c0.3,0,0.6,0.3,0.6,0.6
			C11.8,19.8,11.6,20.1,11.2,20.1z"/>
	</g>
	<g>
		<path class="st0" d="M31.3,9.6H0.7C0.4,9.6,0.2,9.3,0.2,9c0-0.3,0.3-0.6,0.6-0.6h30.5c0.3,0,0.6,0.3,0.6,0.6
			C31.8,9.3,31.6,9.6,31.3,9.6z"/>
	</g>
	<g>
		<path class="st0" d="M31.3,13H0.7c-0.3,0-0.6-0.3-0.6-0.6s0.3-0.6,0.6-0.6h30.5c0.3,0,0.6,0.3,0.6,0.6S31.6,13,31.3,13z"/>
	</g>
	<g>
		<g>
			<g>
				<g>
					<path class="st0" d="M22.3,30.1c-0.1,0-0.1,0-0.2,0c-0.6-0.2-3.8-1.7-4.5-3.9c-0.3-1.1-0.7-4.5-0.8-5.6c0-0.5,0.3-1,0.8-1.2
						c0.3-0.1,0.7-0.2,1.1-0.3c0.4-0.1,0.7-0.2,1.1-0.3c0.4-0.2,0.8-0.4,1.1-0.5c0.6-0.3,1-0.5,1.4-0.5c0.4,0,0.8,0.2,1.3,0.5
						c0.3,0.2,0.7,0.4,1.1,0.6c0.3,0.1,0.7,0.2,1.1,0.3c0.4,0.1,0.8,0.2,1.1,0.3c0.4,0.2,0.8,0.8,0.8,1.2c0,1.2-0.5,4.6-0.8,5.6
						c-0.7,2.3-3.5,3.7-4.4,3.9C22.4,30.1,22.4,30.1,22.3,30.1z M22.3,18.8c-0.1,0-0.5,0.2-0.8,0.4c-0.4,0.2-0.8,0.4-1.2,0.6
						c-0.4,0.2-0.8,0.3-1.2,0.4c-0.4,0.1-0.7,0.2-0.9,0.3c-0.1,0-0.1,0.1-0.1,0.2c0,1.1,0.4,4.3,0.7,5.3c0.5,1.6,2.9,2.9,3.6,3.1
						c0.7-0.2,3-1.4,3.6-3.1c0.3-0.8,0.7-4.1,0.7-5.3c0-0.1-0.1-0.2-0.1-0.2c-0.2-0.1-0.5-0.2-0.9-0.2c-0.4-0.1-0.8-0.2-1.2-0.4
						c-0.5-0.2-0.9-0.4-1.2-0.6C22.8,19,22.4,18.8,22.3,18.8z"/>
				</g>
			</g>
		</g>
	</g>
	<g>
		<g>
			<g>
				<g>
					<path class="st0" d="M22.3,30.1c-0.1,0-0.1,0-0.2,0c-0.6-0.2-3.8-1.7-4.5-3.9c-0.3-1.1-0.7-4.5-0.8-5.6c0-0.5,0.3-1,0.8-1.2
						c0.3-0.1,0.7-0.2,1.1-0.3c0.4-0.1,0.7-0.2,1.1-0.3c0.4-0.2,0.8-0.4,1.1-0.5c0.6-0.3,1-0.5,1.4-0.5c0.4,0,0.8,0.2,1.3,0.5
						c0.3,0.2,0.7,0.4,1.1,0.6c0.3,0.1,0.7,0.2,1.1,0.3c0.4,0.1,0.8,0.2,1.1,0.3c0.4,0.2,0.8,0.8,0.8,1.2c0,1.2-0.5,4.6-0.8,5.6
						c-0.7,2.3-3.5,3.7-4.4,3.9C22.4,30.1,22.4,30.1,22.3,30.1z M22.3,18.8c-0.1,0-0.5,0.2-0.8,0.4c-0.4,0.2-0.8,0.4-1.2,0.6
						c-0.4,0.2-0.8,0.3-1.2,0.4c-0.4,0.1-0.7,0.2-0.9,0.3c-0.1,0-0.1,0.1-0.1,0.2c0,1.1,0.4,4.3,0.7,5.3c0.5,1.6,2.9,2.9,3.6,3.1
						c0.7-0.2,3-1.4,3.6-3.1c0.3-0.8,0.7-4.1,0.7-5.3c0-0.1-0.1-0.2-0.1-0.2c-0.2-0.1-0.5-0.2-0.9-0.2c-0.4-0.1-0.8-0.2-1.2-0.4
						c-0.5-0.2-0.9-0.4-1.2-0.6C22.8,19,22.4,18.8,22.3,18.8z"/>
				</g>
			</g>
		</g>
	</g>
	<g>
		<rect x="3.9" y="23.3" class="st0" width="13.8" height="1.2"/>
		<polygon class="st0" points="26.6,23.3 26.2,24.5 28.2,24.5 28.2,23.3 		"/>
	</g>
</g>
</svg>
