<?xml version="1.0" encoding="utf-8"?>
<!-- Generator: Adobe Illustrator 22.1.0, SVG Export Plug-In . SVG Version: 6.00 Build 0)  -->
<svg version="1.1" id="图层_1" xmlns="http://www.w3.org/2000/svg" xmlns:xlink="http://www.w3.org/1999/xlink" x="0px" y="0px"
	 viewBox="0 0 32 32" style="enable-background:new 0 0 32 32;" xml:space="preserve">
<style type="text/css">
	.st0{fill-rule:evenodd;clip-rule:evenodd;fill:#005BAC;}
</style>
<g>
	<path class="st0" d="M25.9,21.4c-1.6,4.7-7.3,8-9.8,8.9c0-2.9,0-2.9,0-2.9c0-0.2-0.2-0.4-0.4-0.4c-0.4,0-0.7,0.2-0.7,0.4
		c0,2.7,0,2.7,0,2.7c-2.2-0.9-8.4-4.2-9.8-8.7C4.6,18.8,3.5,10.1,3.5,7.2c0-0.4,0.2-1.1,0.7-1.3c0.7-0.2,1.8-0.4,2.7-0.7
		C7.9,4.8,9,4.6,9.9,4.1C11,3.7,12.1,3.2,13,2.8c0.7-0.4,1.6-0.9,2-1.1c0,2.9,0,2.9,0,2.9c0,0.4,0.2,0.7,0.7,0.7
		c0.2,0,0.4-0.2,0.4-0.7c0-2.9,0-2.9,0-2.9c0.7,0.2,1.3,0.7,2,1.1c1.1,0.4,2.2,1.1,3.3,1.6c0.9,0.4,2,0.7,3.1,0.9
		c0.9,0.2,1.8,0.4,2.4,0.7c0.4,0.2,0.9,0.9,0.9,1.3s0,1.1-0.2,1.8C29,9.2,29,9.2,29,9.2c0-0.9,0-1.6,0-2c0-0.9-0.7-2-1.6-2.4
		c-0.7-0.2-1.6-0.4-2.7-0.7c-0.9-0.2-2-0.4-2.9-0.9c-1.1-0.4-2.2-1.1-3.1-1.6c-1.3-0.7-2.4-1.3-3.1-1.3c-0.9,0-1.8,0.7-3.1,1.3
		c-1.1,0.4-2,0.9-3.1,1.6c-0.9,0.2-2,0.4-2.9,0.7c-1.1,0.4-2,0.7-2.9,0.9C2.8,5.2,2.1,6.3,2.1,7.2c0.2,2.9,1.1,11.8,2,14.7
		c1.8,5.3,9.8,9.3,11.1,9.8c0.2,0,0.2,0,0.4,0l0,0l0,0l0,0h0.2c2-0.7,9.3-4.2,11.1-9.8c0.4-1.3,0.9-4,1.3-6.9
		c-1.1-0.2-1.1-0.2-1.1-0.2C26.8,17.7,26.3,20.3,25.9,21.4L25.9,21.4z"/>
	<polygon class="st0" points="28.8,11.4 28.8,10.3 27.7,10 27.5,11.4 26.4,11.2 26.4,12.4 27.5,12.6 27.2,13.8 28.6,14 28.6,12.6 
		29.7,12.8 29.9,11.7 28.8,11.4 28.8,11.4 	"/>
	<path class="st0" d="M10.9,13.5c0,0.6,0,0.6,0,0.6c0,5.8,0,5.8,0,5.8c0,0.2,0.5,0.6,0.7,0.6c7.9,0,7.9,0,7.9,0
		c0.5,0,0.7-0.4,0.7-0.6c0-5.8,0-5.8,0-5.8c0-0.6,0-0.6,0-0.6c0-2.4-2-4.3-4.5-4.3S10.9,11.1,10.9,13.5L10.9,13.5z M19.1,19.3
		c-6.8,0-6.8,0-6.8,0c0-4.8,0-4.8,0-4.8c6.8,0,6.8,0,6.8,0V19.3L19.1,19.3L19.1,19.3z M19.1,13.5c-6.8,0-6.8,0-6.8,0
		c0-1.7,1.6-3.2,3.4-3.2C17.5,10.2,19.1,11.8,19.1,13.5L19.1,13.5z"/>
	<path class="st0" d="M15.6,18.9c0.4,0,1.1-0.4,1.1-1.1c0-0.4-0.2-0.7-0.7-0.9c0-1.1,0-1.1,0-1.1c0-0.2-0.2-0.4-0.4-0.4
		c-0.4,0-0.7,0.2-0.7,0.4c0,1.1,0,1.1,0,1.1c-0.2,0.2-0.4,0.4-0.4,0.9C14.5,18.4,14.9,18.9,15.6,18.9L15.6,18.9z"/>
</g>
</svg>
