<?xml version="1.0" encoding="utf-8"?>
<!-- Generator: Adobe Illustrator 22.1.0, SVG Export Plug-In . SVG Version: 6.00 Build 0)  -->
<svg version="1.1" id="图层_1" xmlns="http://www.w3.org/2000/svg" xmlns:xlink="http://www.w3.org/1999/xlink" x="0px" y="0px"
	 viewBox="0 0 32 32" style="enable-background:new 0 0 32 32;" xml:space="preserve">
<style type="text/css">
	.st0{fill:#1D50A1;}
</style>
<g>
	<rect x="15.5" y="5.4" class="st0" width="1.1" height="3.2"/>
	<path class="st0" d="M11.2,14.1c-0.3,0-0.5-0.2-0.5-0.5V7.2c0-0.3,0.2-0.5,0.5-0.5s0.5,0.2,0.5,0.5v6.4
		C11.7,13.9,11.5,14.1,11.2,14.1z"/>
	<path class="st0" d="M11.2,26.8c-0.1,0-0.3-0.1-0.4-0.2c-0.1-0.1-0.2-0.2-0.2-0.4c0-0.1,0.1-0.3,0.2-0.4c0.2-0.2,0.6-0.2,0.8,0
		c0.1,0.1,0.2,0.2,0.2,0.4c0,0.1-0.1,0.3-0.2,0.4C11.4,26.7,11.3,26.8,11.2,26.8z"/>
	<path class="st0" d="M21.2,26.8c-0.3,0-0.5-0.2-0.5-0.5v-2.6c0-0.3,0.2-0.5,0.5-0.5c0.3,0,0.5,0.2,0.5,0.5v2.6
		C21.7,26.5,21.5,26.8,21.2,26.8z"/>
	<g>
		<path class="st0" d="M16.2,31.8c-0.1,0-0.3-0.1-0.4-0.2l-5-5c-0.2-0.2-0.2-0.6,0-0.8c0.2-0.2,0.6-0.2,0.8,0l5,5
			c0.2,0.2,0.2,0.6,0,0.8C16.5,31.8,16.3,31.8,16.2,31.8z"/>
		<path class="st0" d="M16.2,31.8c-0.1,0-0.3-0.1-0.4-0.2c-0.2-0.2-0.2-0.6,0-0.8l5-5c0.2-0.2,0.6-0.2,0.8,0c0.2,0.2,0.2,0.6,0,0.8
			l-5,5C16.5,31.8,16.3,31.8,16.2,31.8z"/>
	</g>
	<path class="st0" d="M20.9,11.7c-0.3,0-0.5-0.2-0.5-0.5V7.2c0-0.3,0.2-0.5,0.5-0.5s0.5,0.2,0.5,0.5v3.9
		C21.5,11.4,21.2,11.7,20.9,11.7z"/>
	<path class="st0" d="M11.1,17c-0.2,0-0.5-0.2-0.5-0.4c-0.1-0.3,0.1-0.6,0.4-0.7l10.1-2.8c0.3-0.1,0.6,0.1,0.7,0.4
		c0.1,0.3-0.1,0.6-0.4,0.7L11.2,17C11.2,17,11.1,17,11.1,17z"/>
	<path class="st0" d="M11.1,20.6c-0.2,0-0.5-0.2-0.5-0.4c-0.1-0.3,0.1-0.6,0.4-0.7l10.1-2.8c0.3-0.1,0.6,0.1,0.7,0.4
		c0.1,0.3-0.1,0.6-0.4,0.7l-10.1,2.8C11.2,20.6,11.1,20.6,11.1,20.6z"/>
	<path class="st0" d="M11.1,24.3c-0.2,0-0.5-0.2-0.5-0.4c-0.1-0.3,0.1-0.6,0.4-0.7l10.1-2.8c0.3-0.1,0.6,0.1,0.7,0.4
		c0.1,0.3-0.1,0.6-0.4,0.7l-10.1,2.8C11.2,24.3,11.1,24.3,11.1,24.3z"/>
	<g>
		<rect x="14.4" y="6.5" class="st0" width="3.3" height="1.1"/>
		<path class="st0" d="M26.9,6.8C24.8,2.7,20.6,0.2,16,0.2c-4.6,0-8.8,2.5-10.9,6.6C5,7,5,7.2,5.1,7.3c0.1,0.2,0.3,0.3,0.5,0.3h7.7
			V6.5H6.5c2.1-3.2,5.6-5.2,9.5-5.2s7.4,2,9.5,5.2h-6.8v1.1h7.7c0.2,0,0.4-0.1,0.5-0.3C27,7.2,27,7,26.9,6.8z"/>
	</g>
</g>
</svg>
