<?xml version="1.0" encoding="utf-8"?>
<!-- Generator: Adobe Illustrator 22.1.0, SVG Export Plug-In . SVG Version: 6.00 Build 0)  -->
<svg version="1.1" id="图层_1" xmlns="http://www.w3.org/2000/svg" xmlns:xlink="http://www.w3.org/1999/xlink" x="0px" y="0px"
	 viewBox="0 0 32 32" style="enable-background:new 0 0 32 32;" xml:space="preserve">
<style type="text/css">
	.st0{fill:#005BAC;}
</style>
<g>
	<path class="st0" d="M29.1,14.6c-0.4,0.9-1,1.8-1.8,2.6L16,28.5c-0.1,0.1-0.3,0.2-0.4,0.2c-0.2,0-0.3-0.1-0.4-0.2L3.9,17.2
		c-1.1-1.1-1.9-2.4-2.3-3.8C1.3,12,1.3,10.6,1.8,9.2c0.4-1.3,1.2-2.4,2.2-3.4c1-1,2.1-1.7,3.5-2.1C8.2,3.4,9,3.3,9.8,3.3
		c0.7,0,1.3,0.1,2,0.3c1.3,0.3,2.5,1,3.5,1.8l0.4,0.3L16,5.4c1.1-0.9,2.2-1.5,3.5-1.8c1.5-0.4,3-0.3,4.4,0.1
		c1.3,0.4,2.5,1.1,3.5,2.1c0.9,0.9,1.6,1.9,2,3.1h1.2c0,0,0,0,0-0.1C30,7.4,29.2,6.1,28.1,5c-1.1-1.1-2.5-1.9-3.9-2.4
		c-1.6-0.5-3.3-0.6-5-0.2c-1.3,0.3-2.5,0.9-3.5,1.8c-1.1-0.8-2.3-1.4-3.6-1.8C10.4,2,8.7,2.1,7,2.6C5.6,3.1,4.2,3.9,3.1,5
		C2,6.1,1.2,7.4,0.7,8.8c-0.5,1.6-0.6,3.3-0.2,4.9c0.4,1.6,1.3,3.1,2.6,4.3l11.3,11.3c0.3,0.3,0.8,0.5,1.2,0.5
		c0.5,0,0.9-0.2,1.2-0.5l11.3-11.3c1-1,1.8-2.2,2.3-3.4L29.1,14.6L29.1,14.6z"/>
	<polygon class="st0" points="31.8,11.2 30.6,11.2 30.6,10 29.5,10 29.5,11.2 28.3,11.2 28.3,12.3 29.5,12.3 29.5,13.5 30.6,13.5 
		30.6,12.3 31.8,12.3 	"/>
</g>
</svg>
