<?xml version="1.0" encoding="utf-8"?>
<!-- Generator: Adobe Illustrator 22.1.0, SVG Export Plug-In . SVG Version: 6.00 Build 0)  -->
<svg version="1.1" id="图层_1" xmlns="http://www.w3.org/2000/svg" xmlns:xlink="http://www.w3.org/1999/xlink" x="0px" y="0px"
	 viewBox="0 0 600 600" style="enable-background:new 0 0 600 600;" xml:space="preserve">
<style type="text/css">
	.st0{fill:#FFFFFF;}
</style>
<g>
	<path class="st0" d="M22.6,238.7c-2.3,0-4.7-0.9-6.5-2.7c-7.2-7.2-11.2-16.8-11.2-27c0-10.2,4-19.8,11.2-27c3.6-3.6,9.3-3.6,12.9,0
		c3.6,3.6,3.6,9.3,0,12.9c-3.8,3.8-5.9,8.8-5.9,14.1c0,5.3,2.1,10.3,5.9,14.1c3.6,3.6,3.6,9.3,0,12.9
		C27.2,237.8,24.9,238.7,22.6,238.7"/>
	<path class="st0" d="M578.4,238.7c-2.3,0-4.7-0.9-6.5-2.7c-3.6-3.6-3.6-9.3,0-12.9c3.8-3.8,5.9-8.8,5.9-14.1
		c0-5.4-2.1-10.4-5.9-14.1c-3.6-3.6-3.6-9.3,0-12.9c3.6-3.6,9.4-3.6,12.9,0c7.2,7.2,11.2,16.8,11.2,27c0,10.2-4,19.8-11.2,27
		C583,237.8,580.7,238.7,578.4,238.7"/>
	<g>
		<path class="st0" d="M69,288.9L16.1,236c-3.6-3.5-3.6-9.3,0-12.9c3.6-3.6,9.3-3.6,12.9,0l40,40l127.2-127.2L157,96.7
			c-3.6-3.6-3.6-9.3,0-12.9c3.6-3.6,9.3-3.6,12.9,0l52.2,52.2L69,288.9z"/>
		<path class="st0" d="M22.6,197.5c-2.3,0-4.7-0.9-6.5-2.7c-3.6-3.6-3.6-9.3,0-12.9l98.9-99c3.6-3.5,9.3-3.5,12.9,0
			c3.6,3.6,3.6,9.4,0,12.9L29,194.8C27.2,196.6,24.9,197.5,22.6,197.5"/>
		<path class="st0" d="M322.7,528.6c-8.6,0-17.2-3.3-23.7-9.8c-3.6-3.6-3.6-9.3,0-12.9c3.6-3.6,9.3-3.6,12.9,0c6,6,15.7,6,21.6,0
			c6-6,6-15.7,0-21.6c-3.6-3.5-3.6-9.3,0-12.9c3.6-3.6,9.3-3.6,12.9,0c13.1,13.1,13.1,34.4,0,47.4
			C339.9,525.4,331.3,528.6,322.7,528.6"/>
		<path class="st0" d="M357.2,494.1c-8.6,0-17.2-3.3-23.7-9.8c-3.6-3.5-3.6-9.3,0-12.9c3.6-3.6,9.3-3.6,12.9,0c6,6,15.7,6,21.6,0
			c2.9-2.9,4.5-6.7,4.5-10.8c0-4.1-1.6-7.9-4.5-10.8c-3.6-3.6-3.6-9.3,0-12.9c3.6-3.6,9.3-3.6,12.9,0c6.3,6.3,9.8,14.8,9.8,23.7
			c0,9-3.5,17.4-9.8,23.7C374.4,490.8,365.8,494.1,357.2,494.1"/>
		<path class="st0" d="M391.8,459.6c-8.6,0-17.2-3.3-23.7-9.8c-3.6-3.6-3.6-9.3,0-12.9c3.6-3.6,9.3-3.6,12.9,0c6,6,15.7,5.9,21.6,0
			c6-6,6-15.7,0-21.6c-3.6-3.6-3.6-9.3,0-12.9c3.6-3.6,9.3-3.6,12.9,0c13.1,13.1,13.1,34.4,0,47.4
			C408.9,456.3,400.3,459.6,391.8,459.6"/>
		<path class="st0" d="M426.3,425c-8.6,0-17.2-3.3-23.7-9.8c-3.6-3.6-3.6-9.3,0-12.9c3.6-3.6,9.3-3.6,12.9,0c6,6,15.7,6,21.6,0
			c2.9-2.9,4.5-6.7,4.5-10.8c0-4.1-1.6-7.9-4.5-10.8c-3.6-3.6-3.6-9.3,0-12.9c3.6-3.6,9.3-3.6,12.9,0c6.3,6.3,9.8,14.8,9.8,23.7
			c0,9-3.5,17.4-9.8,23.7C443.5,421.8,434.9,425,426.3,425"/>
		<path class="st0" d="M162.7,98.5c-2.3,0-4.7-0.9-6.5-2.7c-7.8-7.8-20.5-7.8-28.3,0c-3.6,3.6-9.3,3.6-12.9,0
			c-3.6-3.6-3.6-9.3,0-12.9c14.9-14.9,39.2-14.9,54.1,0c3.6,3.6,3.6,9.4,0,12.9C167.4,97.7,165,98.5,162.7,98.5"/>
		<path class="st0" d="M305.4,521.5c-2.3,0-4.7-0.9-6.4-2.7L62.6,282.5c-3.6-3.6-3.6-9.3,0-12.9c3.6-3.6,9.3-3.6,12.9,0l236.4,236.4
			c3.6,3.6,3.6,9.3,0,12.9C310.1,520.6,307.8,521.5,305.4,521.5"/>
		<path class="st0" d="M340,487c-2.3,0-4.7-0.9-6.4-2.7l-21.2-21.2c-3.6-3.6-3.6-9.3,0-12.9c3.6-3.6,9.3-3.6,12.9,0l21.2,21.2
			c3.6,3.6,3.6,9.4,0,12.9C344.6,486.1,342.3,487,340,487"/>
		<path class="st0" d="M374.5,452.4c-2.3,0-4.7-0.9-6.4-2.7l-21.2-21.2c-3.6-3.6-3.6-9.3,0-12.9c3.6-3.6,9.3-3.6,12.9,0l21.2,21.2
			c3.6,3.6,3.6,9.3,0,12.9C379.1,451.5,376.8,452.4,374.5,452.4"/>
		<path class="st0" d="M409,417.9c-2.3,0-4.7-0.9-6.5-2.7L381.4,394c-3.6-3.5-3.6-9.3,0-12.9c3.6-3.6,9.3-3.6,12.9,0l21.2,21.2
			c3.6,3.6,3.6,9.3,0,12.9C413.7,417,411.4,417.9,409,417.9"/>
		<path class="st0" d="M441.8,381.6c-2.4,0-4.7-0.9-6.5-2.7L299.3,242.9c-3.6-3.6-3.6-9.3,0-12.9c3.6-3.6,9.3-3.6,12.9,0
			l136.1,136.1c3.6,3.6,3.6,9.3,0,12.9C446.5,380.7,444.2,381.6,441.8,381.6"/>
		<path class="st0" d="M578.4,197.5c-2.3,0-4.7-0.9-6.5-2.7L473,95.9c-3.6-3.6-3.6-9.3,0-12.9c3.6-3.5,9.3-3.5,12.9,0l98.9,99
			c3.6,3.6,3.6,9.3,0,12.9C583,196.6,580.7,197.5,578.4,197.5"/>
		<path class="st0" d="M531.9,288.9l-153-153L431,83.8c3.6-3.6,9.3-3.6,12.9,0c3.6,3.6,3.6,9.3,0,12.9l-39.3,39.3l127.2,127.2l40-40
			c3.6-3.6,9.4-3.6,12.9,0c3.6,3.6,3.6,9.3,0,12.9L531.9,288.9z"/>
		<path class="st0" d="M479.4,98.5c-2.4,0-4.7-0.9-6.4-2.7c-7.8-7.8-20.5-7.8-28.3,0c-3.6,3.6-9.3,3.6-12.9,0
			c-3.6-3.6-3.6-9.3,0-12.9c14.9-14.9,39.2-14.9,54.1,0c3.6,3.6,3.6,9.4,0,12.9C484.1,97.7,481.7,98.5,479.4,98.5"/>
		<path class="st0" d="M252.6,286.7c-9.8,0-19.6-3.7-27-11.2c-7.2-7.2-11.2-16.8-11.2-27s4-19.8,11.2-27c3.6-3.6,9.3-3.6,12.9,0
			c3.6,3.6,3.6,9.3,0,12.9c-3.8,3.8-5.9,8.8-5.9,14.1s2.1,10.3,5.9,14.1c7.8,7.8,20.5,7.8,28.3,0c3.6-3.6,9.3-3.6,12.9,0
			c3.6,3.6,3.6,9.3,0,12.9C272.2,283,262.4,286.7,252.6,286.7"/>
		<path class="st0" d="M299.7,167.8c-0.7,0-1.5-0.1-2.2-0.3l-90.5-22.8c-4.9-1.2-7.8-6.2-6.6-11.1c1.2-4.9,6.2-7.8,11.1-6.6
			l90.5,22.8c4.9,1.2,7.9,6.2,6.6,11.1C307.5,165.1,303.7,167.8,299.7,167.8"/>
		<path class="st0" d="M233.3,235.8c-2.3,0-4.7-0.9-6.5-2.7c-3.6-3.6-3.6-9.3,0-12.9l69.8-69.8l93-23.4c4.9-1.2,9.8,1.7,11.1,6.6
			c1.2,4.9-1.7,9.8-6.6,11.1l-88.1,22.2l-66.2,66.2C237.9,234.9,235.6,235.8,233.3,235.8"/>
		<path class="st0" d="M274.4,277c-2.3,0-4.7-0.9-6.4-2.7c-3.6-3.6-3.6-9.3,0-12.9l31.4-31.4c3.6-3.5,9.3-3.5,12.9,0
			c3.6,3.6,3.6,9.4,0,12.9l-31.4,31.4C279.1,276.1,276.7,277,274.4,277"/>
		
			<rect x="450.6" y="322.9" transform="matrix(0.7072 -0.7071 0.7071 0.7072 -95.4354 433.6901)" class="st0" width="50.5" height="18.3"/>
		<polygon class="st0" points="487.3,356.4 451.5,320.6 464.4,307.7 500.2,343.5 		"/>
	</g>
	<path class="st0" d="M525.4,269.6l-25.2,25.3l12.9,12.9l25.2-25.2c3.6-3.6,3.6-9.3,0-12.9C534.7,266,529,266,525.4,269.6"/>
</g>
</svg>
