<?xml version="1.0" encoding="utf-8"?>
<!-- Generator: Adobe Illustrator 22.1.0, SVG Export Plug-In . SVG Version: 6.00 Build 0)  -->
<svg version="1.1" id="图层_1" xmlns="http://www.w3.org/2000/svg" xmlns:xlink="http://www.w3.org/1999/xlink" x="0px" y="0px"
	 viewBox="0 0 600 600" style="enable-background:new 0 0 600 600;" xml:space="preserve">
<style type="text/css">
	.st0{fill:#FFFFFF;}
</style>
<g>
	<path class="st0" d="M431.7,484.2c-4.6-14.2-18.3-28.4-40.6-42.3c-21.7-13.5-46.1-22.4-56.5-24.5c-12.3-2.4-24.1-3.6-35.2-3.6
		c-16.7,0-26.9,2.7-30.1,3.7c-11.6,2.1-35.8,11.9-56.1,24.4c-22.3,13.8-36,28.1-40.5,42.3c-0.8,2.5-0.6,5.2,0.6,7.5
		c2.9,5.6,22.9,33.3,131.7,33.3c65.2,0,105.9-8.2,121-24.4c6.1-6.5,6.2-12.5,6.1-14.1C432.1,485.7,431.9,484.9,431.7,484.2z
		 M305,505.5c-76.6,0-103.6-14.3-111.5-20.3c3.6-6.2,11.8-15.5,30-26.8c21.1-13.1,43.1-20.8,49.7-21.9c0.6-0.1,1.2-0.2,1.7-0.4
		c0.1,0,8.7-2.9,24.5-2.9c9.9,0,20.5,1.1,31.5,3.3c7.5,1.5,30,9.5,50,21.9c20.3,12.6,28.1,22.7,31.1,28.8
		C408.1,491.6,389.2,505.5,305,505.5z"/>
	<path class="st0" d="M242,347.7c0,33.2,27,60.2,60.2,60.2c33.2,0,60.2-27,60.2-60.2c0-33.2-27-60.2-60.2-60.2
		C269,287.5,242,314.5,242,347.7z M302.2,307c22.5,0,40.7,18.3,40.7,40.7c0,22.5-18.3,40.7-40.7,40.7c-22.5,0-40.7-18.3-40.7-40.7
		C261.4,325.2,279.7,307,302.2,307z"/>
	<path class="st0" d="M188.4,447.2c0-5.4-4.4-9.7-9.7-9.7c-55.4,0-76.5-8.7-83.7-13.3c3-4.2,8.9-10.3,20.6-17.6
		c14.9-9.2,31.4-15.3,36.4-16.1c0.5-0.1,1.2-0.2,1.7-0.4c0.1-0.1,14.7-4.8,40.8,0.3c4.5,0.9,28.4,10,45.2,20.9
		c4.5,2.9,10.5,1.6,13.5-2.9c2.9-4.5,1.6-10.5-2.9-13.5c-18.1-11.7-44.4-22.1-52-23.7c-7.4-1.5-14-2.2-19.9-2.6
		c24-2.5,42.8-22.8,42.8-47.4c0-26.3-21.4-47.7-47.7-47.7c-26.3,0-47.7,21.4-47.7,47.7c0,24.3,18.4,44.4,42,47.3
		c-10.4,0.3-17.2,2-19.6,2.8c-9,1.7-27.5,9.1-42.8,18.6c-17.3,10.7-27.9,21.8-31.5,33.1c-0.7,2.2-0.6,4.6,0.3,6.7
		c2.6,6.3,17.8,27.1,104.6,27.1C184.1,457,188.4,452.6,188.4,447.2z M145.2,321.4c0-15.5,12.6-28.2,28.2-28.2
		c15.6,0,28.2,12.6,28.2,28.2c0,15.5-12.7,28.2-28.2,28.2C157.9,349.6,145.2,337,145.2,321.4z"/>
	<path class="st0" d="M495.3,403.9c-15.3-9.5-33.7-16.9-42.8-18.6c-2.5-0.8-9.2-2.4-19.6-2.8c23.6-2.8,42-22.9,42-47.3
		c0-26.3-21.4-47.6-47.7-47.6c-26.3,0-47.7,21.4-47.7,47.6c0,24.6,18.8,44.9,42.8,47.4c-5.9,0.3-12.5,1.1-19.9,2.6
		c-6.8,1.4-23.8,7.2-40.5,17.1c-4.6,2.7-6.2,8.7-3.4,13.3c2.8,4.6,8.7,6.2,13.3,3.4c14.2-8.4,29.4-13.7,34.4-14.7
		c26.1-5.1,40.6-0.4,40.7-0.4c0.6,0.2,1.1,0.4,1.7,0.4c5.1,0.8,21.6,6.9,36.4,16.1c12.5,7.8,18.4,14.2,21.1,18.3
		c-5.4,3.6-22.8,11.7-69.4,12.5c-5.4,0.1-9.7,4.5-9.6,9.9c0.1,5.3,4.4,9.6,9.8,9.6c0,0,0.1,0,0.2,0c75.8-1.3,87.8-21.7,89.7-27.9
		c0.6-1.9,0.5-3.9-0.1-5.8C523.2,425.7,512.6,414.6,495.3,403.9z M399,335.2c0-15.5,12.6-28.2,28.2-28.2c15.6,0,28.2,12.7,28.2,28.2
		c0,15.6-12.6,28.2-28.2,28.2C411.7,363.3,399,350.7,399,335.2z"/>
	<path class="st0" d="M194.3,133.8c-4.6-1.7-10,0.9-11.6,5.6l-27.5,78.6c-1.8,4.8,0.6,9.9,5.4,11.6c4.7,1.8,10-0.9,11.6-5.6l5-13.9
		h28.1l5,13.9c1.6,4.7,6.9,7.3,11.6,5.6c4.8-1.7,7.3-6.8,5.7-11.6L200,139.4C199.1,137.1,197.2,134.8,194.3,133.8z M183.8,191.7
		l7.7-21.7l7.4,21.7H183.8z"/>
	<path class="st0" d="M334.3,170.7v-17.5c0-2.6-0.4-5.2-1.5-7.3c-1-2.6-2.4-4.8-4.4-6.8l-0.5-0.4c-1.7-1.7-3.9-2.9-6.1-3.9
		c-2.4-1-4.9-1.6-7.6-1.6h-37.5c-5,0-9.2,4.2-9.2,9.3v78.4c0,5.2,4.3,9.3,9.2,9.3h37.5c2.7,0,5.2-0.6,7.6-1.5c2.1-1,4.1-2.3,5.9-3.8
		l0.7-0.4c2-2,3.4-4.3,4.4-6.8c1.1-2.4,1.5-5,1.5-7.6v-17.6c0-2.7-0.4-5.2-1.5-7.4c-0.5-1.2-1-2.2-1.5-3.4c0.5-1,1-2.1,1.5-3.3
		C333.9,176,334.3,173.4,334.3,170.7z M315.9,210.1v0.5l0,0.2c0,0,0,0.4-0.3,0.6h-0.2l-0.4,0.5c0,0-0.4,0-0.7,0H286v-21h28.3
		l0.7,0.3l0.6,0.2v0.1c0,0.2,0.3,0.4,0.3,0.5c0,0.2,0,0.3,0,0.5V210.1z M315.9,153.3v17.5c0,0.3,0,0.6,0,0.6c0,0.4,0,0.8-0.3,0.8
		v0.2l-0.6,0.1l-0.7,0.3H286v-21h28.3c0.3,0,0.7,0,0.7,0l0.4,0.3l0.2,0.1c0,0.1,0.3,0.4,0.3,0.5h0V153.3z"/>
	<path class="st0" d="M398.2,154.8c2-1.9,4.7-3,7.5-3h9.4c2.9,0,5.5,1.1,7.1,3l0.4,0.2c1.6,2,2.7,4.4,2.7,7.2c0,5,4,9.1,9.3,9.1
		c5.1,0,9.2-4,9.2-9.1c0-7.9-3.1-14.9-8.1-19.9l-0.4-0.7c-5.3-5.2-12.3-8.4-20.2-8.4h-9.4c-7.8,0-15.2,3.2-20.3,8.4
		c-5.2,5.1-8.4,12.6-8.4,20.6v39.3c0,7.9,3.1,15.2,8.4,20.3c5.1,5.3,12.5,8.4,20.3,8.4h9.4c7.9,0,14.9-3.2,20.2-8.4
		c5.2-5.1,8.5-12.4,8.5-20.3c0-5.2-4.1-9.3-9.2-9.3c-5.2,0-9.3,4.1-9.3,9.3c0,2.7-1.2,5.4-2.9,7.3h-0.2c-1.6,1.8-4.2,3.1-7.1,3.1
		h-9.4c-2.8,0-5.5-1.3-7.5-3.1c-1.7-1.9-2.9-4.6-2.9-7.3v-39.3C395.3,159.2,396.5,156.5,398.2,154.8z"/>
	<polygon class="st0" points="580.7,178.6 560.9,178.6 560.9,158.9 541.2,158.9 541.2,178.6 521.5,178.6 521.5,198.3 541.2,198.3 
		541.2,218 560.9,218 560.9,198.3 580.7,198.3 	"/>
	<path class="st0" d="M94.7,381.8c5.4,0,9.8-4.4,9.8-9.7c0-5.4-4.4-9.7-9.8-9.7H76.4c-10.9,0-19.8-8.9-19.8-19.8V111
		c0-10.9,8.9-19.8,19.8-19.8h445.2c10.9,0,19.8,8.9,19.8,19.8v28.2h19.5V111c0-21.7-17.7-39.3-39.3-39.3H76.4
		C54.7,71.7,37,89.3,37,111v231.5c0,21.7,17.6,39.3,39.3,39.3H94.7z"/>
	<path class="st0" d="M541.3,342.5c0,10.9-8.9,19.8-19.8,19.8h-18c-5.4,0-9.7,4.3-9.7,9.7c0,5.4,4.3,9.7,9.7,9.7h18
		c21.7,0,39.3-17.6,39.3-39.3V237.7h-19.5V342.5z"/>
</g>
</svg>
