<?xml version="1.0" encoding="utf-8"?>
<!-- Generator: Adobe Illustrator 22.1.0, SVG Export Plug-In . SVG Version: 6.00 Build 0)  -->
<svg version="1.1" id="图层_1" xmlns="http://www.w3.org/2000/svg" xmlns:xlink="http://www.w3.org/1999/xlink" x="0px" y="0px"
	 viewBox="0 0 600 600" style="enable-background:new 0 0 600 600;" xml:space="preserve">
<style type="text/css">
	.st0{fill:#FFFFFF;}
</style>
<g>
	<rect x="417" y="43.8" class="st0" width="20.6" height="61.8"/>
	<path class="st0" d="M206.1,385.8H89c-24.1,0-43.8-19.6-43.8-43.8v-83.6c0-24.1,19.6-43.8,43.8-43.8h401.4
		c24.1,0,43.8,19.6,43.8,43.8v66.9c0,5.7-4.6,10.3-10.3,10.3s-10.3-4.6-10.3-10.3v-66.9c0-12.8-10.4-23.1-23.1-23.1H89
		c-12.8,0-23.1,10.4-23.1,23.1V342c0,12.8,10.4,23.1,23.1,23.1h117.1c5.7,0,10.3,4.6,10.3,10.3C216.4,381.1,211.8,385.8,206.1,385.8
		z"/>
	<path class="st0" d="M206.1,536.3H89c-24.1,0-43.8-19.6-43.8-43.8v-83.6c0-24.1,19.6-43.8,43.8-43.8h117.1
		c5.7,0,10.3,4.6,10.3,10.3c0,5.7-4.6,10.3-10.3,10.3H89c-12.8,0-23.1,10.4-23.1,23.1v83.6c0,12.8,10.4,23.1,23.1,23.1h117.1
		c5.7,0,10.3,4.6,10.3,10.3C216.4,531.7,211.8,536.3,206.1,536.3z"/>
	<path class="st0" d="M120.2,185.1c-5.7,0-10.3-4.6-10.3-10.3v-50.2c0-5.7,4.6-10.3,10.3-10.3c5.7,0,10.3,4.6,10.3,10.3v50.2
		C130.6,180.5,125.9,185.1,120.2,185.1z"/>
	<path class="st0" d="M120.2,335.6c-5.7,0-10.3-4.6-10.3-10.3v-50.2c0-5.7,4.6-10.3,10.3-10.3c5.7,0,10.3,4.6,10.3,10.3v50.2
		C130.6,331,125.9,335.6,120.2,335.6z"/>
	<path class="st0" d="M120.2,486.1c-5.7,0-10.3-4.6-10.3-10.3v-50.2c0-5.7,4.6-10.3,10.3-10.3c5.7,0,10.3,4.6,10.3,10.3v50.2
		C130.6,481.5,125.9,486.1,120.2,486.1z"/>
	<path class="st0" d="M488,553H291.5c-43.9,0-79.7-37.7-79.7-84c0-32.9,18.3-62.6,46.3-76.3c1.3-31.6,26.1-57,56.5-57
		c8.3,0,16.5,2,24,5.7c16.6-33.2,49.7-54.8,85.8-54.8c53.5,0,97,46,97,102.5c0,1.2,0,2.4-0.1,3.6c28,13.6,46.3,43.3,46.3,76.3
		C567.6,515.3,531.9,553,488,553z M314.6,356.4c-19.8,0-35.9,17.4-35.9,38.8c0,1.1,0.1,2.2,0.2,3.3c0.4,4.6-2.3,8.9-6.7,10.5
		c-23.7,8.9-39.7,32.9-39.7,59.9c0,35,26.5,63.4,59,63.4H488c32.6,0,59-28.4,59-63.4c0-27.1-16.1-51.2-40-60
		c-4.4-1.6-7.2-6-6.7-10.7c0.4-3.4,0.5-6.4,0.5-9.2c0-45.1-34.3-81.8-76.3-81.8c-31.5,0-60.2,21.3-71.4,53c-1.1,3.2-3.8,5.6-7,6.5
		c-3.3,0.9-6.8,0.1-9.4-2.1C330.3,359.2,322.7,356.4,314.6,356.4z"/>
	<rect x="396.2" y="64.1" class="st0" width="62.3" height="20.6"/>
	<path class="st0" d="M490.4,64.1h-11.3v20.6h11.3c12.8,0,23.1,10.4,23.1,23.1v83.6c0,12.8-10.4,23.1-23.1,23.1H89
		c-12.8,0-23.1-10.4-23.1-23.1v-83.6c0-12.8,10.4-23.1,23.1-23.1h286.5V64.1H89c-24.1,0-43.8,19.6-43.8,43.8v83.6
		c0,24.1,19.6,43.8,43.8,43.8h401.4c24.1,0,43.8-19.6,43.8-43.8v-83.6C534.2,83.7,514.5,64.1,490.4,64.1z"/>
</g>
</svg>
