<?xml version="1.0" encoding="utf-8"?>
<!-- Generator: Adobe Illustrator 22.1.0, SVG Export Plug-In . SVG Version: 6.00 Build 0)  -->
<svg version="1.1" id="图层_1" xmlns="http://www.w3.org/2000/svg" xmlns:xlink="http://www.w3.org/1999/xlink" x="0px" y="0px"
	 viewBox="0 0 600 600" style="enable-background:new 0 0 600 600;" xml:space="preserve">
<style type="text/css">
	.st0{fill:#FFFFFF;}
</style>
<path class="st0" d="M131.5,355.9c-14.1,0-25.4,11.4-25.4,25.4c0,14,11.4,25.4,25.4,25.4h40.7c14,0,25.4-11.4,25.4-25.4
	c0-14.1-11.4-25.4-25.4-25.4H131.5z M177.3,381.3c0,2.8-2.3,5.1-5.1,5.1h-40.7c-2.8,0-5.1-2.3-5.1-5.1c0-2.8,2.3-5.1,5.1-5.1l40.7,0
	C175,376.2,177.3,378.5,177.3,381.3z M556.6,293.1h-40.7c-14.1,0-25.4,11.4-25.4,25.4c0,1.4,0.2,2.7,0.4,4c-5.7-2.4-12-3.7-18.6-3.7
	H122.9c4.3-6.7,10.1-15.7,16.4-25.2c12.4-19,26.5-40.3,32-47.5c10.4-13.5,22.5-19.6,37.7-19.7h42.3c5.6,0,10.2-4.5,10.2-10.2
	c0-5.6-4.6-10.2-10.2-10.2h-42.3c-21.3-0.1-40.6,9.9-53.9,27.7c-8.7,11.5-32.3,47.7-46.1,69c-4.6-5.9-11.7-9.7-19.8-9.7H48.4
	c-14.1,0-25.4,11.4-25.4,25.4c0,14,11.4,25.4,25.4,25.4h29.7c-3.8,7-6.1,14.9-6.1,23.4l0,52c0,12.5,4.8,23.9,12.6,32.6
	c0,0.4-0.1,0.7-0.1,1.1l0,24.3c0,22.5,18.2,40.7,40.7,40.7c22.5,0,40.7-18.2,40.7-40.7V468h142.4v-20.3H120.8
	c-15.6,0-28.2-12.7-28.3-28.3v-52c0-15.6,12.7-28.2,28.3-28.3h351.5c15.6,0,28.2,12.7,28.3,28.3v52c0,15.6-12.7,28.2-28.3,28.3
	h-68.9V468h24.8v9.3c0,22.5,18.2,40.7,40.7,40.7s40.7-18.2,40.7-40.7V453c0-0.8-0.1-1.5-0.3-2.2c7.2-8.5,11.6-19.4,11.6-31.4h0v-52
	c0-8.6-2.2-16.6-6.1-23.6c0.4,0,0.7,0.1,1.1,0.1h40.7c14,0,25.4-11.4,25.4-25.4C582,304.5,570.6,293.1,556.6,293.1z M104.9,465.3
	c5,1.7,10.3,2.7,15.8,2.7h24.9v9.3c0,11.2-9.1,20.3-20.3,20.4c-11.2,0-20.3-9.1-20.3-20.4V465.3z M89.1,323.6H48.4
	c-2.8,0-5.1-2.3-5.1-5.1c0-2.8,2.3-5.1,5.1-5.1l40.7,0c2.8,0,5.1,2.3,5.1,5.1C94.2,321.3,91.9,323.6,89.1,323.6z M489.2,477.3
	c0,11.2-9.1,20.3-20.3,20.4c-11.2,0-20.3-9.1-20.3-20.4V468h23.7c6,0,11.7-1.1,17-3.1V477.3z M556.6,323.6h-40.7
	c-2.8,0-5.1-2.3-5.1-5.1c0-2.8,2.3-5.1,5.1-5.1h40.7c2.8,0,5.1,2.3,5.1,5.1C561.6,321.3,559.3,323.6,556.6,323.6z M424.8,406.7
	l40.7,0c14,0,25.4-11.4,25.4-25.4c0-14.1-11.4-25.4-25.4-25.5h-40.7c-14.1,0-25.4,11.4-25.4,25.5
	C399.4,395.3,410.7,406.7,424.8,406.7z M424.8,376.2l40.7,0c2.8,0,5.1,2.3,5.1,5.1c0,2.8-2.3,5.1-5.1,5.1h-40.7
	c-2.8,0-5.1-2.3-5.1-5.1C419.7,378.5,422,376.2,424.8,376.2z M365.2,429.7h-19v19h-19v19h19v19h19v-19h19v-19h-19V429.7z
	 M311.4,149.2L311.4,149.2c67.2,0.1,121.6,54.5,121.7,121.7c0,5.6,4.5,10.2,10.2,10.2c5.6,0,10.2-4.6,10.2-10.2
	c0-78.5-63.6-142.1-142.1-142.1c-5.6,0-10.2,4.6-10.2,10.2C301.2,144.6,305.7,149.2,311.4,149.2z M311.4,94
	c97.7,0.2,176.7,79.2,176.9,176.9c0,5.6,4.5,10.2,10.1,10.2c5.6,0,10.2-4.6,10.2-10.2c0-108.9-88.3-197.2-197.2-197.2
	c-5.6,0-10.2,4.6-10.2,10.2C301.2,89.5,305.7,94,311.4,94z M301.2,198.5c0,5.6,4.5,10.2,10.2,10.2v0c34.4,0.1,62.2,27.9,62.2,62.2
	c0,5.6,4.6,10.2,10.2,10.2c5.6,0,10.2-4.6,10.2-10.2c0-45.6-37-82.6-82.6-82.6C305.7,188.3,301.2,192.9,301.2,198.5z"/>
</svg>
