<?xml version="1.0" encoding="utf-8"?>
<!-- Generator: Adobe Illustrator 22.1.0, SVG Export Plug-In . SVG Version: 6.00 Build 0)  -->
<svg version="1.1" id="图层_1" xmlns="http://www.w3.org/2000/svg" xmlns:xlink="http://www.w3.org/1999/xlink" x="0px" y="0px"
	 viewBox="0 0 600 600" style="enable-background:new 0 0 600 600;" xml:space="preserve">
<style type="text/css">
	.st0{fill:#FFFFFF;}
</style>
<g>
	<path class="st0" d="M262.7,338.9c26.8,0,34.6-5,38.2-8.8c2.4-2.6,3.7-5.9,3.5-9c-0.1-0.8-0.2-1.5-0.4-2.3
		c-1.8-5.5-6.5-10.6-14-15.3c-3.3-2-6.9-3.8-10.2-5.1c3.4-4.1,5.5-9.2,5.5-14.9c0-12.9-10.5-23.3-23.3-23.3
		c-12.9,0-23.3,10.5-23.3,23.3c0,5.7,2.1,10.8,5.5,14.9c-3.4,1.4-7,3.2-10.2,5.1c-7.5,4.7-12.2,9.8-14,15.3
		c-0.8,2.4-0.6,5.1,0.6,7.4C223.1,330.9,231.9,338.9,262.7,338.9z M262.7,320c-7.6,0-13.2-0.5-17.2-1.2c4.3-2.4,8.5-3.9,9.5-4.1
		c0.4-0.1,1.1-0.2,1.5-0.4c0,0,1.6-0.5,4.6-0.5c2.3,0,4.7,0.3,7.3,0.8c1.3,0.2,6,1.9,10.4,4.5C275.2,319.6,270,320,262.7,320z
		 M262,279.1c2.4,0,4.4,2,4.4,4.4c0,2.4-2,4.4-4.4,4.4c-2.4,0-4.4-2-4.4-4.4C257.6,281.1,259.5,279.1,262,279.1z"/>
	<path class="st0" d="M405.9,309.4l-78.8-77.6l0,0l-6.7-6.6H212.2c-13.9,0-25.2,11.3-25.2,25.2v228.8c0,13.9,11.3,25.2,25.2,25.2
		h171.3c13.9,0,25.2-11.3,25.2-25.2V319v-2.8v-4L405.9,309.4L405.9,309.4z M378.9,309.5h-42.8c-3.4,0-6.2-2.8-6.2-6.2v-42
		L378.9,309.5z M383.5,485.4H212.2c-3.4,0-6.2-2.8-6.2-6.2V250.4c0-3.4,2.8-6.2,6.2-6.2H311v59c0,13.9,11.3,25.2,25.2,25.2h53.6
		v150.8C389.7,482.6,386.9,485.4,383.5,485.4z"/>
	<path class="st0" d="M367.5,358H228.2c-5.3,0-9.5,4.2-9.5,9.5c0,5.2,4.3,9.5,9.5,9.5h139.2c5.2,0,9.5-4.2,9.5-9.5
		C377,362.2,372.7,358,367.5,358z"/>
	<path class="st0" d="M367.5,399.8H228.2c-5.3,0-9.5,4.3-9.5,9.5c0,5.2,4.3,9.5,9.5,9.5h139.2c5.2,0,9.5-4.3,9.5-9.5
		C377,404.1,372.7,399.8,367.5,399.8z"/>
	<path class="st0" d="M367.5,441.7H228.2c-5.3,0-9.5,4.3-9.5,9.5c0,5.3,4.3,9.5,9.5,9.5h139.2c5.2,0,9.5-4.2,9.5-9.5
		C377,446,372.7,441.7,367.5,441.7z"/>
	<polygon class="st0" points="590.4,319 571.2,319 571.2,299.8 552,299.8 552,319 532.8,319 532.8,338.2 552,338.2 552,357.4 
		571.2,357.4 571.2,338.2 590.4,338.2 	"/>
	<path class="st0" d="M445.2,213.2c44,1.2,82,28.6,98.9,66.9h20.4c-17.1-46.4-60.1-81.1-111.2-85.5c-9.8-38.9-44.6-66.4-85.4-66.4
		c-17,0-33.1,4.7-47.2,13.6c-25.6-26.7-60.8-41.8-98-41.8C147.8,100,86.9,161,86.9,235.9c0,13.7,2,27,5.9,39.8
		c-37.5,11.9-63.8,47-63.8,87.3c0,50.5,41.1,91.6,91.6,91.6l42.6-0.1c5.2,0,9.5-4.3,9.5-9.5c0-5.2-4.3-9.5-9.5-9.5h0l-42.6,0.1
		c-40,0-72.6-32.6-72.6-72.6c0-34.9,24.8-64.9,58.9-71.3c2.8-0.5,5.2-2.3,6.6-4.8c1.4-2.5,1.5-5.4,0.5-8.1c-5.4-13.6-8.1-28-8.1-43
		c0-64.5,52.4-116.9,116.9-116.9c34.5,0,67,15.1,89.3,41.5c3.3,3.9,9.1,4.5,13.1,1.3c12.2-9.6,27-14.7,42.7-14.7
		c33.6,0,62.9,24.9,68.2,58C436.8,209.7,440.6,213,445.2,213.2z"/>
	<path class="st0" d="M454.2,435l-19.1,0.1c-5.2,0-9.5,4.3-9.5,9.5c0,5.2,4.3,9.5,9.5,9.5h0l19.5-0.1c0.3,0,0.6,0,0.9-0.1
		c48.2-4.9,87.6-35.4,105.8-77.3h-21C523.8,408.4,492.2,431,454.2,435z"/>
</g>
</svg>
