<?xml version="1.0" encoding="utf-8"?>
<!-- Generator: Adobe Illustrator 22.1.0, SVG Export Plug-In . SVG Version: 6.00 Build 0)  -->
<svg version="1.1" id="图层_1" xmlns="http://www.w3.org/2000/svg" xmlns:xlink="http://www.w3.org/1999/xlink" x="0px" y="0px"
	 viewBox="0 0 32 32" style="enable-background:new 0 0 32 32;" xml:space="preserve">
<style type="text/css">
	.st0{fill-rule:evenodd;clip-rule:evenodd;fill:#005BAC;}
</style>
<g>
	<polygon class="st0" points="29.9,12.7 28.8,12.7 28.8,11.8 27.4,11.8 27.4,12.7 26.4,12.7 26.4,14.2 27.4,14.2 27.4,15.3 
		28.8,15.3 28.8,14.2 29.9,14.2 29.9,12.7 29.9,12.7 	"/>
	<path class="st0" d="M27.5,16.7c-5.9,0-5.9,0-5.9,0c0-6.4,0-6.4,0-6.4c5.9,0,5.9,0,5.9,0c0,0.4,0,0.4,0,0.4c1.1,0,1.1,0,1.1,0
		c0-5.5,0-5.5,0-5.5c0-0.2-0.4-0.7-0.7-0.7c-3.9,0-8.1-0.9-11.6-2.9c-0.2,0-0.2,0-0.2,0c-0.2,0,0,0,0,0s-0.2,0-0.4,0
		c-3.5,2-7.6,2.9-11.6,2.9C3.9,4.5,3.5,5,3.5,5.2c0,13.9,0,13.9,0,13.9c0,6.6,8.7,10.8,12.5,11.7c0.2,0,0.2,0,0.2,0
		c3.7-0.9,12.5-5.1,12.5-11.7c0-2.6,0-2.6,0-2.6c-1.1,0-1.1,0-1.1,0C27.5,16.7,27.5,16.7,27.5,16.7L27.5,16.7z M13.8,3.7
		c0.9,0,1.5-0.4,2.2-0.9c3.5,1.8,7.4,2.6,11.6,2.9c0,3.5,0,3.5,0,3.5c-13.8,0-13.8,0-13.8,0V3.7L13.8,3.7L13.8,3.7z M20.5,10.3
		c0,6.4,0,6.4,0,6.4c-12.9,0-12.9,0-12.9,0c0-6.4,0-6.4,0-6.4H20.5L20.5,10.3L20.5,10.3z M4.6,5.6c2.8,0,5.5-0.4,8.1-1.3
		c0,4.9,0,4.9,0,4.9c-8.1,0-8.1,0-8.1,0V5.6L4.6,5.6L4.6,5.6z M4.6,10.3c2,0,2,0,2,0c0,6.4,0,6.4,0,6.4c-2,0-2,0-2,0V10.3L4.6,10.3
		L4.6,10.3z M4.6,19.1c0-1.1,0-1.1,0-1.1c8.1,0,8.1,0,8.1,0c0,6.4,0,6.4,0,6.4c-5.5,0-5.5,0-5.5,0C5.7,22.8,4.6,21.1,4.6,19.1
		L4.6,19.1z M20.5,27.9c-1.7,0.9-3.5,1.5-4.6,1.8c-1.7-0.4-5-1.8-7.6-4c12.2,0,12.2,0,12.2,0V27.9L20.5,27.9L20.5,27.9z M21.6,27.2
		c0-1.5,0-1.5,0-1.5c2.2,0,2.2,0,2.2,0C22.9,26.1,22.3,26.6,21.6,27.2L21.6,27.2z M27.5,19.1c0,2-1.1,3.7-2.6,5.3
		c-11.1,0-11.1,0-11.1,0c0-6.4,0-6.4,0-6.4c13.8,0,13.8,0,13.8,0V19.1L27.5,19.1L27.5,19.1z"/>
</g>
</svg>
