<?xml version="1.0" encoding="utf-8"?>
<!-- Generator: Adobe Illustrator 22.1.0, SVG Export Plug-In . SVG Version: 6.00 Build 0)  -->
<svg version="1.1" id="图层_1" xmlns="http://www.w3.org/2000/svg" xmlns:xlink="http://www.w3.org/1999/xlink" x="0px" y="0px"
	 viewBox="0 0 32 32" style="enable-background:new 0 0 32 32;" xml:space="preserve">
<style type="text/css">
	.st0{fill-rule:evenodd;clip-rule:evenodd;fill:#005BAC;}
</style>
<g>
	<path class="st0" d="M25.8,6.2c-20.2,0-20.2,0-20.2,0c-1.1,0-2.1,1.1-2.1,2.1c0,10.2,0,10.2,0,10.2c0,1.1,1.1,2.1,2.1,2.1
		c20.2,0,20.2,0,20.2,0c1.3,0,2.3-1.1,2.3-2.1c0-10.2,0-10.2,0-10.2C28.1,7.3,27,6.2,25.8,6.2L25.8,6.2z M27,18.5
		c0,0.6-0.6,1.1-1.3,1.1c-20.2,0-20.2,0-20.2,0c-0.6,0-1.1-0.4-1.1-1.1c0-10.2,0-10.2,0-10.2c0-0.4,0.4-1.1,1.1-1.1
		c20.2,0,20.2,0,20.2,0c0.6,0,1.3,0.6,1.3,1.1V18.5L27,18.5L27,18.5z"/>
	<path class="st0" d="M30.4,22.4c0.2-0.2,0.4-0.6,0.4-1.1c0-15.5,0-15.5,0-15.5c0-1.1-1.1-2.1-2.1-2.1c-25.5,0-25.5,0-25.5,0
		c-1.1,0-1.9,1.1-1.9,2.1c0,15.5,0,15.5,0,15.5c0,0.4,0,0.8,0.4,1.1c-0.8,0.4-1.3,1.3-1.3,2.1c0,0.4,0,0.4,0,0.4
		c0,1.5,0.6,2.1,1.7,2.1c20,0,20,0,20,0c0-0.8,0-0.8,0-0.8c-20,0-20,0-20,0c-0.2,0-0.6,0-0.6-1.3c0-0.4,0-0.4,0-0.4
		c0-0.6,0.4-1.1,1.1-1.1s0.6,0,0.6,0c25.5,0,25.5,0,25.5,0c0.6,0,0.6,0,0.6,0c0.6,0,1.3,0.4,1.3,1.1c0,0.4,0,0.4,0,0.4
		c0,0.6-0.6,1.3-1.3,1.3c-1.7,0-1.7,0-1.7,0c0,0.8,0,0.8,0,0.8c1.7,0,1.7,0,1.7,0c1.3,0,2.1-0.8,2.1-2.1c0-0.4,0-0.4,0-0.4
		C31.5,23.6,31.1,22.8,30.4,22.4L30.4,22.4z M29.8,21.3c0,0.4-0.4,0.8-1.1,0.8c-25.5,0-25.5,0-25.5,0c-0.4,0-1.1-0.4-1.1-0.8
		c0-15.5,0-15.5,0-15.5c0-0.6,0.6-1.1,1.1-1.1c25.5,0,25.5,0,25.5,0c0.6,0,1.1,0.4,1.1,1.1C29.8,21.3,29.8,21.3,29.8,21.3L29.8,21.3
		z"/>
	<polygon class="st0" points="25.7,25.3 24.3,25.3 24.3,26.3 23.4,26.3 23.4,27.3 24.3,27.3 24.3,28.3 25.7,28.3 25.7,27.3 
		26.8,27.3 26.8,26.3 25.7,26.3 25.7,25.3 25.7,25.3 	"/>
	<path class="st0" d="M17.3,9.2c-8.1,0-8.1,0-8.1,0c-0.4,0-0.6,0.2-0.6,0.6s0.2,0.6,0.6,0.6c8.1,0,8.1,0,8.1,0
		c0.2,0,0.6-0.2,0.6-0.6S17.5,9.2,17.3,9.2L17.3,9.2z"/>
	<path class="st0" d="M15,13c-5.8,0-5.8,0-5.8,0c-0.4,0-0.6,0.2-0.6,0.4c0,0.2,0.2,0.4,0.6,0.4c5.8,0,5.8,0,5.8,0
		c0.2,0,0.4-0.2,0.4-0.4C15.4,13.2,15.2,13,15,13L15,13z"/>
	<path class="st0" d="M12.4,16.8c-3.2,0-3.2,0-3.2,0c-0.4,0-0.6,0.2-0.6,0.3c0,0.3,0.2,0.5,0.6,0.5c3.2,0,3.2,0,3.2,0
		c0.2,0,0.4-0.2,0.4-0.5C12.8,17,12.6,16.8,12.4,16.8L12.4,16.8z"/>
</g>
</svg>
