<svg xmlns="http://www.w3.org/2000/svg" viewBox="0 0 451.24 243.4"><defs><style>.cls-1{fill:#085cab;}</style></defs><rect class="cls-1" x="414.99" y="131.41" width="36.25" height="13.09"/><rect class="cls-1" x="426.58" y="119.84" width="13.09" height="36.25"/><path class="cls-1" d="M143.2,197.56c0,2.24-.22,4.42-.62,6.56h149.82c-.38-2.14-.62-4.32-.62-6.56s.24-4.43,.62-6.55H142.58c.4,2.12,.62,4.31,.62,6.55"/><rect class="cls-1" x="318.49" y="71.81" width="71.01" height="13.1"/><path class="cls-1" d="M106.75,151.72c-25.31,0-45.83,20.53-45.83,45.85s20.52,45.83,45.83,45.83,45.85-20.52,45.85-45.83-20.52-45.85-45.85-45.85m0,78.59c-18.09,0-32.75-14.67-32.75-32.75s14.66-32.75,32.75-32.75,32.75,14.66,32.75,32.75-14.66,32.75-32.75,32.75"/><path class="cls-1" d="M328.23,151.72c-25.32,0-45.85,20.53-45.85,45.85s20.52,45.83,45.85,45.83,45.83-20.52,45.83-45.83-20.52-45.85-45.83-45.85m0,78.59c-18.09,0-32.75-14.67-32.75-32.75s14.66-32.75,32.75-32.75,32.75,14.66,32.75,32.75-14.66,32.75-32.75,32.75"/><path class="cls-1" d="M249.16,58.93H45.36c-3.61,0-6.54-2.93-6.54-6.55s2.92-6.55,6.54-6.55H249.16c3.63,0,6.55,2.93,6.55,6.55s-2.92,6.55-6.55,6.55"/><path class="cls-1" d="M171.68,104.75H45.36c-3.61,0-6.55-2.92-6.55-6.54s2.94-6.55,6.55-6.55h126.32c3.61,0,6.54,2.94,6.54,6.55s-2.92,6.54-6.54,6.54"/><path class="cls-1" d="M70.56,204.12h-24.73c-11.43,0-20.84-3.59-28.09-9.69C6.96,186.05,0,172.99,0,158.26c0-1.06,.08-2.09,.16-3.14-.11-1.63-.16-3.29-.16-4.96v-53.32H13.09v62.68h.09c.66,17.47,15,31.46,32.64,31.46v.02h24.74v13.11Z"/><path class="cls-1" d="M324.22,75.19c-.81-1.45-25.48-46.42-26-47.61-7.07-16.23-23.19-27.58-42.02-27.58-.79,0-1.57,.07-2.35,.12-1.14-.09-2.29-.11-3.45-.11H45.83C34.4,.01,24.99,3.59,17.74,9.69,6.96,18.07,0,31.13,0,45.85c0,1.06,.08,2.1,.16,3.14-.11,1.63-.16,3.3-.16,4.96v81.15H13.09V44.6h.08c.67-17.48,15.02-31.47,32.67-31.47v-.03h210.36c13.09,0,24.35,7.69,29.59,18.77,.75,1.59,26.85,49.43,26.97,49.65,1.76,3.16,5.74,4.32,8.9,2.57,3.16-1.74,4.3-5.74,2.57-8.89"/><path class="cls-1" d="M438.29,106.72c-2.5-10.16-8.35-18.99-16.37-25.24-7.26-6.09-16.66-9.67-28.09-9.67h-24.73v13.1h24.73v.02c14.22,0,26.25,9.11,30.75,21.8h13.71Z"/><path class="cls-1" d="M424.58,169.2c-4.5,12.7-16.53,21.8-30.75,21.8v.02h-24.73v13.11h24.73c11.43,0,20.83-3.59,28.09-9.69,8.02-6.23,13.87-15.08,16.37-25.23h-13.71Z"/></svg>