<?xml version="1.0" encoding="utf-8"?>
<!-- Generator: Adobe Illustrator 22.1.0, SVG Export Plug-In . SVG Version: 6.00 Build 0)  -->
<svg version="1.1" id="图层_1" xmlns="http://www.w3.org/2000/svg" xmlns:xlink="http://www.w3.org/1999/xlink" x="0px" y="0px"
	 viewBox="0 0 32 32" style="enable-background:new 0 0 32 32;" xml:space="preserve">
<style type="text/css">
	.st0{fill-rule:evenodd;clip-rule:evenodd;fill:#005BAC;}
</style>
<g>
	<polygon class="st0" points="29.6,14.7 29.6,13.6 28.2,13.6 28.2,14.7 27,14.7 27,16.1 28.2,16.1 28.2,17.5 29.6,17.5 29.6,16.1 
		31,16.1 31,14.7 29.6,14.7 29.6,14.7 	"/>
	<path class="st0" d="M16.7,22.5c0.2-0.2,0.2-0.4,0-0.7c0.2,0,0.4-0.2,0.7-0.4c0.7-1.3,0.9-3.1,0.9-4.7c0-1.8-1.3-3.1-3.1-3.1
		c-0.9,0-1.8,0.4-2.4,1.1c-0.2,0.2-0.2,0.7,0,0.9l0,0c-0.2,0-0.7,0.2-0.7,0.7s0,0.4,0,0.4c0,2.7-2.2,4.9-4.8,4.9
		c-0.2,0-0.4,0.2-0.4,0.7c0,0.2,0.2,0.4,0.4,0.4c3.5,0,6.2-2.7,6.2-6c0-0.4,0-0.4,0-0.4c0-0.2,0-0.4-0.2-0.4c0.2,0,0.4-0.2,0.7-0.2
		c0.2-0.4,0.9-0.9,1.3-0.9c1.1,0,2,0.9,2,2c0,1.3-0.4,2.9-0.9,4.3c-0.2,0.2-0.2,0.4,0,0.7c-0.2,0-0.4,0-0.4,0.2
		c-1.5,2.5-4.2,4.3-7.1,4.7c-0.4,0-0.7,0.4-0.7,0.7c0.2,0.2,0.4,0.4,0.7,0.4c0,0,0,0,0.2,0C12,27.2,15.1,25.4,16.7,22.5L16.7,22.5z"
		/>
	<path class="st0" d="M22.8,22c0.5,0,0.7-0.2,0.7-0.7c0-4.5,0-4.5,0-4.5c0-1.8-0.7-3.6-1.7-5c-0.2-0.2-0.7-0.5-0.9-0.2
		c-0.2,0.2-0.5,0.7-0.2,0.9c0.9,1.4,1.4,2.7,1.4,4.3c0,4.5,0,4.5,0,4.5C22.1,21.7,22.5,22,22.8,22L22.8,22z"/>
	<path class="st0" d="M20.2,11.8c0.2,0,0.4,0,0.4-0.2c0.2-0.2,0.2-0.6,0-0.8c-1.5-1.2-3.2-2.1-5.4-2.1c-1.9,0-3.7,0.8-5.2,2.1
		c-0.2,0.2-0.2,0.4,0,0.8c0.2,0.2,0.6,0.2,0.9,0c1.1-1,2.8-1.6,4.3-1.6c1.7,0,3.5,0.6,4.5,1.6C20,11.8,20.2,11.8,20.2,11.8
		L20.2,11.8z"/>
	<path class="st0" d="M9.8,11.6c-0.2-0.2-0.7,0-0.9,0.2c-1.2,1.4-1.7,3.2-1.7,5c0,0.5,0,0.5,0,0.5c0,0.5,0.2,0.7,0.7,0.7
		c0.2,0,0.5-0.2,0.5-0.7s0-0.5,0-0.5c0-1.6,0.7-3,1.7-4.3C10.3,12.3,10,11.8,9.8,11.6L9.8,11.6z"/>
	<path class="st0" d="M23.3,23.1c-1.1,0-2.2-1.1-2.2-2.4c0-3.9,0-3.9,0-3.9c0-1.3-0.4-2.4-1.1-3.2c-0.2-0.4-0.7-0.4-0.9-0.2
		c-0.2,0.2-0.4,0.6-0.2,0.9c0.7,0.6,0.9,1.7,0.9,2.6c0,3.9,0,3.9,0,3.9c0,1.9,1.5,3.5,3.5,3.5c0.4,0,0.7-0.2,0.7-0.6
		C23.9,23.3,23.7,23.1,23.3,23.1L23.3,23.1z"/>
	<path class="st0" d="M15.2,10.9c-0.7,0-1.6,0.2-2.3,0.7c-0.2,0.2-0.5,0.7-0.2,1c0.2,0.2,0.5,0.5,0.9,0.2c0.5-0.2,1.1-0.5,1.6-0.5
		c1.1,0,2.1,0.2,2.7,1c0.2,0,0.2,0.2,0.5,0.2s0.5-0.2,0.5-0.5c0.2-0.2,0.2-0.7,0-0.7C17.7,11.4,16.6,10.9,15.2,10.9L15.2,10.9z"/>
	<path class="st0" d="M7.2,20.2c2,0,3.7-1.5,3.7-3.4c0-1.1,0.4-2.1,1.3-3c0.2-0.2,0.2-0.6,0-0.9c-0.4-0.2-0.7-0.2-0.9,0
		c-1.1,1.1-1.8,2.4-1.8,3.9c0,1.3-1.1,2.4-2.4,2.4c-0.2,0-0.4,0.2-0.4,0.4C6.7,20,7,20.2,7.2,20.2L7.2,20.2z"/>
	<path class="st0" d="M22.6,25.9c-1.6-0.2-2.5-1.2-3.7-2.8c-0.2-0.2-0.5-0.2-0.9-0.2c-0.2,0.2-0.2,0.7,0,0.9c1.1,1.9,2.5,3,4.1,3.5
		c0.2,0,0.2,0,0.2,0c0.2,0,0.5-0.2,0.7-0.7C23.1,26.3,22.8,25.9,22.6,25.9L22.6,25.9z"/>
	<path class="st0" d="M20.4,27.8c-0.6-0.2-1.5-0.7-2.2-1.4c-0.9-0.9-2.2-0.9-3.2-0.2c-1.3,1.2-2.6,1.9-3.7,2.1
		c-0.4,0-0.6,0.2-0.4,0.7c0,0.2,0.2,0.5,0.4,0.5s0.2,0,0.2,0c1.3-0.2,2.8-0.9,4.3-2.1c0.4-0.5,1.1-0.5,1.7,0
		c0.6,0.7,1.5,1.4,2.4,1.9c0.2,0,0.6,0,0.6-0.5C20.8,28.5,20.8,28,20.4,27.8L20.4,27.8z"/>
	<path class="st0" d="M13.4,22.8c0,0,0.2,0,0.4,0c1.3-1.8,2.2-3.7,2.2-6c0-0.4,0-0.4,0-0.4c0-0.4-0.2-0.7-0.7-0.7
		c-0.2,0-0.4,0.2-0.4,0.7s0,0.4,0,0.4c0,1.8-0.9,3.5-2.2,5.1c-0.2,0.2-0.2,0.7,0.2,0.9C12.9,22.8,13.1,22.8,13.4,22.8L13.4,22.8z"/>
	<path class="st0" d="M12.7,22.6c-0.2-0.2-0.7-0.2-0.9,0c-1.4,0.9-3,1.4-4.6,1.4c-0.2,0-0.5,0.2-0.5,0.7c0,0.2,0.2,0.7,0.5,0.7
		c2.1,0,3.7-0.7,5.3-1.9C12.7,23.3,12.9,23.1,12.7,22.6L12.7,22.6z"/>
	<path class="st0" d="M5.2,0.8c-3.8,0-3.8,0-3.8,0C1.2,0.8,1,1.2,1,1.4c0,4,0,4,0,4c0,0.4,0.2,0.7,0.4,0.7c0.4,0,0.6-0.2,0.6-0.7
		c0-3.3,0-3.3,0-3.3c3.2,0,3.2,0,3.2,0c0.4,0,0.6-0.2,0.6-0.7C5.9,1.2,5.7,0.8,5.2,0.8L5.2,0.8z"/>
	<path class="st0" d="M25.2,2.1c3.4,0,3.4,0,3.4,0c0,3.3,0,3.3,0,3.3c0,0.4,0.2,0.7,0.4,0.7c0.4,0,0.6-0.2,0.6-0.7c0-4,0-4,0-4
		c0-0.2-0.2-0.7-0.6-0.7c-3.8,0-3.8,0-3.8,0c-0.2,0-0.4,0.4-0.4,0.7C24.8,1.9,25,2.1,25.2,2.1L25.2,2.1z"/>
	<path class="st0" d="M5.2,29.9c-3.2,0-3.2,0-3.2,0c0-3.3,0-3.3,0-3.3c0-0.4-0.2-0.7-0.6-0.7c-0.2,0-0.4,0.2-0.4,0.7c0,4,0,4,0,4
		c0,0.2,0.2,0.7,0.4,0.7c3.8,0,3.8,0,3.8,0c0.4,0,0.6-0.4,0.6-0.7C5.9,30.1,5.7,29.9,5.2,29.9L5.2,29.9z"/>
	<path class="st0" d="M29,25.9c-0.2,0-0.4,0.2-0.4,0.7c0,3.3,0,3.3,0,3.3c-3.4,0-3.4,0-3.4,0c-0.2,0-0.4,0.2-0.4,0.7
		c0,0.2,0.2,0.7,0.4,0.7c3.8,0,3.8,0,3.8,0c0.4,0,0.6-0.4,0.6-0.7c0-4,0-4,0-4C29.7,26.1,29.5,25.9,29,25.9L29,25.9z"/>
	<path class="st0" d="M12,6.5c-0.2,0.2-0.4,0.5-0.4,0.9c0.2,0.2,0.4,0.5,0.9,0.5c0.9-0.5,1.8-0.5,2.6-0.5c2.9,0,5.3,1.2,7.3,3.2
		c0,0.2,0.2,0.2,0.4,0.2h0.2c0.4-0.2,0.4-0.7,0.2-0.9c-2-2.5-5.1-3.9-8.2-3.9C14.2,6.1,13.1,6.3,12,6.5L12,6.5z"/>
	<path class="st0" d="M7.8,10.9c0.2,0,0.4,0,0.4-0.2c0.9-0.9,2-1.9,2.9-2.3c0.4-0.2,0.4-0.7,0.4-0.9c-0.2-0.2-0.7-0.5-0.9-0.2
		C9.6,7.7,8.3,8.8,7.4,10c-0.2,0.2-0.2,0.7,0,0.9C7.6,10.9,7.8,10.9,7.8,10.9L7.8,10.9z"/>
	<path class="st0" d="M9.6,6.3c1.8-0.9,3.6-1.7,5.6-1.7s4,0.7,5.8,1.7c0.2,0,0.2,0,0.2,0c0.2,0,0.4,0,0.7-0.2c0.2-0.5,0-0.7-0.2-0.9
		c-2-1.2-4.3-1.7-6.5-1.7S11,3.9,9,5.1C8.7,5.3,8.5,5.6,8.7,6C9,6.3,9.2,6.5,9.6,6.3L9.6,6.3z"/>
</g>
</svg>
