<?xml version="1.0" encoding="utf-8"?>
<!-- Generator: Adobe Illustrator 22.1.0, SVG Export Plug-In . SVG Version: 6.00 Build 0)  -->
<svg version="1.1" id="图层_1" xmlns="http://www.w3.org/2000/svg" xmlns:xlink="http://www.w3.org/1999/xlink" x="0px" y="0px"
	 viewBox="0 0 32 32" style="enable-background:new 0 0 32 32;" xml:space="preserve">
<style type="text/css">
	.st0{fill-rule:evenodd;clip-rule:evenodd;fill:#005BAC;}
</style>
<g>
	<path class="st0" d="M29.3,3.2c-0.4-0.4-0.9-0.7-1.6-0.7c-0.4,0-0.9,0.2-1.3,0.7c-3.1,3.1-3.1,3.1-3.1,3.1c0-1.3,0-1.3,0-1.3
		c0-2.2-1.8-4.2-4.2-4.2c-12.7,0-12.7,0-12.7,0C4,0.8,2.2,2.8,2.2,5c0,22,0,22,0,22l0,0l0,0c0,2.2,1.8,4.2,4.2,4.2
		c12.7,0,12.7,0,12.7,0c2.4,0,4.2-2,4.2-4.2l0,0l0,0c0-1.3,0-1.3,0-1.3c-1.1,0-1.1,0-1.1,0c0,1.3,0,1.3,0,1.3l0,0l0,0
		c0,1.5-1.3,2.9-3.1,2.9c-12.7,0-12.7,0-12.7,0c-1.8,0-3.1-1.3-3.1-2.9l0,0l0,0c0-22,0-22,0-22c0-1.5,1.3-2.9,3.1-2.9
		c12.7,0,12.7,0,12.7,0c1.8,0,3.1,1.3,3.1,2.9c0,2.4,0,2.4,0,2.4C6.9,22.6,6.9,22.6,6.9,22.6c-1.3,4.2-1.3,4.2-1.3,4.2
		c4.2-1.3,4.2-1.3,4.2-1.3c12.4-12.3,12.4-12.3,12.4-12.3c0,7.1,0,7.1,0,7.1c1.1,0,1.1,0,1.1,0c0-8.2,0-8.2,0-8.2c6-6,6-6,6-6
		C30,5.4,30,4.1,29.3,3.2L29.3,3.2z M28.4,5.2C9.1,24.4,9.1,24.4,9.1,24.4C7.3,25,7.3,25,7.3,25c0.7-2,0.7-2,0.7-2
		c19.1-19,19.1-19,19.1-19c0.4-0.4,1.1-0.4,1.3,0C28.9,4.3,28.9,5,28.4,5.2L28.4,5.2z"/>
	<polygon class="st0" points="23.2,21.5 22.2,21.5 22.2,22.5 21.2,22.5 21.2,23.6 22.2,23.6 22.2,24.6 23.2,24.6 23.2,23.6 
		24.2,23.6 24.2,22.5 23.2,22.5 23.2,21.5 23.2,21.5 	"/>
	<path class="st0" d="M6.6,6.1c12.3,0,12.3,0,12.3,0c0.2,0,0.4-0.3,0.4-0.8c0-0.3-0.2-0.5-0.4-0.5c-12.3,0-12.3,0-12.3,0
		C6.4,4.8,6.2,5,6.2,5.3C6.2,5.8,6.4,6.1,6.6,6.1L6.6,6.1z"/>
	<path class="st0" d="M6.6,9.6c8.1,0,8.1,0,8.1,0c0.5,0,0.7-0.2,0.7-0.5c0-0.2-0.2-0.4-0.7-0.4c-8.1,0-8.1,0-8.1,0
		c-0.2,0-0.5,0.2-0.5,0.4C6.2,9.4,6.4,9.6,6.6,9.6L6.6,9.6z"/>
	<path class="st0" d="M6.6,13.6c4,0,4,0,4,0c0.2,0,0.4-0.3,0.4-0.5c0-0.5-0.2-0.8-0.4-0.8c-4,0-4,0-4,0c-0.2,0-0.4,0.3-0.4,0.8
		C6.2,13.3,6.4,13.6,6.6,13.6L6.6,13.6z"/>
</g>
</svg>
