<?xml version="1.0" encoding="utf-8"?>
<!-- Generator: Adobe Illustrator 22.1.0, SVG Export Plug-In . SVG Version: 6.00 Build 0)  -->
<svg version="1.1" id="图层_1" xmlns="http://www.w3.org/2000/svg" xmlns:xlink="http://www.w3.org/1999/xlink" x="0px" y="0px"
	 viewBox="0 0 600 600" style="enable-background:new 0 0 600 600;" xml:space="preserve">
<style type="text/css">
	.st0{fill:#005BAC;}
</style>
<g>
	<g>
		<rect x="564.1" y="121.5" class="st0" width="22.9" height="223.9"/>
	</g>
	<g>
		<path class="st0" d="M541.3,391.1v-22.9c12.6,0,22.8-10.2,22.8-22.8H587C587,370.6,566.5,391.1,541.3,391.1z"/>
	</g>
	<g>
		<rect x="279.6" y="75.8" class="st0" width="261.8" height="22.9"/>
	</g>
	<g>
		<path class="st0" d="M541.3,75.8c25.2,0,45.7,20.5,45.7,45.7h-22.9c0-12.6-10.2-22.8-22.8-22.8V75.8z"/>
	</g>
	<g>
		<g>
			<g>
				<path class="st0" d="M138.7,213.6c-47.7,0-86.6-38.9-86.6-86.7c0-47.8,38.8-86.8,86.6-86.8c47.8,0,86.7,38.9,86.7,86.8
					C225.4,174.7,186.5,213.6,138.7,213.6z M138.7,63.1c-35.1,0-63.6,28.6-63.6,63.8c0,35.1,28.6,63.7,63.6,63.7
					c35.1,0,63.8-28.6,63.8-63.7C202.5,91.8,173.9,63.1,138.7,63.1z"/>
			</g>
		</g>
		<g>
			<g>
				<path class="st0" d="M138.8,565.5c-47.1,0-69-66.6-69.9-129.9c-34.7-24.8-55.3-65.9-55.3-111.1c0-73.8,56.2-133.9,125.2-133.9
					c69,0,125,60.1,125,133.9c0,45.3-20.6,86.3-55.3,111.1C207.7,499,185.8,565.5,138.8,565.5z M138.8,213.6
					c-56.3,0-102.2,49.8-102.2,110.9c0,39.7,18.7,75.3,50,95.4l5.6,3.6l-0.3,8.2c0,54.5,17.6,110.9,47,110.9
					c29.3,0,46.8-56.4,46.8-110.9l-0.2-8.3l5.4-3.5c31.3-20.1,50-55.7,50-95.4C240.9,263.4,195.1,213.6,138.8,213.6z"/>
			</g>
		</g>
	</g>
	<g>
		<path class="st0" d="M505.5,167H303.8c-6.3,0-11.4-5.1-11.4-11.4c0-6.3,5.1-11.5,11.4-11.5h201.7c6.3,0,11.4,5.1,11.4,11.5
			C516.9,161.8,511.8,167,505.5,167z"/>
	</g>
	<g>
		<path class="st0" d="M484.7,98.7H266.9c-6.3,0-11.4-5.1-11.4-11.4c0-6.3,5.1-11.5,11.4-11.5h217.8c6.3,0,11.4,5.1,11.4,11.5
			C496.1,93.5,491,98.7,484.7,98.7z"/>
	</g>
	<g>
		<path class="st0" d="M505.5,226.9H303.8c-6.3,0-11.4-5.1-11.4-11.4c0-6.3,5.1-11.4,11.4-11.4h201.7c6.3,0,11.4,5.1,11.4,11.4
			C516.9,221.8,511.8,226.9,505.5,226.9z"/>
	</g>
	<g>
		<g>
			<path class="st0" d="M403.4,368.3h-99.6c-6.3,0-11.4,5.1-11.4,11.4s5.1,11.4,11.4,11.4h99.6V368.3z"/>
		</g>
		<g>
			<path class="st0" d="M521.6,368.3h-4v22.9h4c6.3,0,11.4-5.1,11.4-11.4S527.9,368.3,521.6,368.3z"/>
		</g>
	</g>
	<g>
		<g>
			<rect x="316.5" y="368.3" class="st0" width="87" height="22.9"/>
		</g>
		<g>
			<rect x="517.6" y="368.3" class="st0" width="23.7" height="22.9"/>
		</g>
	</g>
	<g>
		<g>
			<rect x="449.1" y="345.5" class="st0" width="22.8" height="68.5"/>
		</g>
		<g>
			<rect x="426.3" y="368.3" class="st0" width="68.5" height="22.8"/>
		</g>
	</g>
</g>
</svg>
