<svg xmlns="http://www.w3.org/2000/svg" viewBox="0 0 235.8 246">
<style type="text/css">
	.st0{fill-rule:evenodd;clip-rule:evenodd;fill:#005BAC;}
</style>
<defs>
</defs>
<path class="st0" d="M197.9,226.6h37.9v9.7h-37.9V226.6L197.9,226.6z M177.6,219.2H170v7.7h-9.5v9.6h9.5v9.6h7.6v-9.6h10.5v-9.6
	h-10.5V219.2L177.6,219.2L177.6,219.2z M9.5,203.7C9.5,0,9.5,0,9.5,0C0,0,0,0,0,0c0,203.7,0,203.7,0,203.7
	c0,17.3,15.3,32.7,32.5,32.7c118.4,0,118.4,0,118.4,0c0-9.6,0-9.6,0-9.6c-118.4,0-118.4,0-118.4,0C19.1,226.8,9.5,217.2,9.5,203.7
	 M201.4,155.8v-1.9c0,0,0,0-42.2-17.3c-1.9,1.9-5.8,3.9-11.5,3.9c-1.9,0-5.8-1.9-7.7-3.9c0,0,0,0-24.9,19.3l1.9,1.9
	c0,7.7-7.7,13.5-15.4,13.5s-13.4-5.8-13.4-13.5c0,0,0-1.9,1.9-3.9c0,0,0,0-17.3-13.5c0,0,0,0-17.3,23.1c1.9,1.9,3.8,5.8,3.8,7.7
	c0,7.7-5.8,13.5-13.4,13.5s-15.4-5.8-15.4-13.5c0-7.7,7.7-13.5,15.4-13.5h1.9c0,0,0,0,17.3-23.1c0,0,0,0-13.4-11.6
	c-1.9,1.9-3.8,1.9-5.8,1.9c-7.7,0-15.4-5.8-15.4-13.5c0-7.7,7.7-13.5,15.4-13.5s13.4,5.8,13.4,13.5c0,1.9,0,3.9-1.9,5.8
	c0,0,0,0,13.4,9.6c0,0,0,0,32.6-46.2c-1.9-1.9-1.9-3.9-1.9-7.7c0-7.7,5.8-13.5,13.4-13.5c7.7,0,13.4,5.8,13.4,13.5v1.9
	c0,0,0,0,38.4,19.3c0,0,0,0,36.5-40.5c-1.9-1.9-1.9-3.9-1.9-5.8c0-7.7,5.8-13.5,13.4-13.5c7.7,0,13.4,5.8,13.4,13.5
	c0,7.7-5.8,13.5-13.4,13.5c-1.9,0-3.8,0-5.8-1.9c0,0,0,0-38.4,42.4c0,1.9-3.8,1.9-5.8,1.9c0,0,0,0-38.4-21.2
	c-3.8,3.9-7.7,3.9-11.5,3.9c-1.9,0-3.8,0-3.8,0s0,0-34.5,46.2c0,0,0,0,17.3,13.5c1.9,0,5.8-1.9,7.7-1.9c3.8,0,7.7,1.9,9.6,3.9
	c0,0,0,0,23-19.3v-1.9c0-7.7,7.7-13.5,13.4-13.5c7.7,0,15.4,5.8,15.4,13.5c0,0,0,0,42.2,19.3c1.9-1.9,5.8-3.9,9.6-3.9
	c7.7,0,13.4,5.8,13.4,13.5c0,7.7-5.8,13.5-13.4,13.5C207.1,169.3,201.4,163.5,201.4,155.8L201.4,155.8z M214.8,152
	c-1.9,0-3.8,1.9-3.8,3.9c0,1.9,1.9,3.9,3.8,3.9c1.9,0,3.8-1.9,3.8-3.9C218.6,153.9,216.7,152,214.8,152L214.8,152z M214.8,44.1
	c-1.9,0-3.8,1.9-3.8,3.9s1.9,3.9,3.8,3.9c1.9,0,3.8-1.9,3.8-3.9S216.7,44.1,214.8,44.1L214.8,44.1z M115,69.1
	c-1.9,0-3.8,1.9-3.8,3.9c0,3.9,1.9,5.8,3.8,5.8c3.8,0,5.8-1.9,5.8-5.8C120.8,71.1,118.8,69.1,115,69.1L115,69.1z M45.9,117.3
	c1.9,0,3.8-1.9,3.8-5.8c0-1.9-1.9-3.9-3.8-3.9c-3.8,0-5.8,1.9-5.8,3.9C40.2,115.4,42.1,117.3,45.9,117.3L45.9,117.3z M45.9,177
	c1.9,0,3.8-1.9,3.8-5.8c0-1.9-1.9-3.9-3.8-3.9c-3.8,0-5.8,1.9-5.8,3.9C40.2,175.1,42.1,177,45.9,177L45.9,177z M101.6,163.5
	c3.8,0,5.8-1.9,5.8-5.8c0-1.9-1.9-3.9-5.8-3.9c-1.9,0-3.8,1.9-3.8,3.9C97.7,161.6,99.6,163.5,101.6,163.5L101.6,163.5z M147.6,130.8
	c3.8,0,5.8-1.9,5.8-3.9c0-1.9-1.9-3.9-5.8-3.9c-1.9,0-3.8,1.9-3.8,3.9C143.8,128.8,145.7,130.8,147.6,130.8"/>
</svg>
