<?xml version="1.0" encoding="utf-8"?>
<!-- Generator: Adobe Illustrator 22.1.0, SVG Export Plug-In . SVG Version: 6.00 Build 0)  -->
<svg version="1.1" id="图层_1" xmlns="http://www.w3.org/2000/svg" xmlns:xlink="http://www.w3.org/1999/xlink" x="0px" y="0px"
	 viewBox="0 0 32 32" style="enable-background:new 0 0 32 32;" xml:space="preserve">
<style type="text/css">
	.st0{fill:#005BAC;}
</style>
<path class="st0" d="M28.9,13.4c-1.3,0-2.3,0.9-2.6,2.1h-3.1c-0.1-1.6-0.8-3.1-1.8-4.2L23.8,9c0.4,0.3,0.9,0.4,1.4,0.4
	c1.5,0,2.6-1.2,2.6-2.6c0-1.5-1.2-2.6-2.6-2.6c-1.5,0-2.6,1.2-2.6,2.6c0,0.6,0.2,1.1,0.5,1.5l-2.3,2.3c-1.1-1-2.6-1.6-4.1-1.7V5.6
	c1.2-0.2,2.1-1.3,2.1-2.6c0-1.5-1.2-2.6-2.6-2.6c-1.5,0-2.6,1.2-2.6,2.6c0,1.3,0.9,2.3,2.1,2.6v3.2c-1.7,0.1-3.1,0.8-4.3,1.8
	L8.9,8.3c0.3-0.4,0.5-1,0.5-1.5c0-1.5-1.2-2.6-2.6-2.6c-1.5,0-2.6,1.2-2.6,2.6c0,1.5,1.2,2.6,2.6,2.6c0.5,0,1-0.1,1.4-0.4l2.3,2.3
	c-1,1.1-1.6,2.6-1.7,4.1H5.7c-0.2-1.2-1.3-2.1-2.6-2.1c-1.5,0-2.6,1.2-2.6,2.6c0,1.5,1.2,2.6,2.6,2.6c1.3,0,2.3-0.9,2.6-2.1h3.1
	c0.1,1.6,0.7,3.1,1.7,4.2L8.3,23c-0.4-0.3-0.9-0.5-1.5-0.5c-1.5,0-2.6,1.2-2.6,2.6c0,1.5,1.2,2.6,2.6,2.6c1.5,0,2.6-1.2,2.6-2.6
	c0-0.5-0.2-1-0.4-1.4l2.2-2.2c1.2,1,2.6,1.7,4.3,1.8v3.1c-1.2,0.2-2.1,1.3-2.1,2.6c0,1.5,1.2,2.6,2.6,2.6c1.5,0,2.6-1.2,2.6-2.6
	c0-1.3-0.9-2.3-2.1-2.6v-3.1c1.6-0.1,3-0.7,4.1-1.7l2.2,2.2c-0.2,0.4-0.4,0.8-0.4,1.3c0,1.5,1.2,2.6,2.6,2.6c1.5,0,2.6-1.2,2.6-2.6
	c0-1.5-1.2-2.6-2.6-2.6c-0.6,0-1.1,0.2-1.6,0.5l-2.2-2.2c1-1.2,1.7-2.7,1.8-4.3h3.1c0.2,1.2,1.3,2.1,2.6,2.1c1.5,0,2.6-1.2,2.6-2.6
	C31.6,14.6,30.4,13.4,28.9,13.4z M25.2,5.2c0.9,0,1.6,0.7,1.6,1.6c0,0.9-0.7,1.6-1.6,1.6c-0.9,0-1.6-0.7-1.6-1.6
	C23.6,5.9,24.3,5.2,25.2,5.2z M6.7,8.3c-0.9,0-1.6-0.7-1.6-1.6c0-0.9,0.7-1.6,1.6-1.6c0.9,0,1.6,0.7,1.6,1.6
	C8.3,7.6,7.6,8.3,6.7,8.3z M3.1,17.6c-0.9,0-1.6-0.7-1.6-1.6c0-0.9,0.7-1.6,1.6-1.6c0.9,0,1.6,0.7,1.6,1.6C4.7,16.9,4,17.6,3.1,17.6
	z M6.8,26.7c-0.9,0-1.6-0.7-1.6-1.6c0-0.9,0.7-1.6,1.6-1.6c0.9,0,1.6,0.7,1.6,1.6C8.4,26,7.7,26.7,6.8,26.7z M25.2,23.6
	c0.9,0,1.6,0.7,1.6,1.6c0,0.9-0.7,1.6-1.6,1.6c-0.9,0-1.6-0.7-1.6-1.6C23.6,24.3,24.3,23.6,25.2,23.6z M14.5,3
	c0-0.9,0.7-1.6,1.6-1.6c0.9,0,1.6,0.7,1.6,1.6c0,0.9-0.7,1.6-1.6,1.6C15.2,4.6,14.5,3.9,14.5,3z M17.6,29c0,0.9-0.7,1.6-1.6,1.6
	c-0.9,0-1.6-0.7-1.6-1.6c0-0.9,0.7-1.6,1.6-1.6C16.9,27.4,17.6,28.1,17.6,29z M16,22.2c-3.4,0-6.2-2.8-6.2-6.2
	c0-3.4,2.8-6.2,6.2-6.2c3.4,0,6.2,2.8,6.2,6.2C22.2,19.5,19.4,22.2,16,22.2z M28.9,17.6c-0.9,0-1.6-0.7-1.6-1.6
	c0-0.9,0.7-1.6,1.6-1.6c0.9,0,1.6,0.7,1.6,1.6C30.5,16.9,29.8,17.6,28.9,17.6z M16.5,14.4h-1.1v1.1h-1.1v1.1h1.1v1.1h1.1v-1.1h1.1
	v-1.1h-1.1V14.4z"/>
</svg>
