<?xml version="1.0" encoding="utf-8"?>
<!-- Generator: Adobe Illustrator 22.1.0, SVG Export Plug-In . SVG Version: 6.00 Build 0)  -->
<svg version="1.1" id="图层_1" xmlns="http://www.w3.org/2000/svg" xmlns:xlink="http://www.w3.org/1999/xlink" x="0px" y="0px"
	 viewBox="0 0 200 200" style="enable-background:new 0 0 200 200;" xml:space="preserve">
<style type="text/css">
	.st0{fill:#1D50A1;}
</style>
<g>
	<path class="st0" d="M91.6,180.9c-49.3,0-89.4-40.1-89.4-89.4C2.2,42.1,42.3,2,91.6,2c49.3,0,89.4,40.1,89.4,89.4
		C181.1,140.8,140.9,180.9,91.6,180.9z M91.6,10.3c-44.7,0-81.1,36.4-81.1,81.1s36.4,81.1,81.1,81.1c44.7,0,81.1-36.4,81.1-81.1
		S136.3,10.3,91.6,10.3z"/>
	<g>
		<path class="st0" d="M92.6,155.8c-2.3,0-4.2-1.9-4.2-4.2c0-2.3,1.9-4.2,4.2-4.2c30.9,0,56.1-25.2,56.1-56.1c0-2.3,1.9-4.2,4.2-4.2
			c2.3,0,4.2,1.9,4.2,4.2C157,126.9,128.1,155.8,92.6,155.8z"/>
		<path class="st0" d="M37.3,71.5c-0.6,0-1.1-0.1-1.7-0.3c-2.1-0.9-3.1-3.4-2.2-5.5c6.6-15.3,19.3-27.7,34.8-34
			c2.1-0.9,4.6,0.2,5.4,2.3c0.9,2.1-0.2,4.6-2.3,5.4C58,44.9,46.9,55.7,41.1,69C40.5,70.6,38.9,71.5,37.3,71.5z"/>
	</g>
	<path class="st0" d="M194.8,199.4c-1.1,0-2.1-0.4-3-1.2l-41.7-41.7c-1.6-1.6-1.6-4.3,0-5.9c1.6-1.6,4.3-1.6,5.9,0l41.7,41.7
		c1.6,1.6,1.6,4.3,0,5.9C197,199,195.9,199.4,194.8,199.4z"/>
	<g>
		<rect x="78.1" y="86.2" class="st0" width="24.9" height="8.3"/>
		<rect x="86.4" y="77.8" class="st0" width="8.3" height="24.9"/>
	</g>
</g>
</svg>
