<?xml version="1.0" encoding="utf-8"?>
<!-- Generator: Adobe Illustrator 22.1.0, SVG Export Plug-In . SVG Version: 6.00 Build 0)  -->
<svg version="1.1" id="图层_1" xmlns="http://www.w3.org/2000/svg" xmlns:xlink="http://www.w3.org/1999/xlink" x="0px" y="0px"
	 viewBox="0 0 32 32" style="enable-background:new 0 0 32 32;" xml:space="preserve">
<style type="text/css">
	.st0{fill-rule:evenodd;clip-rule:evenodd;fill:#005BAC;}
</style>
<g>
	<path class="st0" d="M16.4,28c0,0,0,0-8.7,0c-0.4,0-0.6,0.2-0.6,0.7c0,0.2,0.2,0.5,0.6,0.5c0,0,0,0,8.7,0c0.4,0,0.6-0.2,0.6-0.5
		C17,28.2,16.8,28,16.4,28L16.4,28z"/>
	<path class="st0" d="M28.6,2.8c0,0,0,0-7.2,0c-1.7,0-3.1,1.5-3.1,3.1c0,0,0,0,0,2.3c0,0.2,0.2,0.4,0.6,0.4c0.2,0,0.4-0.2,0.4-0.4
		c0,0,0,0,0-2.3c0-1,0.8-2.1,2.1-2.1c0,0,0,0,7.2,0c1,0,1.9,1,1.9,2.1c0,0,0,0,0,20.2c0,1.3-0.8,2.1-1.9,2.1c0,0,0,0-7.2,0
		c-0.8,0-1.7-0.4-1.9-1.5c-0.2,0-0.4-0.4-0.8-0.2c-0.2,0.2-0.4,0.4-0.2,0.6c0.4,1.3,1.7,2.1,2.9,2.1c0,0,0,0,7.2,0
		c1.4,0,2.9-1.5,2.9-3.1c0,0,0,0,0-20.2C31.5,4.2,30.1,2.8,28.6,2.8L28.6,2.8z"/>
	<path class="st0" d="M28.2,7.2c0-0.2-0.2-0.3-0.6-0.3c0,0,0,0-5.1,0c-0.2,0-0.4,0.2-0.4,0.3c0,0.3,0.2,0.5,0.4,0.5c0,0,0,0,5.1,0
		C28,7.7,28.2,7.6,28.2,7.2L28.2,7.2z"/>
	<path class="st0" d="M19.9,14c0-0.2-0.2-0.5-0.4-0.5c0,0,0,0-15.1,0c-0.4,0-0.6,0.2-0.6,0.5c0,0.5,0.2,0.7,0.6,0.7c0,0,0,0,15.1,0
		C19.7,14.8,19.9,14.5,19.9,14L19.9,14z"/>
	<path class="st0" d="M4.4,16.4c-0.4,0-0.6,0.4-0.6,0.6c0,0.2,0.2,0.6,0.6,0.6c0,0,0,0,9.3,0c0.4,0,0.4-0.4,0.4-0.6
		c0-0.2,0-0.6-0.4-0.6C13.7,16.4,13.7,16.4,4.4,16.4L4.4,16.4z"/>
	<path class="st0" d="M24.1,22.2c0-1,0-1,0-1c-1,0-1,0-1,0c0,1,0,1,0,1c0,1.2-1,2.2-2.5,2.2c-16.7,0-16.7,0-16.7,0
		c-1.2,0-2.5-1-2.5-2.2c0-9.2,0-9.2,0-9.2c0-1.2,1.2-2.2,2.5-2.2c16.7,0,16.7,0,16.7,0c1.4,0,2.5,1,2.5,2.2c0,3.5,0,3.5,0,3.5
		c1,0,1,0,1,0c0-3.5,0-3.5,0-3.5c0-1.8-1.7-3.3-3.5-3.3c-16.7,0-16.7,0-16.7,0c-1.9,0-3.3,1.4-3.3,3.3c0,9.2,0,9.2,0,9.2
		c0,1.8,1.4,3.3,3.3,3.3c16.7,0,16.7,0,16.7,0C22.4,25.5,24.1,24.1,24.1,22.2L24.1,22.2z"/>
	<polygon class="st0" points="23.9,20.5 23.9,19.4 24.9,19.4 24.9,18.3 23.9,18.3 23.9,17.2 23,17.2 23,18.3 22,18.3 22,19.4 
		23,19.4 23,20.5 23.9,20.5 23.9,20.5 	"/>
</g>
</svg>
